<svg id="グループ_467" data-name="グループ 467" xmlns="http://www.w3.org/2000/svg" xmlns:xlink="http://www.w3.org/1999/xlink" width="110" height="120" viewBox="0 0 110 120">
  <defs>
    <clipPath id="clip-path">
      <rect id="長方形_269" data-name="長方形 269" width="110" height="120" fill="none"/>
    </clipPath>
  </defs>
  <g id="グループ_466" data-name="グループ 466" clip-path="url(#clip-path)">
    <path id="パス_4443" data-name="パス 4443" d="M238.624,229.493c-.476-7.333-5.759-12.485-11-17.01q-.312-.269-.623-.536c-1.492,4.078-3,8.15-4.475,12.23-.926,2.557-1.832,5.122-2.769,7.675a84.165,84.165,0,0,0,7.6,8.838,1.366,1.366,0,0,1-1.35,2.246,1.326,1.326,0,0,1-.545-.342A85.737,85.737,0,0,1,211.086,223.3c-1.405-2.586-1.959-6.466-5.436-6.86-2.636-.3-3.6,1.707-3.482,4.012a21.3,21.3,0,0,0,1.749,6.514c1.263,3.21,2.795,6.321,3.781,9.635,2.084,7,.911,14.4,1.411,21.572.384,5.514,2.546,11.555,7.761,14.113.091.045.18.091.273.133a1.185,1.185,0,0,1,.566.5h15.708a1.4,1.4,0,0,1-.436-1.262q.359-2.388.718-4.776l1.631-10.846,2.031-13.5c.646-4.3,1.544-8.672,1.261-13.038m-5.524,1.182-3.384.558-5.736.946c-1.69.279-2.41-2.316-.712-2.6l6.15-1.015,2.969-.49c1.69-.279,2.41,2.316.713,2.6" transform="translate(-147.983 -154.879)" fill="#fff"/>
    <path id="パス_4444" data-name="パス 4444" d="M161.374,276.434l-11.914-4.357-1.229-.449-.208.163a1.406,1.406,0,0,1,.255,2.067c-1.348,1.555-5.5,5.175-2.663,7.239,3.4,2.473,7.181-3.267,8.958-5.342,1.127-1.316,3.015.6,1.895,1.9a36.819,36.819,0,0,1-4.347,4.77,1.468,1.468,0,0,1-.086.28c-.773,1.853,1.395,3.783,3.179,3.157,1.946-.683,3.47-3.151,4.7-4.728a1.164,1.164,0,0,1,2.012.3l.862-1.046a41.306,41.306,0,0,0-1.412-3.959h0" transform="translate(-105.882 -198.491)" fill="#fff"/>
    <path id="パス_4445" data-name="パス 4445" d="M86.514,101.188l1.509-4.166c.44-1.215.85-2.412-.59-3.129l-.821-.3L66.937,86.4,39,76.182l-10.228-3.74c-1.312-.48-2.632-1.075-3.978-1.455-1.61-.454-2.017.735-2.439,1.9l-1.543,4.259L15.9,90.7,11.44,103.025c-.549,1.516-2.071,4.1.029,4.982,1.911.8,3.915,1.432,5.861,2.144l11.277,4.124,28.216,10.318q2.429.888,4.853,1.794a43.244,43.244,0,0,1-1.908-5.251c-.656-2.374-1.131-5.208-.007-7.519,1.306-2.683,4.457-3.467,7.159-2.643,3.667,1.119,4.268,4.47,5.882,7.479a82.146,82.146,0,0,0,4.678,7.677l4.147-11.447,4.888-13.494M25.174,75.4l2.927-.429a.9.9,0,0,1,.969,1.2l-.959,2.648a.892.892,0,0,1-1.507.29l-1.968-2.219a.9.9,0,0,1,.538-1.486m-.356,14.307a1.347,1.347,0,0,1,0,2.693,1.347,1.347,0,0,1,0-2.693m2.269,15.524-.241.665a3.428,3.428,0,0,1-4.386,2.055L18.478,106.5a3.453,3.453,0,0,1-2.046-4.407l.241-.665a3.428,3.428,0,0,1,4.386-2.055l3.983,1.456a3.453,3.453,0,0,1,2.045,4.407M28.45,93.7a1.347,1.347,0,0,1,0-2.693,1.347,1.347,0,0,1,0,2.693m2.468-16.922,17.766,6.5c1.61.589.911,3.19-.712,2.6l-17.766-6.5c-1.61-.589-.911-3.19.712-2.6m15.69,23.438a1.347,1.347,0,0,1,0-2.693,1.347,1.347,0,0,1,0,2.693m-3.632-1.3a1.347,1.347,0,0,1,0-2.693,1.347,1.347,0,0,1,0,2.693m-3.632-1.3a1.347,1.347,0,0,1,0-2.693,1.347,1.347,0,0,1,0,2.693m-7.263-2.606a1.347,1.347,0,0,1,0-2.693,1.347,1.347,0,0,1,0,2.693m3.632-1.389a1.347,1.347,0,0,1,0,2.693,1.347,1.347,0,0,1,0-2.693m12.894,23.4-12.985-4.748c-1.61-.589-.911-3.19.713-2.6l12.985,4.748c1.61.589.911,3.19-.713,2.6m1.633-15.5a1.347,1.347,0,0,1,0-2.693,1.347,1.347,0,0,1,0,2.693m3.632,1.3a1.347,1.347,0,0,1,0-2.693,1.347,1.347,0,0,1,0,2.693m3.632,1.3a1.347,1.347,0,0,1,0-2.693,1.347,1.347,0,0,1,0,2.693m3.632,1.3a1.347,1.347,0,0,1,0-2.693,1.347,1.347,0,0,1,0,2.693m3.632,1.3a1.347,1.347,0,0,1,0-2.693,1.347,1.347,0,0,1,0,2.693m3.632,1.3a1.347,1.347,0,0,1,0-2.693,1.347,1.347,0,0,1,0,2.693m3.632,1.3a1.347,1.347,0,0,1,0-2.693,1.347,1.347,0,0,1,0,2.693m3.632,1.3a1.347,1.347,0,0,1,0-2.693,1.347,1.347,0,0,1,0,2.693" transform="translate(-7.607 -51.801)" fill="#fff"/>
    <path id="パス_4446" data-name="パス 4446" d="M64.892,90.163a.892.892,0,0,0,1.507-.29l.959-2.648a.9.9,0,0,0-.969-1.2l-2.927.429a.9.9,0,0,0-.538,1.486Z" transform="translate(-45.895 -62.858)" fill="#323232"/>
    <path id="パス_4447" data-name="パス 4447" d="M100.316,99.039l-17.766-6.5c-1.623-.594-2.323,2.008-.712,2.6l17.766,6.5c1.623.594,2.323-2.007.713-2.6" transform="translate(-59.238 -67.561)" fill="#323232"/>
    <path id="パス_4448" data-name="パス 4448" d="M40.981,177.56,37,176.1a3.428,3.428,0,0,0-4.386,2.055l-.241.665a3.453,3.453,0,0,0,2.045,4.407l3.983,1.456a3.427,3.427,0,0,0,4.386-2.055l.241-.665a3.453,3.453,0,0,0-2.045-4.407" transform="translate(-23.546 -128.536)" fill="#75bb36"/>
    <path id="パス_4449" data-name="パス 4449" d="M245.054,440.216a1.434,1.434,0,0,0,1.919-1.827h-4.839a13.222,13.222,0,0,0,2.92,1.827" transform="translate(-177.246 -320.351)" fill="#323232"/>
    <path id="パス_4450" data-name="パス 4450" d="M318.806,438.389a1.313,1.313,0,0,0,1.94,0Z" transform="translate(-233.371 -320.351)" fill="#323232"/>
    <path id="パス_4451" data-name="パス 4451" d="M87.583,162.03l4.341-28.86c.681-4.528,1.662-9.171,1.412-13.771a20.516,20.516,0,0,0-3.844-10.891,52.859,52.859,0,0,0-9.127-9.268,1.449,1.449,0,0,0-.4-.244q1.673-4.6,3.289-9.223a4.315,4.315,0,0,0-2.219-5.538c-.043-.019-.086-.035-.129-.049a1.5,1.5,0,0,0-.191-.086l-15.18-5.551L36.347,67.873c-6.054-2.214-12.083-4.523-18.17-6.645a4.281,4.281,0,0,0-5.043,1.47,11.553,11.553,0,0,0-1.141,2.687L7.709,77.21,2.521,91.531.777,96.348A8.558,8.558,0,0,0,0,99.287c.033,3.207,2.969,3.987,5.372,4.865l9.519,3.481,28.687,10.491,11.914,4.357h0a34.532,34.532,0,0,1,2.759,11.73c.2,3.936-.045,7.877.1,11.814.225,5.957,1.841,12.681,6.533,16.55h4.839a1.188,1.188,0,0,0-.566-.5c-.093-.043-.182-.089-.273-.133-5.215-2.558-7.377-8.6-7.761-14.113-.5-7.175.673-14.572-1.411-21.572-.986-3.314-2.519-6.426-3.782-9.635a21.312,21.312,0,0,1-1.749-6.514c-.121-2.305.846-4.312,3.482-4.012,3.477.395,4.03,4.274,5.436,6.86a85.744,85.744,0,0,0,14.376,19.294,1.331,1.331,0,0,0,.545.342,1.367,1.367,0,0,0,1.35-2.246,84.133,84.133,0,0,1-7.6-8.838c.936-2.553,1.843-5.119,2.769-7.675,1.478-4.08,2.984-8.153,4.476-12.23l.623.536c5.246,4.526,10.528,9.677,11,17.01.284,4.365-.614,8.741-1.261,13.038l-2.031,13.5-1.631,10.846q-.359,2.388-.718,4.776a1.4,1.4,0,0,0,.435,1.262h1.94a1.259,1.259,0,0,0,.208-.547m-8.677-68.1-4.888,13.494-4.147,11.447a82.144,82.144,0,0,1-4.678-7.677c-1.614-3.009-2.216-6.36-5.883-7.479-2.7-.824-5.852-.04-7.158,2.643-1.125,2.31-.649,5.144.007,7.519a43.246,43.246,0,0,0,1.908,5.251q-2.425-.9-4.853-1.794L21,107.011,9.723,102.887c-1.946-.712-3.951-1.34-5.861-2.144-2.1-.883-.579-3.465-.029-4.982L8.3,83.439l4.911-13.556,1.543-4.259c.422-1.166.83-2.354,2.439-1.9,1.346.38,2.665.975,3.978,1.455L31.4,68.919,59.33,79.134,79,86.329l.821.3c1.44.717,1.031,1.914.59,3.129l-1.509,4.166" transform="translate(0.001 -44.538)" fill="#323232"/>
    <path id="パス_4452" data-name="パス 4452" d="M287.4,271.8l-2.969.49-6.151,1.015c-1.7.28-.977,2.875.713,2.6l5.736-.946,3.384-.558c1.7-.28.977-2.875-.713-2.6" transform="translate(-202.995 -198.602)" fill="#323232"/>
    <path id="パス_4453" data-name="パス 4453" d="M152.668,280.831c-1.229,1.576-2.753,4.044-4.7,4.728-1.784.626-3.951-1.3-3.179-3.157a1.465,1.465,0,0,0,.086-.279,36.819,36.819,0,0,0,4.347-4.77c1.12-1.307-.768-3.22-1.895-1.9-1.777,2.075-5.558,7.815-8.958,5.342-2.837-2.064,1.315-5.684,2.663-7.239,1.128-1.3-.76-3.213-1.895-1.9-1.387,1.6-3.095,3.231-3.984,5.183a5.232,5.232,0,0,0,1.337,5.888,5.931,5.931,0,0,0,5.45,1,5.657,5.657,0,0,0,4.832,4.658c3.5.283,5.879-3.193,7.789-5.644,1.052-1.349-.832-3.267-1.895-1.9" transform="translate(-98.637 -198.184)" fill="#323232"/>
    <path id="パス_4454" data-name="パス 4454" d="M60.69,143.479a1.347,1.347,0,0,0,0-2.693,1.347,1.347,0,0,0,0,2.693" transform="translate(-43.478 -102.879)" fill="#323232"/>
    <path id="パス_4455" data-name="パス 4455" d="M74.242,145.626a1.347,1.347,0,0,0,0,2.693,1.347,1.347,0,0,0,0-2.693" transform="translate(-53.399 -106.415)" fill="#323232"/>
    <path id="パス_4456" data-name="パス 4456" d="M87.794,150.466a1.347,1.347,0,0,0,0,2.693,1.347,1.347,0,0,0,0-2.693" transform="translate(-63.319 -109.952)" fill="#323232"/>
    <path id="パス_4457" data-name="パス 4457" d="M101.346,158a1.347,1.347,0,0,0,0-2.693,1.347,1.347,0,0,0,0,2.693" transform="translate(-73.239 -113.489)" fill="#323232"/>
    <path id="パス_4458" data-name="パス 4458" d="M114.9,162.839a1.347,1.347,0,0,0,0-2.693,1.347,1.347,0,0,0,0,2.693" transform="translate(-83.159 -117.026)" fill="#323232"/>
    <path id="パス_4459" data-name="パス 4459" d="M128.45,167.679a1.347,1.347,0,0,0,0-2.693,1.347,1.347,0,0,0,0,2.693" transform="translate(-93.08 -120.563)" fill="#323232"/>
    <path id="パス_4460" data-name="パス 4460" d="M142,172.519a1.347,1.347,0,0,0,0-2.693,1.347,1.347,0,0,0,0,2.693" transform="translate(-103 -124.1)" fill="#323232"/>
    <path id="パス_4461" data-name="パス 4461" d="M155.554,174.666a1.347,1.347,0,0,0,0,2.693,1.347,1.347,0,0,0,0-2.693" transform="translate(-112.92 -127.636)" fill="#323232"/>
    <path id="パス_4462" data-name="パス 4462" d="M169.106,179.506a1.347,1.347,0,0,0,0,2.693,1.347,1.347,0,0,0,0-2.693" transform="translate(-122.84 -131.173)" fill="#323232"/>
    <path id="パス_4463" data-name="パス 4463" d="M182.658,184.346a1.347,1.347,0,0,0,0,2.693,1.347,1.347,0,0,0,0-2.693" transform="translate(-132.761 -134.71)" fill="#323232"/>
    <path id="パス_4464" data-name="パス 4464" d="M196.21,189.186a1.347,1.347,0,0,0,0,2.693,1.347,1.347,0,0,0,0-2.693" transform="translate(-142.681 -138.247)" fill="#323232"/>
    <path id="パス_4465" data-name="パス 4465" d="M209.762,194.026a1.347,1.347,0,0,0,0,2.693,1.347,1.347,0,0,0,0-2.693" transform="translate(-152.601 -141.784)" fill="#323232"/>
    <path id="パス_4466" data-name="パス 4466" d="M223.314,198.866a1.347,1.347,0,0,0,0,2.693,1.347,1.347,0,0,0,0-2.693" transform="translate(-162.521 -145.32)" fill="#323232"/>
    <path id="パス_4467" data-name="パス 4467" d="M236.866,203.706a1.347,1.347,0,0,0,0,2.693,1.347,1.347,0,0,0,0-2.693" transform="translate(-172.442 -148.857)" fill="#323232"/>
    <path id="パス_4468" data-name="パス 4468" d="M250.418,208.546a1.347,1.347,0,0,0,0,2.693,1.347,1.347,0,0,0,0-2.693" transform="translate(-182.362 -152.394)" fill="#323232"/>
    <path id="パス_4469" data-name="パス 4469" d="M359.158,25.056l-6.237,6.266a1.344,1.344,0,0,0,1.895,1.9l6.237-6.266a1.344,1.344,0,0,0-1.895-1.9" transform="translate(-258.055 -18.02)" fill="#75bb36"/>
    <path id="パス_4470" data-name="パス 4470" d="M325.569,10.229l2.283-8.56a1.341,1.341,0,0,0-2.584-.716l-2.283,8.56a1.341,1.341,0,0,0,2.584.716" transform="translate(-236.392 0.001)" fill="#75bb36"/>
    <path id="パス_4471" data-name="パス 4471" d="M378.405,69.043l-8.52,2.294a1.347,1.347,0,0,0,.713,2.6l8.519-2.294a1.347,1.347,0,0,0-.712-2.6" transform="translate(-270.067 -50.415)" fill="#75bb36"/>
  </g>
</svg>
