<svg id="グループ_335" data-name="グループ 335" xmlns="http://www.w3.org/2000/svg" xmlns:xlink="http://www.w3.org/1999/xlink" width="164" height="126" viewBox="0 0 164 126">
  <defs>
    <clipPath id="clip-path">
      <rect id="長方形_183" data-name="長方形 183" width="164" height="126" fill="none"/>
    </clipPath>
  </defs>
  <path id="パス_3533" data-name="パス 3533" d="M55.427,188.229h14.21V169.29H54.705v18.94Z" transform="translate(-21.072 -65.308)" fill="#75bb36"/>
  <g id="グループ_334" data-name="グループ 334">
    <g id="グループ_333" data-name="グループ 333" clip-path="url(#clip-path)">
      <path id="パス_3534" data-name="パス 3534" d="M69.228,164.29H51.242a1.559,1.559,0,0,0-1.537,1.536V187.8a1.559,1.559,0,0,0,1.537,1.536H69.228a1.42,1.42,0,0,0,1.04-.41c.018-.015.034-.033.052-.049l.029-.03a1.417,1.417,0,0,0,.417-1.046V165.826a1.559,1.559,0,0,0-1.537-1.536m-16.449,3.072H67.691v18.9H52.779v-18.9Z" transform="translate(-19.142 -63.337)" fill="#323232"/>
      <path id="パス_3535" data-name="パス 3535" d="M5.721,192.974H19.912V181.695H5v11.279Z" transform="translate(-1.926 -70.047)" fill="#fff"/>
      <path id="パス_3536" data-name="パス 3536" d="M1.537,194.119H19.523a1.418,1.418,0,0,0,1.04-.411c.018-.015.034-.033.052-.049s.019-.02.028-.031a1.414,1.414,0,0,0,.417-1.046V178.231a1.559,1.559,0,0,0-1.537-1.536H1.537A1.559,1.559,0,0,0,0,178.231v14.352a1.559,1.559,0,0,0,1.537,1.536m1.537-14.352H17.986v11.279H3.074V179.767Z" transform="translate(0 -68.119)" fill="#323232"/>
      <path id="パス_3537" data-name="パス 3537" d="M153.4,174.651H169.4V134.166H152.468v40.485Z" transform="translate(-58.718 -51.723)" fill="#75bb36"/>
      <path id="パス_3538" data-name="パス 3538" d="M169.015,129.166h-20.01a1.559,1.559,0,0,0-1.537,1.536V174.26a1.559,1.559,0,0,0,1.537,1.536h20.01a1.417,1.417,0,0,0,1.04-.411c.018-.015.034-.033.052-.049s.02-.02.028-.03a1.414,1.414,0,0,0,.417-1.046V130.7a1.559,1.559,0,0,0-1.537-1.536m-18.473,6.91v-3.837h16.936v40.485H150.542V136.076Z" transform="translate(-56.793 -49.796)" fill="#323232"/>
      <path id="パス_3539" data-name="パス 3539" d="M103.693,182.776H119.7V155.24H102.763v27.536Z" transform="translate(-39.576 -59.848)" fill="#75bb36"/>
      <path id="パス_3540" data-name="パス 3540" d="M119.31,150.239H99.3a1.559,1.559,0,0,0-1.537,1.536v30.609A1.559,1.559,0,0,0,99.3,183.92h20.01a1.418,1.418,0,0,0,1.04-.411c.018-.015.035-.033.052-.049s.02-.02.028-.03a1.416,1.416,0,0,0,.417-1.046V151.775a1.559,1.559,0,0,0-1.537-1.536m-18.473,5.352v-2.28h16.936v27.536H100.837V155.591Z" transform="translate(-37.65 -57.92)" fill="#323232"/>
      <path id="パス_3541" data-name="パス 3541" d="M203.1,149.55h15.982c-.046-2.919.025-5.847.025-8.763V69.057H202.2c-.007.621-.03,1.243-.03,1.855V149.55Z" transform="translate(-77.861 -26.623)" fill="#75bb36"/>
      <path id="パス_3542" data-name="パス 3542" d="M218.691,150.7a1.416,1.416,0,0,0,1.04-.411c.018-.015.034-.033.052-.049s.02-.02.028-.031a1.414,1.414,0,0,0,.417-1.046V75.893c0-3.378.106-6.775,0-10.151,0-.049,0-.1,0-.148a1.559,1.559,0,0,0-1.537-1.536h-20.01a1.559,1.559,0,0,0-1.537,1.536V138.86c0,3.378-.106,6.775,0,10.151,0,.049,0,.1,0,.148a1.559,1.559,0,0,0,1.537,1.536h20.01Zm-18.473-29.864V68.985c0-.612.023-1.234.03-1.855h16.906v71.73c0,2.916-.071,5.844-.024,8.763H200.218V120.831Z" transform="translate(-75.906 -24.695)" fill="#323232"/>
      <path id="パス_3543" data-name="パス 3543" d="M131.355,15.406V26.542a1.559,1.559,0,0,0,1.537,1.536h6.149a1.559,1.559,0,0,0,1.537-1.536V1.536A1.559,1.559,0,0,0,139.041,0H114.019a1.42,1.42,0,0,0-1.04.41c-.018.015-.034.033-.052.049s-.019.02-.028.03a1.417,1.417,0,0,0-.418,1.046V7.681a1.559,1.559,0,0,0,1.537,1.536h10.51a175.915,175.915,0,0,1-16.738,15.524A253.126,253.126,0,0,1,84.405,41.683Q71.833,49.8,58.512,56.674C49.857,61.154,41,65.258,31.948,68.875A229.636,229.636,0,0,1,6.419,77.487q-1.511.406-3.028.786a1.561,1.561,0,0,0-1.074,1.89l1.492,5.962A1.563,1.563,0,0,0,5.7,87.2a224.8,224.8,0,0,0,26.22-8.429c9.446-3.644,18.7-7.789,27.742-12.346q13.825-6.968,26.946-15.232a275.928,275.928,0,0,0,24.721-17.5,187.18,187.18,0,0,0,20.026-18.283M61.545,62.013c-8.88,4.608-17.969,8.826-27.259,12.542a235.358,235.358,0,0,1-26.36,8.89c-.505.136-1.013.263-1.521.394q-.373-1.491-.746-2.982A221.453,221.453,0,0,0,29.7,73.041c9.169-3.535,18.153-7.551,26.932-11.963Q70.117,54.3,82.924,46.268a269.949,269.949,0,0,0,24.13-17.006A180.526,180.526,0,0,0,127,11.072q1.063-1.14,2.1-2.3a1.555,1.555,0,0,0-1.087-2.622H115.556V3.072H137.5V25.006H134.43V11.45a1.553,1.553,0,0,0-2.624-1.086,175.6,175.6,0,0,1-19.738,18.792A259.28,259.28,0,0,1,88.088,46.6Q75.2,54.947,61.545,62.013" transform="translate(-0.874)" fill="#323232"/>
      <path id="パス_3544" data-name="パス 3544" d="M240.675,45.894a1.57,1.57,0,0,0,1.891-1.073q.614-1.958,1.227-3.915l.176-.562a1.55,1.55,0,0,0-1.074-1.89A1.571,1.571,0,0,0,241,39.528q-.613,1.957-1.227,3.915L239.6,44a1.55,1.55,0,0,0,1.074,1.89" transform="translate(-92.252 -14.808)" fill="#75bb36"/>
      <path id="パス_3545" data-name="パス 3545" d="M248.77,54.247a1.5,1.5,0,0,0,1.184-.155L254,51.13l.575-.421a1.669,1.669,0,0,0,.706-.918,1.569,1.569,0,0,0-.155-1.183,1.551,1.551,0,0,0-.919-.706,1.5,1.5,0,0,0-1.185.155l-4.049,2.963-.575.421a1.667,1.667,0,0,0-.706.918,1.537,1.537,0,0,0,1.074,1.89" transform="translate(-95.373 -18.447)" fill="#75bb36"/>
      <path id="パス_3546" data-name="パス 3546" d="M255.568,63.754a1.537,1.537,0,1,0,.817,2.962l3.9-1.149.566-.167a1.537,1.537,0,1,0-.817-2.963l-3.9,1.15-.567.167" transform="translate(-97.986 -24.048)" fill="#75bb36"/>
    </g>
  </g>
</svg>
