<svg id="グループ_343" data-name="グループ 343" xmlns="http://www.w3.org/2000/svg" xmlns:xlink="http://www.w3.org/1999/xlink" width="240" height="160" viewBox="0 0 240 160">
  <defs>
    <clipPath id="clip-path">
      <rect id="長方形_191" data-name="長方形 191" width="240" height="160" fill="none"/>
    </clipPath>
  </defs>
  <g id="グループ_342" data-name="グループ 342" clip-path="url(#clip-path)">
    <path id="パス_3679" data-name="パス 3679" d="M576.386,358.28c-.885.1-1.221-.705-1.025-1.389h-.4a1.081,1.081,0,0,1-1.091,1.2H558.69a1.063,1.063,0,0,1-1.09-1.066h-1.482c.193.383.384.754.578,1.09.937,1.615,1.926,3.55.142,4.967a3.141,3.141,0,0,1-1.109.583h8.89c.271,0,.541,0,.812,0a11.775,11.775,0,0,1,1.95.052,13.146,13.146,0,0,0,2.015-1.129l2.793-1.486,3.044-1.621a1.074,1.074,0,0,1,1.163.061l1.46-1.409.249-.44a3.806,3.806,0,0,1-1.717.583" transform="translate(-345.473 -221.315)" fill="#fff"/>
    <path id="パス_3680" data-name="パス 3680" d="M458.208,349.031a30.439,30.439,0,0,0-3.912-3.754c-1.9-1.394-4.048-1.1-6.112-.315-4.315,1.646-7.945,4.855-12.729,4.957a1.086,1.086,0,0,1-.554-.13q.52,2.531,1.057,5.057l12.226-2.1a18.1,18.1,0,0,1,2.025-.348,3.467,3.467,0,0,1,2.761,1.756,10.658,10.658,0,0,1,1.074,1.754c.216-.166.434-.327.656-.479a1.093,1.093,0,0,1,.24-1.723,12.553,12.553,0,0,0,3.916-3.609,6.414,6.414,0,0,0,.506-.8.989.989,0,0,1-1.155-.263m-1.1,1.134c-.339,1.667-1.848,2.253-3.252,2.819-1.191.481-1.786-1.157-1.011-1.931a1.208,1.208,0,0,1,.407-.267c.526-.212,2.712-1.353,1.15-1.8-.713-.2-2.027.367-2.717.553-.034.009-.068.021-.1.03-1.136.316-2.224.748-3.328,1.164-1.16.436-1.764-1.126-1.1-1.9l1.838-2.169a1.084,1.084,0,0,1,1.875.686,11.04,11.04,0,0,1,3.648-.642,2.885,2.885,0,0,1,2.6,3.46" transform="translate(-270.36 -213.508)" fill="#fff"/>
    <path id="パス_3681" data-name="パス 3681" d="M476.39,371.486c.154.072.263-.037,0,0" transform="translate(-296.151 -230.361)" fill="#75bb36"/>
    <path id="パス_3682" data-name="パス 3682" d="M511.33,355.7c-.457-.825-.994-1.6-1.444-2.433l-.132-.245h0c-.713-1.325-1.835-3.37-3.4-1.67a1.149,1.149,0,0,1-1.9-.5c-.346-.824-1.788-.129-2.519.5a1.154,1.154,0,0,1-1.783-.231c-.729-1.045-1.7-.811-2.45.046a1.148,1.148,0,0,1-1.783-.231c-.573-.765-1.547.039-1.956.961a15.864,15.864,0,0,1-1.788,3.289,15.039,15.039,0,0,1-4.64,4.289,1.06,1.06,0,0,1-1.385-.245c-.222.152-.44.313-.656.479a13.623,13.623,0,0,1,.45,10.361,6.434,6.434,0,0,0,3.026-1.524,1.124,1.124,0,0,1,.452-1.915c4.242-1.056,8.223-2.5,11.23-5.8,1.926-2.117,3.4-4.985,5.564-6.847,2.349-2.021,2.965,2.572,4.548,3.247,1.6.682.97-.788.559-1.529" transform="translate(-301.815 -217.306)" fill="#fff"/>
    <path id="パス_3683" data-name="パス 3683" d="M475.737,337.5a1.315,1.315,0,0,1-.721-.362l-.081.436.087-.014a7.071,7.071,0,0,1,.715-.061" transform="translate(-295.247 -209.064)" fill="#75bb36"/>
    <path id="パス_3684" data-name="パス 3684" d="M537.365,369.293h3.181a4.08,4.08,0,0,1-1.978-1.374,17.517,17.517,0,0,1-1.519-1.959c-1.22,1.431-2.3,2.981-3.488,4.444h2.71a1.071,1.071,0,0,1,1.094-1.111" transform="translate(-331.692 -226.939)" fill="#fff"/>
    <path id="パス_3685" data-name="パス 3685" d="M373.53,127.267a1.084,1.084,0,0,1-1.517-.382c-5.551-9.257-19.453-12.651-27.518-4.744a18.515,18.515,0,0,0-4.682,6.788c-1.025,2.9-.045,4.985.832,7.762a48.773,48.773,0,0,1,2.068,9.543c.961.324,1.916.671,2.867,1.024,1.648-3.51,3.564-7.713,8.043-6.533a1.087,1.087,0,0,1,.521.3,8.107,8.107,0,0,1,.765-3.874c1.338-2.694,4.43-3.079,6.092-1.06a20.871,20.871,0,0,0,4.877-5.544,1.137,1.137,0,0,1,1.96,1.15c-.056.091-.116.178-.172.268a8.788,8.788,0,0,0,4.593-3.261,1.026,1.026,0,0,1,1.764.346c.1-.074.193-.153.284-.235-.241-.519-.507-1.033-.776-1.549" transform="translate(-210.975 -73.002)" fill="#75bb36"/>
    <path id="パス_3686" data-name="パス 3686" d="M424.66,146.925c-.091.082-.186.161-.285.235a1.161,1.161,0,0,1-.159,1.266,11.882,11.882,0,0,1-3.843,3.194,1.438,1.438,0,0,1,.613.131,10.949,10.949,0,0,1,2.75,1.488,10.205,10.205,0,0,0,.691-3.152,1.1,1.1,0,0,1,.986-1.085,10.89,10.89,0,0,0-.754-2.077" transform="translate(-261.329 -91.111)" fill="#fff"/>
    <path id="パス_3687" data-name="パス 3687" d="M370.572,171.953a12.962,12.962,0,0,1-.843-2.686,10,10,0,0,1,.445-5.362c.026-.074.055-.147.081-.22a1.1,1.1,0,0,1-.453-.293,7.82,7.82,0,0,0-2.609-1.433,1.152,1.152,0,0,1-.407-1.559,1.135,1.135,0,0,1,.137-.188,9.863,9.863,0,0,1-3.375.629,24.2,24.2,0,0,1-4.059,3.855,1.119,1.119,0,0,1-.294.158,1.212,1.212,0,0,1-1.93-.483c-.524-1.462-1.856-1.142-2.514-.06a4.9,4.9,0,0,0-.588,2.174,6.288,6.288,0,0,0,1.273,4.56c.98,1.085-.622,2.7-1.605,1.611a8.051,8.051,0,0,1-1.841-3.962,1.059,1.059,0,0,1-1.266.576c-2.221-.585-3.013.923-4.01,2.71-.662,1.188-1.281,2.4-1.872,3.626a1.134,1.134,0,0,1-1.282.524c-1.174-.435-2.348-.876-3.533-1.28q-.885,4.291-1.769,8.583c-.268,1.3-2.079.921-2.2-.223a2.464,2.464,0,0,0-.37,1.361,153.3,153.3,0,0,1,16.823,5.739,1.146,1.146,0,0,1,.064-.347l1.6-4.514a1.147,1.147,0,0,1,1.667-.681c1.806,1.19,3.564,2.468,5.826,2.471a3.864,3.864,0,0,0,3.279-1.352,15.253,15.253,0,0,0,.82-2.227c.256-.6.494-1.224.736-1.858a6.239,6.239,0,0,1-1.844-1.566,1.17,1.17,0,0,1,0-1.612,1.139,1.139,0,0,1,1.6,0,4.734,4.734,0,0,0,1.114,1.048,11.7,11.7,0,0,1,.985-1.776,8.094,8.094,0,0,1,1.538-1.667,10.055,10.055,0,0,1,1.085-.761c.576-.354.833-.256.821-.946-.013-.794-.922-1.837-1.236-2.57M368,168.509a1.14,1.14,0,0,1,0-2.279,1.14,1.14,0,0,1,0,2.279" transform="translate(-208.681 -99.349)" fill="#fff"/>
    <path id="パス_3688" data-name="パス 3688" d="M528.075,301.883c1.119-.13,1.3-2.849,1.456-3.633l1.282-6.57,3.112-15.948.871-4.466c.177-.9.076-1.278-1.071-1.471-2.34-.393-5.083,0-7.447,0h-39.31a10.654,10.654,0,0,0-2.1,0c-1.23.269-1.242,1.725-1.457,2.77q-2.3,11.13-4.6,22.261a.948.948,0,0,1-.795.8,7.14,7.14,0,0,1,2.938.708,1.116,1.116,0,0,1-.468-1.191l4.914-23.109a1.151,1.151,0,0,1,1.095-.837h45.181a1.155,1.155,0,0,1,1.095,1.443q-2.634,13.5-5.269,27a1.149,1.149,0,0,1-1.094.836H509.72a1.077,1.077,0,0,1-1.094-1.167h-3.144a12.113,12.113,0,0,1,2.325,3.6h1.482a1.082,1.082,0,0,1,1.09-1.213h15.182a1.064,1.064,0,0,1,1.091,1.074h.4a1.189,1.189,0,0,1,1.025-.89" transform="translate(-297.162 -167.197)" fill="#fff"/>
    <path id="パス_3689" data-name="パス 3689" d="M515.081,304.5h15.755l4.824-24.723H492.771q-2.368,11.136-4.736,22.272a1.007,1.007,0,0,1-1.4.745,21.651,21.651,0,0,1,5.338,4.613,1.174,1.174,0,0,1,.249.4,9.4,9.4,0,0,1,1.079-1.992,3.137,3.137,0,0,1,4.256-.782,3.235,3.235,0,0,1,4.4.154,3.634,3.634,0,0,1,2.723-.85,3.313,3.313,0,0,1,1.76.813,3.759,3.759,0,0,1,3.878.07,3.867,3.867,0,0,1,.518.4h3.144a1.072,1.072,0,0,1,1.094-1.112" transform="translate(-302.522 -173.493)" fill="#75bb36"/>
    <path id="パス_3690" data-name="パス 3690" d="M354.715,293.832a11.56,11.56,0,0,0,.525-7.173,11.357,11.357,0,0,0-.527-1.572,4.534,4.534,0,0,1-2.446.786,4.534,4.534,0,0,0,2.446-.786,8.616,8.616,0,0,0-.494-1.012,5.951,5.951,0,0,0-.828-1.153c-.053-.055-.284-.3-.415-.473-.267.059-.544.093-.814.139l-2.917.5-11.668,2a1.226,1.226,0,0,1-1.25-1.814q-1.014-4.8-1.955-9.62c-1.087-5.542-2.135-11.1-2.977-16.682-.368-2.446-.712-4.894-1.112-7.335a13.978,13.978,0,0,0-1.809-5.825c-2.952-4.6-7.3-7.062-12.118-9.272C310.8,232,304.833,230.383,299,228.62a1.06,1.06,0,0,1-.758-.771,6.223,6.223,0,0,0-1.46.723,1.074,1.074,0,0,1-.39,1.507,34.959,34.959,0,0,0-6.641,4.565,25.355,25.355,0,0,0-5.284,7.941c-2.731,5.952-3.99,12.544-4.745,19.015a1.253,1.253,0,0,1-1.584,1.041c.045.379.09.758.108,1.137l15.6,2.024c2.191.284,4.774.273,6.881,1.022,3.659,1.3,3.855,5,4.393,8.237l3.578,21.549,14.988,2.041a17.547,17.547,0,0,1-.861-2.271c-.794-2.283-1.456-4.614-2.107-6.942-1.811-6.484-3.421-13.027-4.926-19.589-1.219-5.319-2.481-10.678-3.216-16.092a8.329,8.329,0,0,1,.33-4.563c1.277-3.371,3.291-7.723,6.9-9.064,1.374-.511,1.962,1.694.6,2.2-2.105.782-3.433,3.43-4.371,5.318a18.384,18.384,0,0,0-1.417,3.621,20.669,20.669,0,0,0,.613,4.859,341.332,341.332,0,0,0,7.977,33.8c.577,2.026,1.164,4.054,1.865,6.04.712,2.016.933,2.7,3.352,2.992,2.667.324,5.5-.459,8.114-.939q2.708-.5,5.4-1.079c3.73-.8,7.456-1.564,11.224-2.175a1.21,1.21,0,0,1,1.357.867,2.43,2.43,0,0,0,.539-.634.907.907,0,0,1-.348-1.165m-41.791-25.989c.47,1.395-1.724,1.988-2.189.606l-4.46-13.244c-.47-1.395,1.724-1.988,2.189-.606l4.46,13.244" transform="translate(-172.905 -141.293)" fill="#fff"/>
    <path id="パス_3691" data-name="パス 3691" d="M274.757,333.828c-.416-2.507-.609-5.2-3.684-5.753-2.666-.479-5.4-.7-8.09-1.05l-13.166-1.708c-.022.041-.04.081-.064.122.025-.041.042-.082.064-.122l-11.28-1.464c-1.975-.256-5.634-1.262-5.4,2.018.206,2.911.975,5.889,1.452,8.765l2.543,15.355,41.242,5.618-3.616-21.782" transform="translate(-144.924 -200.612)" fill="#fff"/>
    <path id="パス_3692" data-name="パス 3692" d="M481.464,403.076a1.242,1.242,0,0,0,1.841-.559c.049-.125.091-.254.136-.381a8.423,8.423,0,0,1-1.721.173,2.076,2.076,0,0,1-.256.767" transform="translate(-299.306 -249.372)" fill="#323232"/>
    <path id="パス_3693" data-name="パス 3693" d="M537.861,359.773l-.977.943.977-.943a1.074,1.074,0,0,0-1.163-.061l-3.044,1.62-2.792,1.487a13.19,13.19,0,0,1-2.015,1.129,11.731,11.731,0,0,0-1.95-.052c-.271,0-.541,0-.812,0h-8.891a3.148,3.148,0,0,0,1.109-.583c1.784-1.418.795-3.352-.142-4.967-.194-.336-.385-.707-.578-1.09h-2.707l.132.245c.451.829.987,1.608,1.445,2.433.411.741,1.041,2.211-.559,1.529-1.583-.675-2.2-5.268-4.548-3.247-2.164,1.862-3.638,4.73-5.564,6.847-3.007,3.306-6.988,4.745-11.23,5.8a1.123,1.123,0,0,0-.452,1.915,7.786,7.786,0,0,0,.9-.961,7.786,7.786,0,0,1-.9.961,1.058,1.058,0,0,0,1.055.282c5.355-1.333,9.765-3.379,13.342-7.668.106-.127.206-.259.311-.388h0c1.184-1.463,2.268-3.013,3.488-4.444a17.545,17.545,0,0,0,1.519,1.959,4.082,4.082,0,0,0,1.978,1.374h-3.181a1.071,1.071,0,0,0-1.094,1.111h0a1.077,1.077,0,0,0,1.094,1.169c4.58,0,9.161.01,13.741,0a9.617,9.617,0,0,0,5.38-1.242l6.111-3.253a1.1,1.1,0,0,0,.018-1.907" transform="translate(-306.939 -221.541)" fill="#323232"/>
    <path id="パス_3694" data-name="パス 3694" d="M439.955,169.43h-42.1c-2.071,0-5.38-.6-6.844,1.237-.972,1.22-1.11,3.369-1.423,4.88l-1.616,7.822q-1.318,6.383-2.636,12.766a1.105,1.105,0,0,0,.31,1.048l.278-1.491-.278,1.491a1.314,1.314,0,0,0,.721.362,7.081,7.081,0,0,0-.715.061l-.087.014-.467,2.5.467-2.5c-5.249.767-9.223,5.509-14.592,5.624a1.052,1.052,0,0,0-.894.481c-1.283-6.324-2.471-12.671-3.448-19.044-.4-2.608-.76-5.222-1.186-7.827a15.307,15.307,0,0,0-1.694-5.818c-2.862-4.721-6.943-7.623-11.824-9.954-.13-.062-.261-.121-.392-.182a1.15,1.15,0,0,0,.421-.569l1.1-3.1c3.1,1.845,6.954,3.258,10.1.648,1.376-1.143,1.743-3.149,2.437-4.724.45-1.02.785-2.094,1.244-3.11a6.117,6.117,0,0,1,1.14-1.78,28.131,28.131,0,0,1,2.684-1.868c1.7-1.455.458-3.1-.37-4.649a8.885,8.885,0,0,1-.821-7.209c.734-2.183,1.7-4.1,1.778-6.451A1.055,1.055,0,0,0,369.964,127a6.561,6.561,0,0,1,.143,2.355,6.561,6.561,0,0,0-.143-2.355,1.1,1.1,0,0,0-.986,1.085,10.2,10.2,0,0,1-.691,3.152,10.949,10.949,0,0,0-2.75-1.488,1.441,1.441,0,0,0-.613-.131,11.882,11.882,0,0,0,3.843-3.194,1.161,1.161,0,0,0,.159-1.266A19.552,19.552,0,0,0,366.7,126.7a19.552,19.552,0,0,1,2.223-1.538,1.026,1.026,0,0,0-1.764-.346,8.788,8.788,0,0,1-4.593,3.261c.057-.09.117-.177.172-.268a1.137,1.137,0,0,0-1.96-1.15A20.873,20.873,0,0,1,355.9,132.2c-1.662-2.019-4.754-1.634-6.092,1.06a8.108,8.108,0,0,0-.765,3.874,1.086,1.086,0,0,0-.521-.3c-4.479-1.18-6.395,3.023-8.043,6.534-.951-.353-1.905-.7-2.867-1.024a48.774,48.774,0,0,0-2.068-9.543c-.876-2.777-1.856-4.859-.832-7.762a18.517,18.517,0,0,1,4.682-6.788c8.065-7.907,21.967-4.513,27.518,4.744a1.084,1.084,0,0,0,1.517.382c-.341-.653-.682-1.312-.974-2,.292.684.634,1.343.974,2a1.064,1.064,0,0,0,.443-1.532c-5.7-9.514-20.335-14.182-29.467-6.663-3.87,3.187-8.158,8.431-7.414,13.82a27.457,27.457,0,0,0,1.364,4.405q.766,2.43,1.295,4.927c.29,1.362.546,2.744.7,4.133q-1.043,5.062-2.086,10.123a1.21,1.21,0,0,0-.015.383,1.479,1.479,0,0,1,.534-.44,1.479,1.479,0,0,0-.534.44c.125,1.144,1.936,1.524,2.2.223q.884-4.291,1.769-8.582c1.185.4,2.359.844,3.533,1.279a1.134,1.134,0,0,0,1.282-.523c.591-1.225,1.21-2.439,1.872-3.626,1-1.788,1.789-3.3,4.01-2.71a1.058,1.058,0,0,0,1.266-.577,8.052,8.052,0,0,0,1.841,3.962c.983,1.089,2.585-.527,1.605-1.612a6.287,6.287,0,0,1-1.273-4.56,4.9,4.9,0,0,1,.588-2.174c.658-1.082,1.99-1.4,2.514.06a1.212,1.212,0,0,0,1.93.483,1.131,1.131,0,0,0,.294-.158,24.226,24.226,0,0,0,4.058-3.855,9.871,9.871,0,0,0,3.375-.63,1.124,1.124,0,0,0-.137.188,1.151,1.151,0,0,0,.407,1.559A7.827,7.827,0,0,1,367,133.152a1.107,1.107,0,0,0,.453.294c-.027.073-.055.146-.081.22a10,10,0,0,0-.445,5.362,12.951,12.951,0,0,0,.843,2.686c.314.733,1.223,1.777,1.236,2.57.012.69-.245.592-.821.946a10.062,10.062,0,0,0-1.085.761,8.072,8.072,0,0,0-1.538,1.667,11.677,11.677,0,0,0-.985,1.776,4.742,4.742,0,0,1-1.114-1.048,1.139,1.139,0,0,0-1.6,0,1.169,1.169,0,0,0,0,1.611,6.235,6.235,0,0,0,1.844,1.566c-.242.634-.479,1.262-.735,1.858a15.243,15.243,0,0,1-.82,2.227A3.864,3.864,0,0,1,358.867,157c-2.262,0-4.02-1.281-5.826-2.472a1.147,1.147,0,0,0-1.667.681l-1.6,4.514a1.148,1.148,0,0,0-.064.347,153.381,153.381,0,0,0-16.823-5.738c-.042.633-.068,1.255-.609,1.617.541-.362.566-.984.609-1.617l-.308-.093a1.121,1.121,0,0,0-1.361,1.427c.1-.033.2-.071.3-.1-.1.026-.2.064-.3.1a1.059,1.059,0,0,0,.758.771c5.837,1.763,11.8,3.376,17.359,5.925,4.82,2.209,9.166,4.673,12.118,9.272a13.976,13.976,0,0,1,1.809,5.825c.4,2.441.743,4.89,1.112,7.335.842,5.585,1.89,11.14,2.977,16.682q.944,4.816,1.955,9.62a1.225,1.225,0,0,0,1.25,1.814l11.668-2,2.917-.5c.27-.046.546-.081.814-.139.13.17.362.418.415.473a5.951,5.951,0,0,1,.829,1.153,8.613,8.613,0,0,1,.494,1.012c.652-.408,1.259-.915,1.877-1.391a10.64,10.64,0,0,0-1.074-1.754,3.466,3.466,0,0,0-2.76-1.756,18.113,18.113,0,0,0-2.026.348l-12.226,2.1q-.536-2.527-1.057-5.057a1.087,1.087,0,0,0,.554.13c4.783-.1,8.414-3.311,12.729-4.957,2.064-.788,4.214-1.078,6.112.315a30.441,30.441,0,0,1,3.912,3.754.99.99,0,0,0,1.156.263,6.475,6.475,0,0,1-.506.8,12.553,12.553,0,0,1-3.917,3.609,1.093,1.093,0,0,0-.24,1.723,5.911,5.911,0,0,1,1.453-.762,5.911,5.911,0,0,0-1.453.762,1.06,1.06,0,0,0,1.385.245,15.043,15.043,0,0,0,4.64-4.289,15.884,15.884,0,0,0,1.788-3.289c.409-.922,1.383-1.727,1.956-.961a1.148,1.148,0,0,0,1.782.231c.75-.857,1.721-1.091,2.45-.046a1.154,1.154,0,0,0,1.782.231c.732-.632,2.174-1.327,2.52-.5a1.148,1.148,0,0,0,1.9.5c1.56-1.7,2.682.345,3.4,1.67h2.707a12.122,12.122,0,0,0-2.325-3.6h0a3.9,3.9,0,0,0-.518-.4,3.759,3.759,0,0,0-3.878-.07,3.315,3.315,0,0,0-1.76-.813,3.635,3.635,0,0,0-2.724.85,3.234,3.234,0,0,0-4.4-.154,3.138,3.138,0,0,0-4.256.781,9.411,9.411,0,0,0-1.079,1.993,1.176,1.176,0,0,0-.249-.4,21.651,21.651,0,0,0-5.338-4.613,1.007,1.007,0,0,0,1.4-.745l4.736-22.272h42.889l-4.824,24.723H418.437a1.071,1.071,0,0,0-1.094,1.112h0a1.077,1.077,0,0,0,1.094,1.167h16.686a1.149,1.149,0,0,0,1.095-.837l5.269-27a1.155,1.155,0,0,0-1.095-1.442H395.211a1.151,1.151,0,0,0-1.095.837L389.2,197.059a1.114,1.114,0,0,0,.468,1.191,7.137,7.137,0,0,0-2.938-.708.948.948,0,0,0,.795-.8q2.3-11.131,4.6-22.261c.216-1.044.228-2.5,1.457-2.77a10.683,10.683,0,0,1,2.1,0h39.31c2.365,0,5.107-.393,7.447,0,1.147.193,1.248.567,1.071,1.471l-.872,4.466q-1.556,7.974-3.112,15.949l-1.282,6.57c-.153.784-.336,3.5-1.455,3.633a1.189,1.189,0,0,0-1.026.89h0c-.2.684.141,1.492,1.026,1.389,2.139-.247,2.941-1.554,3.293-3.507.275-1.525.594-3.043.891-4.564l3.006-15.4c.614-3.145,1.585-6.416,1.875-9.611.339-3.721-3.4-3.562-5.9-3.562m-92.927-31.715c.757.38,1.135-.76,1.892-.38-.757-.38-1.135.76-1.892.38m39.088,72.522c.263-.037.154.072,0,0" transform="translate(-205.878 -69.111)" fill="#323232"/>
    <path id="パス_3695" data-name="パス 3695" d="M480.934,377.824a11.561,11.561,0,0,1-.525,7.173.907.907,0,0,0,.348,1.165,2.078,2.078,0,0,0,.256-.767h0a2.3,2.3,0,0,0-.025-.759,2.3,2.3,0,0,1,.025.759,8.42,8.42,0,0,0,1.721-.174,13.621,13.621,0,0,0-.45-10.361c-.617.476-1.225.983-1.877,1.391a11.372,11.372,0,0,1,.527,1.572" transform="translate(-298.598 -232.458)" fill="#323232"/>
    <path id="パス_3696" data-name="パス 3696" d="M419.3,176.055a1.14,1.14,0,0,0,0,2.279,1.14,1.14,0,0,0,0-2.279" transform="translate(-259.98 -109.175)" fill="#323232"/>
    <path id="パス_3697" data-name="パス 3697" d="M295.637,228.731c-.72.47-1.371,1.025-2.02,1.46.649-.435,1.3-.99,2.02-1.46a1.074,1.074,0,0,0-1.536-.461,38.766,38.766,0,0,0-6.885,4.723,26.644,26.644,0,0,0-5.854,8.6c-2.912,6.347-4.25,13.263-5.055,20.165a.894.894,0,0,0,.686,1.041,7,7,0,0,1-.023-2.218,7,7,0,0,0,.023,2.218,1.253,1.253,0,0,0,1.584-1.041c.755-6.471,2.014-13.063,4.745-19.015a25.361,25.361,0,0,1,5.284-7.941,34.962,34.962,0,0,1,6.641-4.565,1.074,1.074,0,0,0,.39-1.507" transform="translate(-171.763 -141.453)" fill="#323232"/>
    <path id="パス_3698" data-name="パス 3698" d="M354.592,296.985c-.465-1.382-2.659-.789-2.189.606l4.46,13.244c.466,1.382,2.659.789,2.189-.606l-4.46-13.244" transform="translate(-219.034 -183.679)" fill="#323232"/>
    <path id="パス_3699" data-name="パス 3699" d="M410.845,315.554a4.138,4.138,0,0,1-2.635.879,4.138,4.138,0,0,0,2.635-.879,1.21,1.21,0,0,0-1.357-.867c-3.767.611-7.493,1.377-11.224,2.175q-2.693.577-5.4,1.079c-2.611.48-5.447,1.263-8.114.939-2.419-.294-2.64-.976-3.352-2.992-.7-1.986-1.289-4.015-1.865-6.04a341.193,341.193,0,0,1-7.977-33.8,20.669,20.669,0,0,1-.613-4.859,18.411,18.411,0,0,1,1.417-3.621c.938-1.888,2.265-4.536,4.371-5.318,1.358-.5.771-2.708-.6-2.2-3.611,1.342-5.626,5.693-6.9,9.064a8.327,8.327,0,0,0-.33,4.564c.735,5.413,2,10.773,3.216,16.092,1.5,6.562,3.115,13.1,4.926,19.589.65,2.328,1.313,4.658,2.106,6.942a17.688,17.688,0,0,0,.861,2.271l2.483.338L380,318.574a4.016,4.016,0,0,0,.8,1.111c1.891,1.771,4.948,1.659,7.313,1.353,2.817-.365,5.626-.925,8.41-1.488,4.521-.914,9.008-1.925,13.563-2.664a.952.952,0,0,0,.753-1.331" transform="translate(-229.226 -161.217)" fill="#323232"/>
    <path id="パス_3700" data-name="パス 3700" d="M575.733,355.137h2.3a1.065,1.065,0,0,0-1.091-1.075H561.762a1.082,1.082,0,0,0-1.09,1.213h0a1.063,1.063,0,0,0,1.09,1.066h15.182a1.082,1.082,0,0,0,1.091-1.2Z" transform="translate(-348.545 -219.56)" fill="#323232"/>
    <path id="パス_3701" data-name="パス 3701" d="M473.538,356.221c1.4-.566,2.913-1.151,3.252-2.819a2.885,2.885,0,0,0-2.6-3.46,11.05,11.05,0,0,0-3.648.642,1.084,1.084,0,0,0-1.875-.686l-1.838,2.169c-.66.779-.055,2.341,1.1,1.9,1.1-.415,2.192-.848,3.328-1.164l.1-.03c.689-.187,2-.757,2.717-.554,1.562.445-.624,1.586-1.15,1.8a1.213,1.213,0,0,0-.407.267c-.776.774-.18,2.412,1.011,1.931" transform="translate(-290.041 -216.745)" fill="#323232"/>
    <path id="パス_3702" data-name="パス 3702" d="M304.565,333.707c-.537-3.236-.734-6.937-4.393-8.237-2.108-.749-4.69-.738-6.881-1.022l-15.6-2.025a4.033,4.033,0,0,1-.445,2.222l13.166,1.709c2.685.348,5.424.571,8.09,1.05,3.074.552,3.267,3.246,3.683,5.753l3.616,21.782,2.343.319-3.578-21.549" transform="translate(-172.351 -199.94)" fill="#323232"/>
    <path id="パス_3703" data-name="パス 3703" d="M246.6,319.324l-10.679-1.386c-2.351-.305-5.382-1.234-7.346.557-2.306,2.1-1.042,5.718-.6,8.373l3.152,19.033,2.342.319q-1.271-7.678-2.543-15.355c-.476-2.876-1.245-5.854-1.452-8.765-.233-3.281,3.426-2.275,5.4-2.018l11.281,1.464a4.034,4.034,0,0,0,.445-2.222" transform="translate(-141.257 -196.841)" fill="#323232"/>
    <path id="パス_3704" data-name="パス 3704" d="M496.327,161.182a13.389,13.389,0,0,0,5.61,8.463,14.841,14.841,0,0,0,4.826,2.01,1.733,1.733,0,0,1,1.465,1.329c.351.92.688,1.846,1.029,2.77.24-.517.507-1.022.636-1.368a14.231,14.231,0,0,1,.684-1.842c.652-1.194,2.54-1.13,3.741-1.616a13.148,13.148,0,0,0,4.1-2.658,13.533,13.533,0,0,0,4.147-9.662c-.148-8.29-7.789-14.816-16.023-13a13.431,13.431,0,0,0-10.211,15.577" transform="translate(-308.39 -90.103)" fill="#fff"/>
    <path id="パス_3705" data-name="パス 3705" d="M502.464,170.153l1.173,3.159c.372,1,.687,2.377,2.02,2.377s1.648-1.376,2.02-2.377l1.171-3.153a15.565,15.565,0,0,0-6.077-30.528c-9.55,1.756-15.152,12.35-11.421,21.3a15.674,15.674,0,0,0,11.114,9.221m.411-28.224c8.234-1.813,15.874,4.713,16.023,13a13.534,13.534,0,0,1-4.148,9.662,13.143,13.143,0,0,1-4.1,2.658c-1.2.486-3.089.422-3.741,1.616a14.2,14.2,0,0,0-.684,1.842c-.128.345-.4.85-.636,1.368-.342-.924-.678-1.85-1.029-2.77a1.732,1.732,0,0,0-1.465-1.329,14.831,14.831,0,0,1-4.826-2.009,13.316,13.316,0,0,1,4.6-24.04" transform="translate(-304.727 -86.428)" fill="#323232"/>
    <path id="パス_3706" data-name="パス 3706" d="M526.392,170.713a1.05,1.05,0,0,0,0-2.1h-2.764l2.763-3.12c.891-1.006-.582-2.5-1.477-1.484l-3.1,3.5-3.1-3.5c-.9-1.011-2.368.477-1.477,1.484l2.763,3.12h-3.025a1.05,1.05,0,0,0,0,2.1h3.806q0,.5.008,1h-3.814a1.05,1.05,0,0,0,0,2.1h3.83q.014,1.7.027,3.4a1.045,1.045,0,0,0,2.089,0q-.013-1.7-.026-3.4h3.495a1.05,1.05,0,0,0,0-2.1h-3.511q0-.5-.008-1Z" transform="translate(-320.756 -101.497)" fill="#75bb36"/>
    <path id="パス_3707" data-name="パス 3707" d="M46.014,235.016a36.427,36.427,0,0,1-1.795-7.1c-.277-2.757-1.757-6.052-4.725-6.8a1.028,1.028,0,0,1-.642-.444q-.461.05-.921.093a8.3,8.3,0,0,1,4.419,5.936c.25,1.437-1.939,2.048-2.189.606a6.25,6.25,0,0,0-4.9-5.134A.951.951,0,0,1,34,221.959a7.831,7.831,0,0,1-.506-.65c-1.576-2.237-1.49-4.679-1.769-7.392-.067-.647-.182-1.453-.965-1.584-1.556-.261-1.224,3.342-1.2,4.084.058,1.781.285,3.541.281,5.326,0,0,0,.1,0,.135a1.136,1.136,0,0,1-2.27,0c0-.1,0-.21,0-.325-1.465-.835-2.6-3.272-3.394-4.423l-3.685-5.359c.423,1.883,1.808,3.738,2.611,5.334a20.947,20.947,0,0,0,2.153,3.376,76.053,76.053,0,0,0,6.474,7.155c1.138,1.141,2.845,2.284,3.734,3.637.929,1.414,1.146,3.659,1.613,5.282a1.127,1.127,0,0,1,.029.529,21.559,21.559,0,0,0,8.913-2.067" transform="translate(-12.735 -131.322)" fill="#fff"/>
    <path id="パス_3708" data-name="パス 3708" d="M220.491,113.136a15.653,15.653,0,0,0,2.437-.177,2.656,2.656,0,0,0-1.7-.977,4.586,4.586,0,0,0-1.936-.045c-1.521.551.507,1.2,1.2,1.2" transform="translate(-135.982 -69.359)" fill="#fff"/>
    <path id="パス_3709" data-name="パス 3709" d="M65.432,208.18a1.015,1.015,0,0,0,.1-1.428.959.959,0,0,0-1.135-.033l1.032,1.461" transform="translate(-40.035 -128.085)" fill="#fff"/>
    <path id="パス_3710" data-name="パス 3710" d="M87.929,221.9a4.917,4.917,0,0,1,.109-.576,2.7,2.7,0,0,0-.131.981,3.109,3.109,0,0,1,.022-.405" transform="translate(-54.645 -137.246)" fill="#75bb36"/>
    <path id="パス_3711" data-name="パス 3711" d="M70.568,215.7l.969,1.373a1.139,1.139,0,0,0-.969-1.373" transform="translate(-43.869 -133.758)" fill="#fff"/>
    <path id="パス_3712" data-name="パス 3712" d="M89.191,214.2c1.109-1.859,3.82-1,6.146.093a5.837,5.837,0,0,0-1.567-1.578,25.657,25.657,0,0,0-2.64-1.441,15.551,15.551,0,0,0-1.939,2.926" transform="translate(-55.446 -131.017)" fill="#fff"/>
    <path id="パス_3713" data-name="パス 3713" d="M57.264,192.358c-.086-.152-.343-.159-.729-.048a1.554,1.554,0,0,0-.955.806l.954,1.351c.526-.686,1.082-1.49.73-2.11" transform="translate(-34.552 -119.208)" fill="#fff"/>
    <path id="パス_3714" data-name="パス 3714" d="M162.169,222.568c.674-1.892,1.261-3.819,1.822-5.748,2.306-7.93,4.313-16.363,3.991-24.676a22.264,22.264,0,0,0-3.854-11.768,8.8,8.8,0,0,0-5.607-4.132,21.876,21.876,0,0,0-10.02.055,1.206,1.206,0,0,1-1.286-1.731q-.537.036-1.064.117c.071.3.134.614.176.93a7.077,7.077,0,0,1-3.63,7.458c-1.31.638-2.46-1.328-1.146-1.968,2.485-1.211,2.872-3.549,2.334-5.84q-.466.17-.93.385a1.1,1.1,0,0,1-.5,1.184c-4.309,2.8-9.567,3.536-14.01,6.055-5.468,3.1-7.467,8.62-8.1,14.615-.9,8.57-1.828,17.108-3.333,25.595h14.531q1.82-9.139,3.64-18.279c.287-1.439,2.474-.827,2.189.606L133.855,223.1h28.258a1.073,1.073,0,0,1,.056-.531m-27.355-22.876a17.062,17.062,0,0,0-8.048-10.455,1.139,1.139,0,0,1,1.146-1.968A19.379,19.379,0,0,1,137,199.085a1.136,1.136,0,0,1-2.189.606" transform="translate(-72.743 -108.253)" fill="#75bb36"/>
    <path id="パス_3715" data-name="パス 3715" d="M146.993,114.771c.309-.143.618-.271.93-.385a11.9,11.9,0,0,0-1.689-3.784c-1.895-2.825-4.336-5.175-6.012-8.166a30.945,30.945,0,0,1-3.665-18.526,1.22,1.22,0,0,1,.037-.176q-.195-.067-.39-.125a.939.939,0,0,1-.818.282,13.006,13.006,0,0,1-10.154-6.42,1.089,1.089,0,0,1-.159-.672,1.208,1.208,0,0,1-1.085-.4c-.173.3-.334.613-.477.929a1.262,1.262,0,0,1,1.215,1.738,9.442,9.442,0,0,0-.672,6.32c.5,1.684,1.586,3.068,1.764,4.862a8.584,8.584,0,0,1-.867,4.379c-.3.66-1.356,1.833-1.364,2.563-.007.608.062.3.53.7.244.207.549.363.8.566a9.88,9.88,0,0,1,2.81,3.88l0,0,.093-.112.107-.151c.045-.067.09-.134.134-.2.106-.161.211-.323.323-.48a1.163,1.163,0,0,1,1.553-.409,1.148,1.148,0,0,1,.407,1.559c-.308.434-.58.887-.92,1.3a3,3,0,0,1-.854.7c.2.577.4,1.158.605,1.735,1.787,4.972,6.719,2.594,9.91.535a1.145,1.145,0,0,1,1.708.984q.01,3.712.021,7.424a1.127,1.127,0,0,1-1.662.981c-.014.221-.019.436-.021.638a28.887,28.887,0,0,0,6.211-2.839,1.072,1.072,0,0,1,1.645.784m-19.117-23.48a1.14,1.14,0,0,1,0-2.279,1.14,1.14,0,0,1,0,2.279m-.2-5.725a.792.792,0,0,0-1,.272c-.777,1.24-2.741.095-1.96-1.15a3.1,3.1,0,0,1,4.1-1.089c1.291.691.143,2.658-1.146,1.968" transform="translate(-76.782 -47.374)" fill="#fff"/>
    <path id="パス_3716" data-name="パス 3716" d="M142.85,67.331c-.014.129-.021.257-.034.385a3.37,3.37,0,0,1,1.477-.355,15.466,15.466,0,0,0-8.117-5.815c-1.4-.422-.8-2.621.6-2.2a17.849,17.849,0,0,1,11.861,11.707,1.017,1.017,0,0,1-.051.8,9.547,9.547,0,0,1,.029,3.076,7.69,7.69,0,0,0,1.263.93,1.066,1.066,0,0,1,1.467-.353c1.82,1.05,3.762,1.58,5.673.439a11.4,11.4,0,0,0,3.6-4.148,1.12,1.12,0,0,1,1.8-.168,6.125,6.125,0,0,1,3.383-.547,4.812,4.812,0,0,1,4.144,2.739,3.673,3.673,0,0,0,2.484-3.444,2.972,2.972,0,0,0-1.4-3.134,5.074,5.074,0,0,0-6.814,2.353c-.6,1.224-2.331.312-2.056-.876a1.15,1.15,0,0,1-.118-.32c-.867-4.26-1.644-8.821-3.97-12.566-2.211-3.558-5.781-5.37-9.826-5.979a17.551,17.551,0,0,0-18.264,9.385,1.04,1.04,0,0,1,1.232.5,10.636,10.636,0,0,0,8.194,5.291,1.236,1.236,0,0,1,.819,2q.195.058.39.126c.322-1.262,2.389-1.216,2.233.176" transform="translate(-80.805 -30.795)" fill="#fff"/>
    <path id="パス_3717" data-name="パス 3717" d="M172.938,110.915a11.962,11.962,0,0,1-1.884-.888,1.08,1.08,0,0,1-.321-1.615,7.688,7.688,0,0,1-1.262-.93,8.387,8.387,0,0,1-1.953,4.362c-.985,1.088-2.586-.528-1.6-1.611a6.617,6.617,0,0,0,1.345-4.789,5.1,5.1,0,0,0-.658-2.38c-.737-1.156-2.16-1.331-2.687.139a1.154,1.154,0,0,1-.389.539,28.793,28.793,0,0,0,6.584,17.9c2.012,2.454,4.22,4.98,4.955,8.13q.527-.081,1.064-.117a.973.973,0,0,1,.683-.467c.893-.183,1.818-.34,2.758-.457a1.122,1.122,0,0,1-.514-.883q-.468-6.043-.936-12.086c0-.042,0-.078,0-.118a15.444,15.444,0,0,1-4.261,1.071c-1.454.154-1.438-2.127,0-2.279a12.538,12.538,0,0,0,1.973-.375c-1.41-.625-2.74-1.676-2.894-3.15" transform="translate(-101.656 -63.344)" fill="#fff"/>
    <path id="パス_3718" data-name="パス 3718" d="M197.611,116.154a10.058,10.058,0,0,1-3.942,3.414,6.874,6.874,0,0,1-5.263.032c.153,1.475,1.484,2.525,2.893,3.151,2.88-.787,5.768-2.661,6.123-5.762a1.185,1.185,0,0,1,.279-.652c-.031-.06-.064-.118-.09-.182" transform="translate(-117.124 -72.029)" fill="#fff"/>
    <path id="パス_3719" data-name="パス 3719" d="M96.749,201.647c-.18-.183-.374-.356-.571-.526a1.032,1.032,0,0,1-1.53.46q-3.691-2.349-7.52-4.477c-1.448-.808-2.91-1.6-4.419-2.293-.39-.177-3.625-1.653-2.751.286.18.4,1.411.909,1.784,1.121.753.429,1.519.835,2.286,1.237,1.449.759,2.922,1.477,4.359,2.259a10.433,10.433,0,0,1,4.606,5.882.882.882,0,0,1,.113.376.907.907,0,0,1-.3.855,1.163,1.163,0,0,1-1.421.322c-1.24-.587-2.473-1.187-3.709-1.781-.588-.282-1.738-.958-2.278-.481-.925.816.943,1.764,1.534,2.157,1.357.9,2.451,1.375,3.283,2.85a19.808,19.808,0,0,0,3,4.409,1.054,1.054,0,0,1,.148,1.359c.274.09.561.157.846.223.3-3.082.621-6.159,1.138-9.2a23.975,23.975,0,0,1,1.407-5.041" transform="translate(-49.614 -120.369)" fill="#fff"/>
    <path id="パス_3720" data-name="パス 3720" d="M61.969,280.009l1.473,6.816H76.187L73.6,277.333a23.807,23.807,0,0,1-11.631,2.676" transform="translate(-38.523 -171.979)" fill="#75bb36"/>
    <path id="パス_3721" data-name="パス 3721" d="M133.246,109.608a1.14,1.14,0,0,0,0,2.279,1.14,1.14,0,0,0,0-2.279" transform="translate(-82.152 -67.97)" fill="#323232"/>
    <path id="パス_3722" data-name="パス 3722" d="M136.855,109.293a1.144,1.144,0,0,0-1.708-.984c-3.191,2.059-8.123,4.436-9.911-.536-.207-.577-.4-1.157-.605-1.735a3,3,0,0,0,.854-.7c.341-.411.612-.865.92-1.3a1.147,1.147,0,0,0-.407-1.559,1.163,1.163,0,0,0-1.553.409c-.112.158-.218.319-.323.481-.044.067-.089.135-.134.2l-.107.151c-.032.038-.083.1-.094.112l0,0a9.872,9.872,0,0,0-2.809-3.879c-.252-.2-.558-.359-.8-.566-.468-.4-.538-.089-.531-.7.009-.73,1.065-1.9,1.365-2.563a8.589,8.589,0,0,0,.866-4.379c-.178-1.794-1.264-3.178-1.763-4.862a9.433,9.433,0,0,1,.672-6.32,1.263,1.263,0,0,0-1.215-1.738,6.51,6.51,0,0,0-.645,2.658,6.51,6.51,0,0,1,.645-2.658.89.89,0,0,0-.745.588,13.227,13.227,0,0,0-1.252,5.984c.132,2.32,1.583,3.986,2,6.181.525,2.756-1.613,4.315-2.287,6.678-.57,2,1.027,2.472,2.3,3.5,3.207,2.6,2.485,7.517,5.607,10.019,2.908,2.33,6.45,1.163,9.4-.482q.007,2.706.015,5.411a1.034,1.034,0,0,0,.608.981,4.409,4.409,0,0,1,.355-1.637,4.409,4.409,0,0,0-.355,1.637,1.127,1.127,0,0,0,1.662-.981q-.01-3.712-.021-7.424" transform="translate(-72.837 -48.884)" fill="#323232"/>
    <path id="パス_3723" data-name="パス 3723" d="M91.922,195.784c-3.018-1.92-6.106-3.75-9.263-5.429-2.045-1.087-6.172-3.908-8.26-1.44-2.9,3.427,2.674,5.685,4.944,6.852-1.555,1.965-3.411,5.014-2.346,7.2.968,1.991,4.057,3.436,6.156,3.488a1.092,1.092,0,0,0,.528-.114,10.8,10.8,0,0,1,1.5,2.341,17.524,17.524,0,0,0,2.556,3.4,1.1,1.1,0,0,0,1.752-.253,2.255,2.255,0,0,1-1.441-1.142,2.255,2.255,0,0,0,1.441,1.142,1.054,1.054,0,0,0-.148-1.359,19.79,19.79,0,0,1-3-4.409c-.832-1.475-1.927-1.948-3.283-2.849-.591-.393-2.459-1.341-1.534-2.157.54-.477,1.691.2,2.278.481,1.236.593,2.469,1.194,3.709,1.78A1.162,1.162,0,0,0,88.932,203a.907.907,0,0,0,.3-.855.871.871,0,0,0-.113-.375,10.429,10.429,0,0,0-4.606-5.882c-1.437-.782-2.909-1.5-4.359-2.259-.767-.4-1.533-.808-2.286-1.236-.373-.213-1.6-.721-1.784-1.121-.874-1.94,2.361-.464,2.751-.286,1.509.688,2.971,1.486,4.419,2.293q3.82,2.13,7.52,4.477a1.032,1.032,0,0,0,1.53-.46,3.972,3.972,0,0,1-1.615-2.177,3.972,3.972,0,0,0,1.615,2.177,1.117,1.117,0,0,0-.384-1.508m-10.5,1.016a25.655,25.655,0,0,1,2.64,1.441,5.824,5.824,0,0,1,1.567,1.578c-2.326-1.091-5.037-1.952-6.146-.093a15.551,15.551,0,0,1,1.939-2.926" transform="translate(-45.742 -116.539)" fill="#323232"/>
    <path id="パス_3724" data-name="パス 3724" d="M137.54,175.048a28.9,28.9,0,0,1-6.211,2.839c0,.135,0,.266,0,.385,0-.119,0-.25,0-.385-2.973,1.051-6,1.982-8.64,3.729a17.289,17.289,0,0,0-6.58,8.1,2.874,2.874,0,0,1,.841,1.475,2.874,2.874,0,0,0-.841-1.475,23.98,23.98,0,0,0-1.407,5.041c-.518,3.038-.84,6.115-1.138,9.2a4.489,4.489,0,0,1,1.5.534,4.489,4.489,0,0,0-1.5-.534c-.318,3.283-.611,6.571-1.083,9.825-.461,3.175-.957,6.348-1.529,9.506h2.294c1.505-8.487,2.43-17.024,3.333-25.595.632-6,2.63-11.514,8.1-14.615,4.443-2.519,9.7-3.257,14.01-6.055a1.1,1.1,0,0,0,.5-1.184c-.35.161-.7.341-1.048.541.349-.2.7-.379,1.048-.541a1.071,1.071,0,0,0-1.645-.784" transform="translate(-68.974 -108.434)" fill="#323232"/>
    <path id="パス_3725" data-name="パス 3725" d="M161.251,253.469c.285-1.433-1.9-2.045-2.189-.606q-1.819,9.139-3.64,18.279h2.31l3.519-17.673" transform="translate(-96.619 -156.296)" fill="#323232"/>
    <path id="パス_3726" data-name="パス 3726" d="M152.118,219.556a19.378,19.378,0,0,0-9.092-11.817,1.139,1.139,0,0,0-1.146,1.968,17.06,17.06,0,0,1,8.048,10.455,1.136,1.136,0,0,0,2.189-.606" transform="translate(-87.858 -128.724)" fill="#323232"/>
    <path id="パス_3727" data-name="パス 3727" d="M18.417,178.823c-.4-.317-1.685.07-2.1.117l-4.492.512-4.02.459c-.115.013-.8.015-.847.1.033-.056.272.245.5.56l11.225-1.36-.272-.385" transform="translate(-4.327 -110.815)" fill="#fff"/>
    <path id="パス_3728" data-name="パス 3728" d="M63.109,227.788l-5.4.7c.036.1.075.207.117.309l.4-.048,4.25-.506c.921-.11.956-.085.629-.454" transform="translate(-35.877 -141.256)" fill="#fff"/>
    <path id="パス_3729" data-name="パス 3729" d="M25.937,193.843a3.5,3.5,0,0,1,2.814,3.257c.138,1,.143,2,.218,2.978l4.279-.555-9.856-13.959-11.25,1.363L14.6,190.5l5.6,8.146,1.872,2.723c-.247-3.813-.042-8.273,3.863-7.526" transform="translate(-7.549 -115.072)" fill="#75bb36"/>
    <path id="パス_3730" data-name="パス 3730" d="M37.845,210.572a1.141,1.141,0,0,0-1.557-.727c-.342-1.115-.677-2.232-.994-3.354-.544-1.926-.437-4.035-1.152-5.893a10.332,10.332,0,0,0-4.052-5.052,2.587,2.587,0,0,0-.006-2.853,3.658,3.658,0,0,0-1.2-5.537,2.982,2.982,0,0,0-.627-2.695,3.045,3.045,0,0,0-3.434-.854,7.332,7.332,0,0,0,1.085-1.879,3.091,3.091,0,0,0-.985-3.335c-1.351-.979-3.2-.366-4.306.772l-2.3-3.265-1.438-2.037a1.2,1.2,0,0,0-.2-.256c-1.076-1.059-2.255-.742-3.595-.589l-6.231.711a30.1,30.1,0,0,0-3.631.421c-2.59.628-1.7,3.045-.648,4.571L6.7,184.73a1.022,1.022,0,0,0-.259.537,8.653,8.653,0,0,0,1.239,5.715c.846,1.612,1.634,3.308,2.624,4.837a52.612,52.612,0,0,0,6.413,7.648c1.544,1.606,3.191,3.716,5.049,4.986a7.746,7.746,0,0,0,.474,1.607l.806,2.8-.078-.006c-.778-.076-1.236.786-1.095,1.442q.837,3.871,1.673,7.743h2.32q-.737-3.408-1.473-6.816a23.807,23.807,0,0,0,11.631-2.676l2.587,9.492h2.354l-3.125-11.464M28.619,190.5l-.969-1.373a1.139,1.139,0,0,1,.969,1.373m-1.065,3.674-4.25.506-.4.047q-.064-.153-.117-.309l5.4-.7c.327.37.291.345-.629.454m-1.1-8.319a1.014,1.014,0,0,1-.1,1.428l-1.032-1.461a.96.96,0,0,1,1.136.033m-3.518-5.565c.387-.112.644-.1.729.047.352.62-.2,1.424-.73,2.11l-.954-1.352a1.556,1.556,0,0,1,.955-.806m-19.35-3.909c.047-.081.732-.084.847-.1l4.02-.459,4.492-.512c.412-.047,1.694-.434,2.1-.117l.272.384-11.225,1.36c-.231-.315-.47-.616-.5-.56m1.961,2.663,11.25-1.363,9.856,13.959-4.279.554c-.076-.974-.081-1.975-.218-2.978a3.5,3.5,0,0,0-2.814-3.257c-3.905-.748-4.11,3.713-3.863,7.526L13.6,190.765,8,182.619l-2.457-3.573m19.771,33.9a1.132,1.132,0,0,0-.03-.529c-.467-1.622-.684-3.868-1.613-5.282-.889-1.353-2.6-2.5-3.734-3.637a76,76,0,0,1-6.474-7.155,20.948,20.948,0,0,1-2.153-3.376c-.8-1.6-2.189-3.451-2.611-5.334L12.387,193c.792,1.151,1.928,3.588,3.394,4.423,0,.115.006.225,0,.325a1.136,1.136,0,0,0,2.27,0c0-.034,0-.135,0-.135,0-1.784-.222-3.545-.28-5.326-.024-.743-.356-4.345,1.2-4.084.783.131.9.937.966,1.584.279,2.713.193,5.155,1.769,7.392a7.761,7.761,0,0,0,.506.651.952.952,0,0,0,1.259.221,6.251,6.251,0,0,1,4.9,5.134c.25,1.442,2.438.831,2.189-.606a8.3,8.3,0,0,0-4.419-5.936q.46-.044.921-.093a1.029,1.029,0,0,0,.642.444c2.969.743,4.448,4.039,4.725,6.8a36.442,36.442,0,0,0,1.8,7.1,21.557,21.557,0,0,1-8.913,2.067" transform="translate(-0.951 -107.19)" fill="#323232"/>
    <path id="パス_3731" data-name="パス 3731" d="M130.5,94.749a3.1,3.1,0,0,0-4.1,1.089c-.781,1.245,1.183,2.39,1.96,1.151a.792.792,0,0,1,1-.272c1.289.69,2.437-1.277,1.146-1.968" transform="translate(-78.46 -58.525)" fill="#323232"/>
    <path id="パス_3732" data-name="パス 3732" d="M6.143,21.808a13.391,13.391,0,0,0,5.61,8.463,14.842,14.842,0,0,0,4.826,2.01,1.732,1.732,0,0,1,1.464,1.329c.351.92.688,1.846,1.029,2.77.239-.517.507-1.022.636-1.368a14.25,14.25,0,0,1,.684-1.842c.652-1.194,2.54-1.13,3.741-1.616a13.143,13.143,0,0,0,4.1-2.658,13.532,13.532,0,0,0,4.147-9.662c-.148-8.29-7.789-14.816-16.023-13A13.43,13.43,0,0,0,6.143,21.808" transform="translate(-3.664 -3.675)" fill="#fff"/>
    <path id="パス_3733" data-name="パス 3733" d="M12.28,30.78l1.173,3.159c.372,1,.688,2.377,2.02,2.377s1.648-1.376,2.02-2.377l1.171-3.153a15.771,15.771,0,0,0,12.32-15.227,15.707,15.707,0,0,0-18.4-15.3c-9.55,1.756-15.152,12.35-11.421,21.3A15.676,15.676,0,0,0,12.28,30.78m.411-28.224c8.234-1.813,15.874,4.713,16.023,13a13.534,13.534,0,0,1-4.148,9.662,13.134,13.134,0,0,1-4.1,2.658c-1.2.486-3.089.422-3.741,1.616a14.224,14.224,0,0,0-.684,1.842c-.128.346-.4.85-.636,1.368-.342-.924-.678-1.85-1.029-2.77a1.733,1.733,0,0,0-1.465-1.329A14.824,14.824,0,0,1,8.09,26.6a13.316,13.316,0,0,1,4.6-24.04" transform="translate(0 0)" fill="#323232"/>
    <path id="パス_3734" data-name="パス 3734" d="M180.909,181.3c-1.314.64-.165,2.606,1.146,1.968a7.076,7.076,0,0,0,3.631-7.458c-.042-.317-.1-.625-.176-.93a11.8,11.8,0,0,0-2.267.58c.538,2.291.151,4.629-2.334,5.84" transform="translate(-112.103 -108.444)" fill="#323232"/>
    <path id="パス_3735" data-name="パス 3735" d="M158.126,104.826a28.794,28.794,0,0,1-6.584-17.9,1.155,1.155,0,0,0,.389-.539c.527-1.471,1.95-1.295,2.687-.139a5.1,5.1,0,0,1,.658,2.38,6.616,6.616,0,0,1-1.345,4.789c-.981,1.083.62,2.7,1.605,1.611a8.383,8.383,0,0,0,1.952-4.362c-.188-.168-.37-.34-.542-.512.173.173.354.345.542.512a9.536,9.536,0,0,0-.029-3.076,1.014,1.014,0,0,0,.051-.8,17.847,17.847,0,0,0-11.861-11.707c-1.4-.423-2,1.776-.6,2.2a15.47,15.47,0,0,1,8.117,5.815,3.37,3.37,0,0,0-1.477.355c.013-.128.019-.257.034-.385.156-1.392-1.911-1.438-2.233-.176a9.5,9.5,0,0,0,2.92.807,9.5,9.5,0,0,1-2.92-.807,1.313,1.313,0,0,0-.037.176,30.949,30.949,0,0,0,3.665,18.526c1.676,2.991,4.117,5.341,6.012,8.166a11.888,11.888,0,0,1,1.688,3.784,11.8,11.8,0,0,1,2.267-.58c-.735-3.15-2.943-5.676-4.955-8.13" transform="translate(-89.674 -46.523)" fill="#323232"/>
    <path id="パス_3736" data-name="パス 3736" d="M174.435,109.24a24.142,24.142,0,0,0-4.76-12.182c-3.085-4.171-8.227-5.084-13.178-4.718a.988.988,0,0,0,.21-.729q-.468-6.043-.936-12.086a1.127,1.127,0,0,0-.614-.945,8.763,8.763,0,0,0,4.323-5.743,9.209,9.209,0,0,0,3.269.263c.406-.03.829-.069,1.259-.122a7.683,7.683,0,0,1-2.124,2.789c-1.139.919.477,2.522,1.606,1.611a7.24,7.24,0,0,0,2.994-4.9,6.111,6.111,0,0,0,3.336-2.221c1.316-1.886,1.669-5.067.373-7.047-2.261-3.454-7.15-2.983-10.021-.555-.889-4.381-1.9-8.949-4.54-12.6-2.667-3.692-6.664-5.553-11.088-6.159a19.761,19.761,0,0,0-20.5,10.922,1.147,1.147,0,0,0,.2,1.311,16.988,16.988,0,0,1,1.148-1.73,16.988,16.988,0,0,0-1.148,1.73,1.207,1.207,0,0,0,1.085.4,1.089,1.089,0,0,0,.159.672,13.005,13.005,0,0,0,10.154,6.42.939.939,0,0,0,.819-.282,4.337,4.337,0,0,0-1.23-.207,4.337,4.337,0,0,1,1.23.207,1.236,1.236,0,0,0-.819-2,10.632,10.632,0,0,1-8.193-5.291,1.039,1.039,0,0,0-1.232-.5,17.55,17.55,0,0,1,18.264-9.385c4.044.609,7.615,2.421,9.825,5.979,2.327,3.746,3.1,8.307,3.97,12.567a1.159,1.159,0,0,0,.119.32c-.275,1.188,1.455,2.1,2.056.876a5.073,5.073,0,0,1,6.813-2.353,2.971,2.971,0,0,1,1.4,3.133,3.673,3.673,0,0,1-2.484,3.444,4.81,4.81,0,0,0-4.144-2.739,6.123,6.123,0,0,0-3.382.547,1.121,1.121,0,0,0-1.8.169,11.4,11.4,0,0,1-3.6,4.148c-1.911,1.142-3.853.611-5.673-.438a1.066,1.066,0,0,0-1.467.353,3.167,3.167,0,0,0,2.357.457,3.167,3.167,0,0,1-2.357-.457,1.08,1.08,0,0,0,.321,1.615,12.03,12.03,0,0,0,1.884.888,3.042,3.042,0,0,1,.152-1.286,3.042,3.042,0,0,0-.152,1.286,6.876,6.876,0,0,0,5.263-.032,10.058,10.058,0,0,0,3.943-3.414c.026.064.059.122.09.182a1.184,1.184,0,0,0-.279.652c-.355,3.1-3.244,4.975-6.123,5.762.1.042.19.084.285.122.378.38-.757,1.14-.378,1.9-.378-.76.757-1.52.378-1.9-.1-.038-.19-.08-.285-.122a12.523,12.523,0,0,1-1.972.374c-1.438.152-1.454,2.433,0,2.279a15.424,15.424,0,0,0,4.261-1.071c0,.04-.006.076,0,.118q.468,6.043.936,12.086a1.122,1.122,0,0,0,.515.883c-.941.118-1.866.274-2.758.457a.973.973,0,0,0-.683.466,15.642,15.642,0,0,1,3.016.1,15.642,15.642,0,0,0-3.016-.1A1.205,1.205,0,0,0,152.8,95.15a21.887,21.887,0,0,1,10.02-.055,8.8,8.8,0,0,1,5.607,4.132,22.261,22.261,0,0,1,3.854,11.768c.322,8.314-1.684,16.747-3.991,24.676-.561,1.929-1.147,3.855-1.822,5.748a1.094,1.094,0,0,0-.066.427h2.317a113.4,113.4,0,0,0,4.755-18.246,54.593,54.593,0,0,0,.964-14.36M160.351,69.682a4.579,4.579,0,0,1,1.936.045,2.655,2.655,0,0,1,1.7.977,15.646,15.646,0,0,1-2.437.177c-.691,0-2.718-.648-1.2-1.2" transform="translate(-77.04 -27.104)" fill="#323232"/>
    <path id="パス_3737" data-name="パス 3737" d="M35.462,32.583a1.05,1.05,0,0,0,0-2.1H32.7l2.763-3.12c.891-1.006-.582-2.5-1.477-1.484l-3.1,3.5-3.1-3.5c-.9-1.011-2.368.477-1.477,1.484l2.763,3.12H26.048a1.05,1.05,0,0,0,0,2.1h3.806l.008,1H26.048a1.05,1.05,0,0,0,0,2.1h3.83q.014,1.7.027,3.4a1.045,1.045,0,0,0,2.089,0q-.013-1.7-.026-3.4h3.495a1.05,1.05,0,0,0,0-2.1H31.951l-.008-1Z" transform="translate(-15.565 -15.84)" fill="#75bb36"/>
  </g>
</svg>
