<svg id="グループ_465" data-name="グループ 465" xmlns="http://www.w3.org/2000/svg" xmlns:xlink="http://www.w3.org/1999/xlink" width="158" height="160" viewBox="0 0 158 160">
  <defs>
    <clipPath id="clip-path">
      <rect id="長方形_268" data-name="長方形 268" width="158" height="160" fill="none"/>
    </clipPath>
  </defs>
  <g id="グループ_464" data-name="グループ 464" clip-path="url(#clip-path)">
    <path id="パス_4392" data-name="パス 4392" d="M177.66,260.39a.189.189,0,0,1,.026-.011c.045-.058.034-.052-.026.011" transform="translate(-91.598 -133.644)" fill="#75bb36"/>
    <path id="パス_4393" data-name="パス 4393" d="M190.545,251.527c-.061-.042-.283-.011,0,0" transform="translate(-98.168 -129.11)" fill="#75bb36"/>
    <path id="パス_4394" data-name="パス 4394" d="M222.523,53.107l-.006,0a.536.536,0,0,0-.1-.034c.013,0,.027.007.04.011l.068.026" transform="translate(-114.673 -27.243)" fill="#75bb36"/>
    <path id="パス_4395" data-name="パス 4395" d="M260,93.881c-.242.111-.486.219-.735.319a1.072,1.072,0,0,1-1.067-.229,3.6,3.6,0,0,1-1.547,1.189,2.73,2.73,0,0,1-.814.183,1.383,1.383,0,0,1,.676,1.085q.1.766.191,1.533.665,5.322,1.329,10.645c1.828,2.808,5.167,4.549,8.146,5.815,4.867,2.069,10.622,2.89,14.131,7.276a14.162,14.162,0,0,1,1.367,2.078c0-.031,0-.064,0-.093a12.653,12.653,0,0,0-.829-3.709,5.646,5.646,0,0,0-.286-.6,8.7,8.7,0,0,0-.479-.761,11.136,11.136,0,0,0-1.435-1.625c-1.137-1.1-2.409-2.046-3.626-3.055a18.328,18.328,0,0,1-3.279-3.376,11.193,11.193,0,0,1-1.793-4.449,44.129,44.129,0,0,0-.924-4.776,9.7,9.7,0,0,0-1.895-3.336c-1.723-2.032-4.216-3.877-6.949-4.083a1.429,1.429,0,0,1-.177-.028" transform="translate(-131.902 -48.194)" fill="#75bb36"/>
    <path id="パス_4396" data-name="パス 4396" d="M222.638,53.146l.021.011.04.012c-.021-.006-.041-.015-.062-.023" transform="translate(-114.788 -27.282)" fill="#75bb36"/>
    <path id="パス_4397" data-name="パス 4397" d="M223.922,53.893l.007.007a.447.447,0,0,0,.047.032.438.438,0,0,1-.054-.038" transform="translate(-115.45 -27.666)" fill="#75bb36"/>
    <path id="パス_4398" data-name="パス 4398" d="M223.847,53.834c-.093-.079-.074-.057-.031-.021l.032.023,0,0" transform="translate(-115.377 -27.608)" fill="#75bb36"/>
    <path id="パス_4399" data-name="パス 4399" d="M204.4,95.266a7.757,7.757,0,0,0,.593.7c.111.116.227.229.346.337.024.022.207.168.24.2.2.14.414.254.625.38l.023.015.024.005c.112.029.22.073.333.1.094.023.442.038.089.027.109,0,.216.015.325.014.065,0,.258-.032.233-.023.053-.011.107-.019.159-.034.1-.028.2-.07.309-.1l.022,0,.067-.039c.2-.114.391-.237.586-.361l.005,0,.1-.085c.068-.062.139-.122.206-.185a7.147,7.147,0,0,0,.529-.556c.068-.078.132-.16.2-.24.02-.03.149-.2.169-.232.1-.141.187-.289.279-.434h-5.824c.117.178.236.354.363.525" transform="translate(-105.197 -48.635)" fill="#fff"/>
    <path id="パス_4400" data-name="パス 4400" d="M201.913,76.5h0c0-.009,0-.023-.008-.045a.337.337,0,0,1-.008-.047c0,.053.022.137.016.092" transform="translate(-104.094 -39.225)" fill="#75bb36"/>
    <path id="パス_4401" data-name="パス 4401" d="M96.447,261.851a1.227,1.227,0,0,1-.846,1.5,1.243,1.243,0,0,1-1.49-.85l-.824-2.235q-1.351-3.663-2.7-7.327-1.315-3.568-2.631-7.137-3.33-9.036-6.661-18.072c-1.255-3.4-2.477-6.822-3.765-10.214a3.088,3.088,0,0,0-2.861-1.992l-3.346-.263L57.2,214.146l-19.178-1.51L19.4,211.17,7.134,210.2a11.58,11.58,0,0,0-1.958-.154c-.337.034-.217.2-.112.511l.43,1.287,4.42,13.219,6.217,18.592,4.664,13.947a10.224,10.224,0,0,0,.835,2.344c.53.8,1.533.7,2.375.762l11.257.763,18.18,1.232,19.476,1.32,15.144,1.026,4.174.283c.318.021.637.046.955.065.048,0,.1.009.147.01.067,0,.139-.007.206-.005l.137-.026a35.759,35.759,0,0,0,6.313-2.286l.619-.26.343-.146q.541-.231,1.082-.465,1.151-.5,2.3-1.006,2.392-1.06,4.77-2.152,3.9-1.786,7.767-3.63l-12.414-.746-8.741-.526a1.223,1.223,0,0,1-1.161-1.226h-1.4l.081.219,3.2,8.7" transform="translate(-2.554 -107.821)" fill="#e6e6e6"/>
    <path id="パス_4402" data-name="パス 4402" d="M208.129,264.558a8.6,8.6,0,0,0-1.056-3.119,30.12,30.12,0,0,0-2.531-3.8q-.16.057-.318.12a1.161,1.161,0,0,1,.131.543,1.221,1.221,0,0,1-1.211,1.217c-1.459-.172-2.932-.087-4.39-.276a27.508,27.508,0,0,1-4.412-1.1,64.08,64.08,0,0,1-7.194-2.6,28.16,28.16,0,0,1-4.476-2.643,14.207,14.207,0,0,0-2.114-1.276,1.051,1.051,0,0,1-.21-.076l-.009,0c-.2,0-.4-.014-.6-.013-.539,0-1.077.036-1.614.082a67.664,67.664,0,0,0-6.778,1.081,1.439,1.439,0,0,1-.734-.048l.907,2.461a5.886,5.886,0,0,1,.952-1.087,3.615,3.615,0,0,1,2.685-.521l5.259.236a1.217,1.217,0,0,1,0,2.433l-4.591-.205-1.085-.049c-.205-.009-.411-.016-.617-.023-.038,0-.09,0-.114,0l-.025.026c-.047.049-.091.1-.133.154-.062.074-.139.181-.223.291l-.669.878a1.664,1.664,0,0,1-.491.437l1.088,2.952.693-.981.854-1.207a2.914,2.914,0,0,1,.743-.872,2.216,2.216,0,0,1,.715-.209l1.2-.243,4.9-.995a1.216,1.216,0,0,1,.644,2.346l-6.14,1.247-2.354,3.328a1.561,1.561,0,0,1-.259.279l.724,1.963,1.058-.979c1.371-1.268,2.713-2.581,4.119-3.81.608-.531,1.818-.506,2.594-.608l2.49-.326c.653-.086,1.211.625,1.211,1.217a1.254,1.254,0,0,1-1.211,1.217l-3.649.478-5.441,5.032a1.319,1.319,0,0,1-.281.194l1.289,3.5.618-.547a1.208,1.208,0,0,1-.144-.118,1.233,1.233,0,0,1,0-1.721l4.563-4.034a1.225,1.225,0,0,1,1.468-.19c.632.446,1.29.857,1.951,1.259a29.849,29.849,0,0,0,8.838,3.883,10.34,10.34,0,0,0,3.832.126c1.025-.163,2.057-.285,3.084-.428a1.243,1.243,0,0,1,1.49.85,1.346,1.346,0,0,1-.19,1.039c.76-.144,1.5-.331,2.228-.512a15.155,15.155,0,0,0,2.33-3.28,5.5,5.5,0,0,0,.614-2.962" transform="translate(-87.963 -129.12)" fill="#fff"/>
    <path id="パス_4403" data-name="パス 4403" d="M193.362,81.258a9.311,9.311,0,0,1-2.625,2.011.954.954,0,0,1,.164.622,42.481,42.481,0,0,0-.15,7.593c.521,7.187,3.23,13.81,6.188,20.281q2.219-2.456,4.394-4.953,9.727-11.215,18.4-23.3a1.234,1.234,0,0,1,1.657-.437,1.06,1.06,0,0,1,.186.139l1.738-3.036a14.572,14.572,0,0,1-5.252-5.127,1.135,1.135,0,0,1-.05-1.07q-.055-.445-.111-.888-.172-1.379-.344-2.758-.509-4.073-1.017-8.145a1.172,1.172,0,0,1,.886-1.159,3.635,3.635,0,0,1-2.2-1.69,5.2,5.2,0,0,1-.13-4.831,3.11,3.11,0,0,1,5.01-1.215,6.5,6.5,0,0,0,2.769-5.9,4.486,4.486,0,0,0-1.9-3.549,1.708,1.708,0,0,0-2.483.71,1.216,1.216,0,0,1-1.657.436,1.114,1.114,0,0,1-.535-.712,8.662,8.662,0,0,1-4.05-1.418c-4.782-3.094-8.15-10.083-6.042-15.667a12.431,12.431,0,0,0-2.576,10.625A4.763,4.763,0,0,1,205,38.934a1.253,1.253,0,0,1,0,1.72,1.211,1.211,0,0,1-1.712,0,3.928,3.928,0,0,0-.454-.458l-.039-.029-.026-.019c-.095-.065-.193-.126-.293-.182-.081-.046-.165-.088-.249-.128-.134-.041-.154-.053-.129-.048a4.222,4.222,0,0,0-.481-.134.993.993,0,0,1-.449-.06l-.029,0c-.1,0-.208,0-.311,0-.036,0-.144.013-.207.018s-.129.023-.154.029c-.112.025-.223.055-.333.09-.044.014-.087.029-.13.044l-.046.018-.015.007c-.052.025-.1.052-.154.079a1.236,1.236,0,0,1-1.657-.437,1.12,1.12,0,0,1-.155-.723,9.753,9.753,0,0,1-5.11.091,1.175,1.175,0,0,1-.08.175,1.216,1.216,0,0,1-1.657.437c-.107-.079-.208-.162-.309-.245a7.346,7.346,0,0,1-7.363-1.652,11.89,11.89,0,0,0,.566,1.276,1.263,1.263,0,0,1-1.016,1.825c.113.484.235.969.378,1.453a1.136,1.136,0,0,1,1.119.559,5.493,5.493,0,0,1,.591,1.708,22.974,22.974,0,0,1,.386,5.338c-.083,3.976-.189,8.045,1.123,11.857a14.883,14.883,0,0,0,6.458,7.892,11.016,11.016,0,0,0,4.554,1.578,10.112,10.112,0,0,0,4.52-.807,20.558,20.558,0,0,0,7.81-5.6,1.219,1.219,0,0,1,1.713,0,1.251,1.251,0,0,1,0,1.721,22.343,22.343,0,0,1-9.9,6.586,11.458,11.458,0,0,1-5.962.219,4.3,4.3,0,0,1,.208.769c5.971,1.9,12.692,1.167,17.635-2.916a1.193,1.193,0,0,1,2.025.59,1.12,1.12,0,0,1-.312,1.13,20.128,20.128,0,0,1-10.319,4.485,22.218,22.218,0,0,1-8.658-.64q.432,4.338.864,8.677a1.222,1.222,0,0,1-1.211,1.217,1.248,1.248,0,0,1-1.211-1.217l-.125-1.259-.458-4.593a6.443,6.443,0,0,0-.888.229,1.216,1.216,0,0,1,.013,1.66m-4.3-38.2a1.218,1.218,0,0,1,0,2.433,1.218,1.218,0,0,1,0-2.433m1.712,5.788a6.954,6.954,0,0,0,1.55-2.865,1.9,1.9,0,0,0-.833-2.037c-1.378-.737-.153-2.837,1.223-2.1,2.437,1.3,2.4,4.465,1.241,6.617a12.792,12.792,0,0,1-1.142,1.687,8.492,8.492,0,0,0-.513.693,1.773,1.773,0,0,0-.137.279.088.088,0,0,0,0,.027s.027.082.045.141c.02.035.044.078.054.093a4.507,4.507,0,0,0,.289.409c.378.458.774.9,1.147,1.365a1.249,1.249,0,0,1,0,1.721,1.215,1.215,0,0,1-1.712,0,12.249,12.249,0,0,1-2-2.65,3.219,3.219,0,0,1,.789-3.378m11.3,10.624a13.236,13.236,0,0,1-1.832,3.038,5.26,5.26,0,0,1-4.94,2.21c-2.536-.453-4.18-3.14-5.232-5.251a1.276,1.276,0,0,1,.152-1.426c.015-.019.032-.037.049-.055s.037-.036.057-.054a1.118,1.118,0,0,1,.787-.3h1.247l8.666,0a1.233,1.233,0,0,1,1.045,1.831M201.387,45.3a1.218,1.218,0,0,1,0-2.433,1.218,1.218,0,0,1,0,2.433m-3.1,43.037a13.042,13.042,0,0,0,12.53-4.433,1.217,1.217,0,0,1,1.713,0,1.254,1.254,0,0,1,0,1.72,15.452,15.452,0,0,1-14.887,5.059c-1.526-.325-.877-2.67.644-2.346" transform="translate(-94.355 -13.962)" fill="#fff"/>
    <path id="パス_4404" data-name="パス 4404" d="M201.881,197.977a1.225,1.225,0,0,1,.724-1.787l2.615-.617,11.265-2.658,3.337-.787v-.657a1.061,1.061,0,0,1-.23.026,1.251,1.251,0,0,1-1.211-1.217q-.165-1.473-.329-2.946-.719-6.423-1.437-12.847l-.628-5.614a1.217,1.217,0,0,1-1.5-1.476l.9-3.315,3.956-14.5,2.471-9.056a1.1,1.1,0,0,1,.846-.83c-.358-.117-.716-.236-1.072-.36a40.317,40.317,0,0,1-4.748-1.987c-.768-.384-1.539-.806-2.29-1.271l-1.738,3.036a1.211,1.211,0,0,1,.249,1.525q-2.481,3.456-5.05,6.848-9.122,12.039-19.307,23.206a1.215,1.215,0,0,1-1.9-.246c-.928-2.006-1.858-4.012-2.721-6.047a60.1,60.1,0,0,1-3.73-11.367A43.1,43.1,0,0,1,179.7,140.1a29.319,29.319,0,0,1-4.413.954c-.6.092-1.2.173-1.81.254-.784.105-1.569.209-2.353.326q-.058.275-.113.559h.007a1.306,1.306,0,0,1,.2-.047l.064-.007a1.2,1.2,0,0,1,.156-.006l.063,0a1.114,1.114,0,0,1,.208.034,1.246,1.246,0,0,1,.846,1.5q-.53,2.535-1.08,5.067c-1.284,5.944-2.531,11.921-4.149,17.784-.226.819-.455,1.641-.761,2.434a8.686,8.686,0,0,0-.31,5.037c.427,2.144,1.166,4.212,1.74,6.318a26.9,26.9,0,0,1,1.082,7.39,1.19,1.19,0,0,1-1.459,1.155,19.182,19.182,0,0,1-.284,2.049l.276.749a1.065,1.065,0,0,1,.726-.572,64.5,64.5,0,0,1,8.039-1.214,5.923,5.923,0,0,1,2.847.3,14.962,14.962,0,0,1,2.309,1.366,28.18,28.18,0,0,0,4.476,2.643,60.354,60.354,0,0,0,7.084,2.5,21.6,21.6,0,0,0,3.739.929c1.312.145,2.638.068,3.949.222a1.356,1.356,0,0,1,1.08.674q.158-.063.319-.12c-.1-.132-.2-.265-.3-.4" transform="translate(-85.599 -69.855)" fill="#75bb36"/>
    <path id="パス_4405" data-name="パス 4405" d="M136.668,180.986c.2.016.41.029.614.05a5.4,5.4,0,0,1,4.555,3.624c.369.975.721,1.956,1.082,2.935l3.38,9.17a18.924,18.924,0,0,0,.284-2.049,1.106,1.106,0,0,1-.964-1.155,27.127,27.127,0,0,0-1.344-7.97,37.017,37.017,0,0,1-1.675-7.026,10.9,10.9,0,0,1,.721-4.74c.326-.92.577-1.868.828-2.81.786-2.952,1.472-5.932,2.15-8.911q1.5-6.6,2.883-13.218a.99.99,0,0,1,.1-.258c.014-.025.031-.048.046-.072a1.1,1.1,0,0,1,.113-.15c.021-.023.043-.045.066-.066a1.17,1.17,0,0,1,.15-.117c.023-.016.045-.033.069-.046a1.307,1.307,0,0,1,.247-.114h0c.036-.189.075-.376.113-.56q-.583.087-1.161.188l-.229.04c-.327.059-.653.126-.977.2-.111.024-.222.046-.332.071-.307.07-.611.15-.915.233-.113.031-.228.057-.341.091-.407.118-.811.249-1.211.4a7.666,7.666,0,0,0-3.162,2.057,7.433,7.433,0,0,0-.5.714c-.2.324-.394.656-.577.992-.429.787-.819,1.595-1.2,2.407-1.677,3.59-3.477,7.119-5.052,10.756-1.86,4.294-3.615,8.631-5.777,12.785a1.165,1.165,0,0,1-2.063-.037l-1.367,1.694,1.871.147,9.572.754" transform="translate(-64.563 -75.72)" fill="#fff"/>
    <path id="パス_4406" data-name="パス 4406" d="M277.7,163a60.411,60.411,0,0,0-1.849-9.48c-.162-.516-.343-1.028-.549-1.529-.022-.048-.1-.231-.116-.265q-.079-.173-.162-.344-.152-.312-.319-.617a13.351,13.351,0,0,0-.84-1.319l-.032-.045c-.031-.039-.062-.079-.094-.118-.065-.08-.131-.16-.2-.239q-.237-.277-.491-.538a10.207,10.207,0,0,0-2.359-1.854,21.05,21.05,0,0,0-3.278-1.6c-.66-.257-1.33-.484-2-.7a1.107,1.107,0,0,1,.228,1.067l-.9,3.315-3.957,14.5q-.873,3.2-1.747,6.4a1.4,1.4,0,0,1,.587,1.033q.164,1.472.329,2.946.719,6.423,1.437,12.846.45,4.031.9,8.061a1.2,1.2,0,0,1-.981,1.19v.657l3.717-.877c1.519-.358,2.161,1.988.644,2.346l-2.615.617-11.265,2.658-5.3,1.251c1.586,2.174,3.06,4.6,3.193,7.305a9.3,9.3,0,0,1-2.044,5.831q6.426-.715,12.842-1.513c3.932-.491,7.861-1.005,11.783-1.57,1.858-.267,3.717-.536,5.569-.844a6.186,6.186,0,0,0,3.908-1.838l.044-.05c.011-.016.022-.035.043-.065.042-.062.083-.124.123-.187.078-.126.149-.256.217-.388.033-.062.062-.126.091-.19,0-.009.005-.015.009-.026.052-.139.1-.279.141-.421a6.9,6.9,0,0,0,.2-.923c0-.009,0-.014,0-.027.008-.076.015-.153.022-.229.013-.154.023-.309.028-.463a23.156,23.156,0,0,0-.29-3.894c-.319-2.428-.579-4.864-.889-7.293-.792-6.195-1.644-12.34-2.52-18.594q-.719-5.135-1.455-10.267a1.249,1.249,0,0,1,.846-1.5,1.331,1.331,0,0,1,1.066.213l-.115-1.632c-.037.014-.072.032-.112.043A1.217,1.217,0,0,1,277.7,163" transform="translate(-127.083 -74.105)" fill="#fff"/>
    <path id="パス_4407" data-name="パス 4407" d="M187.953,11.512a11.5,11.5,0,0,0-2.58,3.038,23.059,23.059,0,0,0-1.99,3.873,10.738,10.738,0,0,0-.879,4.325,10.49,10.49,0,0,0,.692,3.377,7.345,7.345,0,0,0,7.363,1.651c-4.474-3.659-3.5-11.254.368-15.061,1.115-1.1,2.829.623,1.713,1.72-2.744,2.7-4.046,8.91-.549,11.485a1.269,1.269,0,0,1,.514,1.49,9.757,9.757,0,0,0,5.109-.091,1.2,1.2,0,0,1,.59-.942c.12-.064.242-.121.366-.175-3.023-3.974-2.156-10.29,1.332-13.857,1.094-1.119,2.806.6,1.712,1.721-2.968,3.035-3.673,9.137,0,11.783a5.308,5.308,0,0,1,1.656.572A12.432,12.432,0,0,1,205.952,15.8a9.366,9.366,0,0,1,.539-1.18c.749-1.376,2.84-.146,2.091,1.228a7.382,7.382,0,0,0-.822,4.054,12.9,12.9,0,0,0,2.971,7.186,10.81,10.81,0,0,0,2.893,2.528,5.8,5.8,0,0,0,2.983.855,1.176,1.176,0,0,1,.58.14,4.452,4.452,0,0,1,3.379-.774c3.607.622,4.833,5.1,4.372,8.216a8.73,8.73,0,0,1-3.839,5.931,6.021,6.021,0,0,1,.21,1.052,5.1,5.1,0,0,1-.018.976,13.049,13.049,0,0,0,4.9-3.941,17.111,17.111,0,0,0,3.3-11.4,13.671,13.671,0,0,0-.458-2.819,14.734,14.734,0,0,0-.494-1.539,9.484,9.484,0,0,0-.5-1.105A9.854,9.854,0,0,0,224.4,21.21a1.246,1.246,0,0,1,.145-2.17c-.281-.329-.572-.649-.869-.963a1.2,1.2,0,0,1-1.958-.921,9.262,9.262,0,0,0-2.557-6.585,18.833,18.833,0,0,0-12.783-5.562,26.282,26.282,0,0,0-8.159,1.141,19.083,19.083,0,0,0-7.8,3.956,1.25,1.25,0,0,1-1.979-.429l-.106.1c.017.024.039.047.053.072a1.258,1.258,0,0,1-.435,1.665" transform="translate(-94.093 -2.562)" fill="#75bb36"/>
    <path id="パス_4408" data-name="パス 4408" d="M200.925,88.6a22.335,22.335,0,0,0,9.9-6.586,1.251,1.251,0,0,0,0-1.721,1.219,1.219,0,0,0-1.713,0,20.558,20.558,0,0,1-7.81,5.6,10.112,10.112,0,0,1-4.52.807,11,11,0,0,1-4.554-1.578,14.882,14.882,0,0,1-6.459-7.892c-1.311-3.811-1.206-7.88-1.122-11.856a22.98,22.98,0,0,0-.386-5.338,5.5,5.5,0,0,0-.591-1.708,1.134,1.134,0,0,0-1.12-.558,1.177,1.177,0,0,0-.972,1.786c.013.02.024.041.035.062l.014.028c.087.331.212.65.287.987a20.241,20.241,0,0,1,.311,4.74c-.089,4.213-.171,8.575,1.245,12.605,1.784,5.074,6.257,9.66,11.495,10.837a11.458,11.458,0,0,0,5.962-.219" transform="translate(-93.519 -29.652)" fill="#323232"/>
    <path id="パス_4409" data-name="パス 4409" d="M208.391,89.742l-8.665,0h-1.247a1.121,1.121,0,0,0-.788.295c-.02.018-.038.036-.057.054s-.033.036-.049.055a1.278,1.278,0,0,0-.153,1.426c1.053,2.111,2.7,4.8,5.233,5.251a5.26,5.26,0,0,0,4.94-2.21,13.221,13.221,0,0,0,1.832-3.039,1.234,1.234,0,0,0-1.045-1.831M206.1,92.609c-.02.028-.15.2-.17.232-.064.081-.129.162-.2.24a7.336,7.336,0,0,1-.529.556c-.068.063-.138.123-.206.185-.033.029-.068.057-.1.085l-.005,0c-.194.125-.384.247-.586.361l-.067.039-.022,0c-.1.029-.2.071-.309.1-.053.014-.107.023-.16.034.026-.008-.167.022-.233.023-.109,0-.216-.01-.324-.013.353.011.005,0-.09-.027-.113-.027-.22-.072-.333-.1l-.024-.005-.023-.015c-.211-.126-.424-.24-.625-.381-.033-.031-.216-.177-.24-.2-.119-.108-.235-.221-.346-.337a7.755,7.755,0,0,1-.592-.7c-.127-.171-.246-.347-.363-.525h5.824c-.092.146-.181.293-.279.434" transform="translate(-101.716 -46.068)" fill="#323232"/>
    <path id="パス_4410" data-name="パス 4410" d="M196.616,7.543a19.082,19.082,0,0,1,7.8-3.956,26.28,26.28,0,0,1,8.159-1.141,18.831,18.831,0,0,1,12.783,5.562,9.258,9.258,0,0,1,2.557,6.585,1.2,1.2,0,0,0,1.958.921,1.144,1.144,0,0,0,.464-.921c.168-5.607-3.98-9.973-8.735-12.27a23.523,23.523,0,0,0-8-2.24,26.493,26.493,0,0,0-8.729.868A22.527,22.527,0,0,0,194.9,5.823a1.049,1.049,0,0,0-.266,1.291,1.25,1.25,0,0,0,1.979.429" transform="translate(-100.291 0)" fill="#323232"/>
    <path id="パス_4411" data-name="パス 4411" d="M206.329,131.037a1.249,1.249,0,0,0,1.211,1.217,1.222,1.222,0,0,0,1.211-1.217q-.432-4.339-.864-8.677a22.2,22.2,0,0,0,8.658.64,20.124,20.124,0,0,0,10.319-4.485,1.12,1.12,0,0,0,.312-1.131,1.193,1.193,0,0,0-2.025-.59c-4.943,4.083-11.663,4.82-17.635,2.917-.217-.069-.436-.134-.65-.21a1.222,1.222,0,0,0-1.49.85,1.188,1.188,0,0,0-.034.44.906.906,0,0,0-.009.243q.207,2.075.414,4.151.229,2.3.457,4.594.063.629.125,1.258" transform="translate(-105.863 -59.778)" fill="#323232"/>
    <path id="パス_4412" data-name="パス 4412" d="M129.922,171.473c2.162-4.155,3.917-8.491,5.777-12.785,1.575-3.638,3.375-7.166,5.052-10.756.379-.812.769-1.62,1.2-2.407.183-.336.373-.668.577-.992a7.434,7.434,0,0,1,.5-.714,7.661,7.661,0,0,1,3.162-2.057c.4-.148.8-.278,1.211-.4.113-.033.228-.059.341-.091.3-.083.608-.163.915-.233.11-.025.221-.047.332-.071.325-.07.65-.136.978-.2l.229-.04c1.166-.2,2.342-.358,3.514-.513.606-.08,1.211-.162,1.81-.254a29.361,29.361,0,0,0,4.413-.954,43.11,43.11,0,0,0,.662,12.929,60.092,60.092,0,0,0,3.73,11.367c.864,2.035,1.793,4.041,2.722,6.047a1.215,1.215,0,0,0,1.9.246q10.18-11.15,19.308-23.206,2.569-3.391,5.049-6.849a1.21,1.21,0,0,0-.248-1.525,1.068,1.068,0,0,0-.186-.139,1.234,1.234,0,0,0-1.657.437q-8.661,12.066-18.4,23.3-2.17,2.5-4.394,4.953c-2.957-6.471-5.666-13.094-6.187-20.281a42.526,42.526,0,0,1,.15-7.593.952.952,0,0,0-.164-.622,9.3,9.3,0,0,0,2.625-2.011,1.215,1.215,0,0,0-.013-1.66,1.081,1.081,0,0,0-1.7-.06c-1.892,2.113-4.875,2.735-7.72,3.2-3.155.512-6.418.7-9.464,1.735a11.735,11.735,0,0,0-4.032,2.224,12.163,12.163,0,0,0-2.586,3.826c-.737,1.476-1.375,3-2.1,4.482-.981,2.013-2,4-2.913,6.047-2.142,4.81-4.05,9.719-6.483,14.394a1.214,1.214,0,0,0,2.091,1.228" transform="translate(-65.83 -68.764)" fill="#323232"/>
    <path id="パス_4413" data-name="パス 4413" d="M219.7,59.4a1.218,1.218,0,0,0,0,2.433,1.218,1.218,0,0,0,0-2.433" transform="translate(-112.672 -30.493)" fill="#323232"/>
    <path id="パス_4414" data-name="パス 4414" d="M194.255,59.783a1.218,1.218,0,0,0,0,2.433,1.218,1.218,0,0,0,0-2.433" transform="translate(-99.551 -30.689)" fill="#323232"/>
    <path id="パス_4415" data-name="パス 4415" d="M254.537,91.564l-.057-.046c0,.006.013.021.057.046" transform="translate(-131.204 -46.981)" fill="#fff"/>
    <path id="パス_4416" data-name="パス 4416" d="M254.763,91.748a.177.177,0,0,1,.041,0,.184.184,0,0,0-.041,0" transform="translate(-131.351 -47.098)" fill="#fff"/>
    <path id="パス_4417" data-name="パス 4417" d="M257.625,88.766h0c.012-.057.008-.039,0,0" transform="translate(-132.826 -45.55)" fill="#fff"/>
    <path id="パス_4418" data-name="パス 4418" d="M254.6,91.613a.3.3,0,0,1,.052.049.1.1,0,0,0-.007-.023l-.028-.016-.016-.01" transform="translate(-131.266 -47.029)" fill="#fff"/>
    <path id="パス_4419" data-name="パス 4419" d="M257.591,88.918c.008,0,.013-.045.016-.113v.008a.372.372,0,0,0-.014.106" transform="translate(-132.808 -45.588)" fill="#fff"/>
    <path id="パス_4420" data-name="パス 4420" d="M254.9,91.787c.077.046.071.016.027-.01a.492.492,0,0,0-.079-.02l.053.031" transform="translate(-131.394 -47.103)" fill="#fff"/>
    <path id="パス_4421" data-name="パス 4421" d="M256.744,91.046a.174.174,0,0,0,.028-.036s-.014.015-.028.036" transform="translate(-132.372 -46.72)" fill="#fff"/>
    <path id="パス_4422" data-name="パス 4422" d="M255.365,91.926h0" transform="translate(-131.66 -47.19)" fill="#fff"/>
    <path id="パス_4423" data-name="パス 4423" d="M254.461,84.547a.3.3,0,0,1-.047.029.033.033,0,0,0,.017,0l.022-.022.007-.007" transform="translate(-131.171 -43.402)" fill="#fff"/>
    <path id="パス_4424" data-name="パス 4424" d="M254.51,84.489l.066-.046c.009-.017-.005-.014-.066.046" transform="translate(-131.22 -43.344)" fill="#fff"/>
    <path id="パス_4425" data-name="パス 4425" d="M253.793,87.764c.005-.013.08.015.1.073l.076.044a.2.2,0,0,1,.08.02c.046.017.092.035.129.048h.092c.039-.006.08-.011.106-.018s.062-.019.092-.029.158-.108.216-.138l.019-.018c.038-.036.075-.072.11-.11l.062-.067c.066-.1.133-.206.191-.315.012-.022.033-.055.053-.088l.017-.053c.046-.141.093-.281.127-.426.014-.059.025-.119.038-.178l.013-.056v-.009c.01-.22,0-.69,0-.745,0-.013,0-.016,0-.025s-.009-.042-.017-.08c-.012-.061-.026-.122-.041-.182-.034-.136-.081-.266-.125-.4-.01-.02-.019-.041-.03-.061-.026-.051-.052-.1-.08-.149-.037-.065-.08-.126-.119-.19-.08-.08-.155-.168-.236-.248l0,0c-.037-.021-.073-.048-.109-.07-.017-.01-.071-.036-.11-.055l-.121-.031a.814.814,0,0,1-.129,0,1.727,1.727,0,0,1-.221.065c-.027.015-.054.03-.08.046l-.012.008a.167.167,0,0,1-.1.075c-.039.037-.078.074-.115.114s-.205.167-.059.058-.014.022-.047.073-.059.093-.087.141-.082.123-.119.193a.2.2,0,0,1-.012.058c-.022.07-.048.139-.069.21-.043.144-.068.29-.1.435-.005.064-.012.128-.015.193-.006.128-.006.256,0,.384,0,.065.009.129.013.195s.005.1,0,.1c.021.11.066.232.091.318s.044.144.069.215c.008.022.034.077.047.105l.023.044c.026.05.053.1.082.147s.059.093.088.14c.125.2-.046-.055-.047-.051-.008.061.223.248.265.286l.005,0" transform="translate(-130.518 -43.227)" fill="#fff"/>
    <path id="パス_4426" data-name="パス 4426" d="M254.48,91.514l.057.046.016.01.028.016c-.022-.057-.1-.085-.1-.073" transform="translate(-131.205 -46.977)" fill="#323232"/>
    <path id="パス_4427" data-name="パス 4427" d="M254.847,91.756a.479.479,0,0,1,.079.02.193.193,0,0,0-.079-.02" transform="translate(-131.394 -47.103)" fill="#323232"/>
    <path id="パス_4428" data-name="パス 4428" d="M257.623,88.8h0v0" transform="translate(-132.825 -45.587)" fill="#323232"/>
    <path id="パス_4429" data-name="パス 4429" d="M254.545,84.452l-.066.046-.007.007-.022.022a.166.166,0,0,0,.1-.075" transform="translate(-131.189 -43.353)" fill="#323232"/>
    <path id="パス_4430" data-name="パス 4430" d="M248.673,30.729A9.851,9.851,0,0,1,252.3,34.72a9.479,9.479,0,0,1,.5,1.1,14.787,14.787,0,0,1,.494,1.54,13.638,13.638,0,0,1,.458,2.819,17.109,17.109,0,0,1-3.3,11.4,13.042,13.042,0,0,1-4.9,3.941,5.128,5.128,0,0,0,.019-.975,6.066,6.066,0,0,0-.21-1.052,8.73,8.73,0,0,0,3.839-5.931c.461-3.112-.764-7.594-4.371-8.216a4.451,4.451,0,0,0-3.38.774,1.175,1.175,0,0,0-.579-.14,5.8,5.8,0,0,1-2.983-.855,10.8,10.8,0,0,1-2.894-2.528,12.908,12.908,0,0,1-2.971-7.186,7.38,7.38,0,0,1,.822-4.054c.749-1.374-1.342-2.6-2.091-1.228a9.5,9.5,0,0,0-.539,1.18c-2.108,5.584,1.26,12.573,6.042,15.667a8.66,8.66,0,0,0,4.05,1.418,1.113,1.113,0,0,0,.535.713,1.216,1.216,0,0,0,1.657-.437,1.708,1.708,0,0,1,2.482-.71,4.486,4.486,0,0,1,1.9,3.55,6.5,6.5,0,0,1-2.769,5.9,3.109,3.109,0,0,0-5.009,1.215,5.2,5.2,0,0,0,.13,4.831,3.637,3.637,0,0,0,2.2,1.69,1.171,1.171,0,0,0-.886,1.159q.508,4.072,1.016,8.145l.344,2.758c.037.3.075.592.111.888a1.134,1.134,0,0,0,.05,1.07,14.57,14.57,0,0,0,5.252,5.128c.751.465,1.523.887,2.29,1.271a40.426,40.426,0,0,0,4.748,1.987c.357.124.714.243,1.073.36a1.1,1.1,0,0,0-.846.83l-2.471,9.056-3.957,14.5-.9,3.315a1.217,1.217,0,0,0,1.5,1.476l.628,5.614q.719,6.423,1.437,12.846.165,1.473.329,2.946a1.25,1.25,0,0,0,1.211,1.217,1.059,1.059,0,0,0,.23-.026,1.2,1.2,0,0,0,.981-1.19q-.451-4.031-.9-8.061-.719-6.423-1.437-12.846-.165-1.473-.329-2.946a1.4,1.4,0,0,0-.587-1.033q.873-3.2,1.747-6.4l3.957-14.5.9-3.315a1.107,1.107,0,0,0-.229-1.066c.672.219,1.342.446,2,.7a21.009,21.009,0,0,1,3.278,1.6,10.21,10.21,0,0,1,2.359,1.854q.254.261.491.538c.067.079.133.159.2.239l.094.118.031.045a13.339,13.339,0,0,1,.839,1.318q.167.3.319.617.082.171.161.344c.015.034.094.217.116.265.2.5.386,1.012.548,1.529a60.345,60.345,0,0,1,1.849,9.48,1.217,1.217,0,0,0,1.489.85,1.1,1.1,0,0,0,.112-.043,1.261,1.261,0,0,0,.733-1.453,66.156,66.156,0,0,0-1.555-8.6c1.261-2.059.888-4.921.313-7.145a10.227,10.227,0,0,0-1.561-3.482,19.515,19.515,0,0,0-3.6-3.615,37.729,37.729,0,0,1-3.8-3.307,8.886,8.886,0,0,1-2.241-4.223c-.4-1.718-.5-3.5-.994-5.193a12.325,12.325,0,0,0-2.226-4.179,14.266,14.266,0,0,0-6.227-4.621,17.392,17.392,0,0,0,5.755-8.263,18.78,18.78,0,0,0-.467-13.558,12.516,12.516,0,0,0-4.82-5.523,1.069,1.069,0,0,0-1.077-.07,1.247,1.247,0,0,0-.145,2.171m-7.3,25.6s.171.254.046.051c-.029-.047-.06-.092-.088-.14s-.056-.1-.082-.147l-.023-.044c-.012-.028-.038-.083-.046-.105q-.039-.106-.07-.215c-.025-.086-.069-.208-.091-.318a.929.929,0,0,0-.005-.1c0-.065-.01-.129-.013-.2-.006-.127-.005-.256,0-.383,0-.065.01-.128.016-.193.035-.145.06-.291.1-.435.021-.071.047-.14.069-.21a.236.236,0,0,0,.013-.058c.035-.07.09-.144.119-.193s.057-.094.087-.141.182-.174.047-.073.03-.027.059-.058.077-.076.116-.114a.027.027,0,0,1-.016,0,.266.266,0,0,0,.046-.029c.061-.059.075-.063.066-.046l.012-.008c.026-.016.053-.031.08-.046a1.8,1.8,0,0,0,.22-.065.882.882,0,0,0,.129,0l.121.031c.04.019.093.045.11.055.037.021.072.048.109.07l0,0c.081.079.156.167.236.248.039.064.082.125.12.19.029.049.055.1.081.149l.029.061c.045.132.092.262.125.4.015.06.029.121.042.182.007.037.013.061.016.08s0,.013,0,.025c0,.055.015.525,0,.745.008-.038.012-.056,0,0s-.008.114-.015.113a.36.36,0,0,1,.013-.106l-.012.057c-.013.059-.024.119-.038.178-.034.145-.082.285-.128.426-.008.023-.013.039-.016.053-.019.033-.042.066-.053.088-.059.109-.125.211-.192.315-.03.034-.066.071-.062.067-.035.037-.072.074-.109.11l-.02.018c-.058.03-.186.118-.215.138s-.062.021-.093.029-.066.012-.106.018h-.092c-.038-.013-.083-.031-.129-.048.046.026.05.056-.026.01l-.053-.031a.176.176,0,0,0-.041,0,.174.174,0,0,1,.041,0l-.076-.044a.086.086,0,0,1,.007.022.283.283,0,0,0-.051-.049c-.044-.025-.06-.04-.058-.046l0,0c-.042-.038-.273-.225-.264-.286m1.394.044s-.012.018-.028.036c.015-.021.027-.038.028-.036m-.695.445h0M253.59,61.88a9.708,9.708,0,0,1,1.894,3.336,44.138,44.138,0,0,1,.925,4.776,11.191,11.191,0,0,0,1.793,4.449,18.314,18.314,0,0,0,3.278,3.377c1.216,1.008,2.489,1.953,3.626,3.055a11.219,11.219,0,0,1,1.436,1.625,8.472,8.472,0,0,1,.478.761,5.77,5.77,0,0,1,.286.6,12.632,12.632,0,0,1,.828,3.709c0,.03,0,.062.005.093a14.231,14.231,0,0,0-1.368-2.078c-3.508-4.386-9.264-5.207-14.131-7.276-2.978-1.266-6.317-3.007-8.146-5.815q-.664-5.322-1.328-10.645-.1-.766-.192-1.532a1.384,1.384,0,0,0-.676-1.085,2.734,2.734,0,0,0,.814-.183,3.6,3.6,0,0,0,1.547-1.189,1.071,1.071,0,0,0,1.067.229c.25-.1.494-.207.735-.319a1.536,1.536,0,0,0,.178.028c2.733.206,5.225,2.051,6.949,4.083" transform="translate(-118.37 -12.082)" fill="#323232"/>
    <path id="パス_4431" data-name="パス 4431" d="M274.831,187.21a1.249,1.249,0,0,0-.846,1.5q.738,5.132,1.455,10.267c.876,6.255,1.727,12.4,2.519,18.594.311,2.429.571,4.865.889,7.292a23.109,23.109,0,0,1,.29,3.894c-.006.155-.015.31-.028.464-.006.076-.015.152-.022.229l0,.027a7.054,7.054,0,0,1-.2.923c-.042.142-.089.282-.141.421l-.01.025c-.029.064-.058.128-.091.19-.069.131-.139.261-.218.387-.039.063-.081.126-.123.187l-.043.065-.043.049a6.187,6.187,0,0,1-3.908,1.838c-1.852.308-3.712.577-5.57.844-3.922.565-7.85,1.079-11.782,1.569q-6.415.8-12.842,1.513a9.3,9.3,0,0,0,2.044-5.83c-.132-2.709-1.606-5.131-3.193-7.306l5.3-1.25,11.265-2.658,2.615-.617c1.517-.358.874-2.7-.644-2.347l-3.717.877-3.337.787L243.185,221.8l-2.615.617a1.225,1.225,0,0,0-.724,1.787c.1.131.2.264.3.4a30.173,30.173,0,0,1,2.531,3.8,8.6,8.6,0,0,1,1.056,3.119,5.5,5.5,0,0,1-.614,2.962,15.156,15.156,0,0,1-2.331,3.28q-.178.2-.359.4c-.641.7-.257,2.2.856,2.077q6.74-.723,13.469-1.559,6.035-.738,12.059-1.566,2.966-.412,5.927-.86a15.85,15.85,0,0,0,5.467-1.422c2.735-1.523,3.509-4.491,3.337-7.436-.145-2.466-.551-4.944-.854-7.4-.077-.625-.159-1.25-.237-1.875-.723-5.722-1.51-11.436-2.3-17.148q-.58-4.167-1.171-8.333c-.206-1.456-.367-2.928-.623-4.376-.013-.07-.02-.14-.031-.21a.951.951,0,0,0-.424-.638,1.331,1.331,0,0,0-1.066-.212m3.9,43.645c-.052.138-.022.054,0,0" transform="translate(-123.564 -96.085)" fill="#323232"/>
    <path id="パス_4432" data-name="パス 4432" d="M166.493,194.086a26.9,26.9,0,0,0-1.082-7.39c-.575-2.106-1.313-4.174-1.741-6.318a8.69,8.69,0,0,1,.31-5.037c.307-.792.536-1.615.762-2.434,1.617-5.864,2.864-11.84,4.149-17.784q.546-2.532,1.08-5.066a1.247,1.247,0,0,0-.846-1.5,1.148,1.148,0,0,0-.208-.034l-.063,0a1.292,1.292,0,0,0-.156.006l-.064.007a1.309,1.309,0,0,0-.2.047l-.007,0a1.324,1.324,0,0,0-.248.113c-.024.014-.046.031-.069.046a1.263,1.263,0,0,0-.15.117c-.023.021-.045.044-.066.067a1.078,1.078,0,0,0-.114.15c-.015.024-.032.047-.046.072a.986.986,0,0,0-.1.258q-1.383,6.622-2.883,13.218c-.678,2.979-1.364,5.959-2.15,8.911-.251.942-.5,1.891-.828,2.81a10.888,10.888,0,0,0-.721,4.74,37,37,0,0,0,1.675,7.025,27.149,27.149,0,0,1,1.344,7.971,1.106,1.106,0,0,0,.964,1.155,1.19,1.19,0,0,0,1.459-1.155" transform="translate(-83.016 -76.245)" fill="#323232"/>
    <path id="パス_4433" data-name="パス 4433" d="M181.183,31.875a11.826,11.826,0,0,1-.566-1.275,10.479,10.479,0,0,1-.692-3.377A10.73,10.73,0,0,1,180.8,22.9a23.058,23.058,0,0,1,1.99-3.873,11.5,11.5,0,0,1,2.58-3.038,1.258,1.258,0,0,0,.435-1.665c-.015-.025-.036-.048-.053-.072a1.2,1.2,0,0,0-1.6-.365c-2.712,2.037-4.457,5.258-5.683,8.366a12.391,12.391,0,0,0-.958,5.176,13.789,13.789,0,0,0,1.581,5.677,1.03,1.03,0,0,0,1.075.6,1.263,1.263,0,0,0,1.016-1.825" transform="translate(-91.515 -7.036)" fill="#323232"/>
    <path id="パス_4434" data-name="パス 4434" d="M175.61,63.966a1.253,1.253,0,0,0-.846-1.5,1.22,1.22,0,0,0-1.49.85c-.363,2.106-.663,4.222-1.025,6.327-.4,2.328-1.061,4.668-.792,7.049a14.734,14.734,0,0,0,2.772,6.683c1.246,1.793,3.339,3.756,2.979,6.155-.4,2.688-3.184,4.078-5.661,4.046a1.218,1.218,0,0,0,0,2.433,8.257,8.257,0,0,0,7.108-3.584,6.831,6.831,0,0,0-.323-7.494c-1.394-2.173-3.206-4.069-4.045-6.567-.783-2.33-.349-4.538.085-6.887.462-2.5.806-5.012,1.237-7.513" transform="translate(-87.844 -32.049)" fill="#323232"/>
    <path id="パス_4435" data-name="パス 4435" d="M197.511,33.7c-3.5-2.575-2.195-8.787.549-11.485,1.116-1.1-.6-2.817-1.713-1.721-3.872,3.808-4.842,11.4-.368,15.062.1.083.2.166.309.245a1.217,1.217,0,0,0,1.657-.436,1.249,1.249,0,0,0-.435-1.665" transform="translate(-99.514 -10.339)" fill="#323232"/>
    <path id="パス_4436" data-name="パス 4436" d="M216.962,21.442c1.093-1.118-.618-2.84-1.713-1.721-3.488,3.567-4.355,9.882-1.332,13.857-.124.054-.247.111-.367.175a1.2,1.2,0,0,0-.59.942,1.122,1.122,0,0,0,.155.722,1.235,1.235,0,0,0,1.657.437c.051-.027.1-.054.155-.079l.015-.007.046-.018.131-.044c.109-.035.22-.065.332-.09l.154-.028c.063-.005.171-.017.207-.018.1,0,.207-.005.311,0l.029,0a.985.985,0,0,0,.449.06,4.319,4.319,0,0,1,.481.135.54.54,0,0,1,.1.034l.005,0a.6.6,0,0,0,.062.023l-.041-.012c.085.04.168.082.249.128.1.056.2.117.293.182l.026.018c-.044-.036-.062-.057.031.021h0a.5.5,0,0,0,.054.039.544.544,0,0,1-.047-.032,3.852,3.852,0,0,1,.453.458,1.212,1.212,0,0,0,1.713,0,1.252,1.252,0,0,0,0-1.72,4.774,4.774,0,0,0-1.363-1.112,5.309,5.309,0,0,0-1.656-.572c-3.678-2.646-2.972-8.749,0-11.783" transform="translate(-109.34 -9.937)" fill="#323232"/>
    <path id="パス_4437" data-name="パス 4437" d="M222.445,53.08c-.013,0-.027-.007-.04-.011s0,.007.129.048l-.021-.011-.068-.026" transform="translate(-114.663 -27.242)" fill="#323232"/>
    <path id="パス_4438" data-name="パス 4438" d="M223.855,53.846l.039.03-.006-.007-.032-.023" transform="translate(-115.415 -27.642)" fill="#323232"/>
    <path id="パス_4439" data-name="パス 4439" d="M15.938,255.805a11.614,11.614,0,0,0,1.185,3.032,4.1,4.1,0,0,0,3.165,1.682c.318.023.637.043.955.065l4.309.292,15.342,1.04,19.741,1.338,18.239,1.236,10.9.739a6.877,6.877,0,0,0,2.037-.06,38.353,38.353,0,0,0,6.576-2.405c6.025-2.527,11.95-5.3,17.85-8.1q1.726-.821,3.448-1.653c1.159-.562.491-2.2-.611-2.267l-8.741-.526-13.949-.839-3.224-.194A1.074,1.074,0,0,0,92,250.39a1.223,1.223,0,0,0,1.161,1.226l8.741.526,12.414.746q-3.873,1.838-7.767,3.63-2.379,1.091-4.77,2.152-1.147.509-2.3,1.006-.541.234-1.082.465l-.343.146-.619.26a35.754,35.754,0,0,1-6.313,2.286c-.045.01-.091.018-.137.026-.067,0-.139.006-.206.005-.049,0-.1-.007-.147-.01-.319-.018-.637-.043-.955-.065l-4.174-.283L70.364,261.48l-19.476-1.32-18.18-1.232-11.257-.763c-.842-.057-1.845.043-2.375-.762a10.225,10.225,0,0,1-.835-2.344l-4.664-13.947L7.36,222.52,2.94,209.3l-.43-1.287c-.1-.312-.225-.477.112-.511a11.58,11.58,0,0,1,1.958.154l12.268.966L35.47,210.09l19.178,1.51,14.12,1.112,3.346.263a3.088,3.088,0,0,1,2.86,1.992c1.288,3.391,2.51,6.81,3.765,10.214L85.4,243.254l2.63,7.137q1.35,3.663,2.7,7.327l.824,2.235a1.243,1.243,0,0,0,1.49.85,1.227,1.227,0,0,0,.846-1.5l-3.2-8.7-.081-.219-1.122-3.043-1.289-3.5a1.331,1.331,0,0,0,.281-.194l5.441-5.033,3.649-.478a1.254,1.254,0,0,0,1.211-1.217c0-.591-.558-1.3-1.211-1.217l-2.49.326c-.777.1-1.986.077-2.594.608-1.406,1.228-2.748,2.541-4.119,3.81l-1.058.979q-.363-.982-.724-1.963a1.545,1.545,0,0,0,.259-.279l2.353-3.328,6.14-1.247a1.217,1.217,0,0,0-.644-2.346l-4.9.994-1.2.243a2.233,2.233,0,0,0-.715.209,2.922,2.922,0,0,0-.743.872l-.854,1.207-.693.981L84.5,233.828a1.664,1.664,0,0,0,.491-.437l.669-.878c.084-.11.162-.216.223-.291.042-.054.086-.105.133-.155l.025-.026c.024,0,.076,0,.114,0,.206.007.411.014.617.023l1.085.049,4.591.205a1.217,1.217,0,0,0,0-2.433l-5.259-.236a3.615,3.615,0,0,0-2.684.521,5.874,5.874,0,0,0-.952,1.087l-.907-2.461a1.437,1.437,0,0,0,.733.048,67.547,67.547,0,0,1,6.778-1.081c.537-.047,1.075-.079,1.614-.082.2,0,.4.008.6.013,0,0,.007,0,.008,0a1.044,1.044,0,0,0,.21.076,14.256,14.256,0,0,1,2.114,1.276,28.159,28.159,0,0,0,4.476,2.643,64.141,64.141,0,0,0,7.194,2.6,27.548,27.548,0,0,0,4.412,1.1c1.459.19,2.932.1,4.39.276a1.221,1.221,0,0,0,1.211-1.217,1.161,1.161,0,0,0-.131-.543,1.357,1.357,0,0,0-1.08-.674c-1.311-.155-2.637-.078-3.949-.222a21.6,21.6,0,0,1-3.739-.929,60.266,60.266,0,0,1-7.084-2.5,28.2,28.2,0,0,1-4.476-2.643,14.94,14.94,0,0,0-2.309-1.367,5.929,5.929,0,0,0-2.847-.3,64.5,64.5,0,0,0-8.039,1.214,1.064,1.064,0,0,0-.726.573l-.277-.75-3.38-9.17c-.36-.978-.713-1.96-1.081-2.935a5.4,5.4,0,0,0-4.555-3.625c-.2-.021-.409-.034-.614-.05l-9.572-.754-1.872-.147-15.824-1.246-19.853-1.563L8.929,205.567l-4.723-.372a5.693,5.693,0,0,0-2.685.089,2.618,2.618,0,0,0-1.371,3.309c.134.41.273.818.41,1.227l1.75,5.234Zm70.15-23.8-.026.011c.061-.063.071-.069.026-.011m6.288-4.317c-.283-.011-.061-.042,0,0" transform="translate(0 -105.276)" fill="#323232"/>
    <path id="パス_4440" data-name="パス 4440" d="M210.558,283.867a1.243,1.243,0,0,0-1.49-.85c-1.027.143-2.06.265-3.084.428a10.339,10.339,0,0,1-3.832-.126,29.83,29.83,0,0,1-8.838-3.883c-.661-.4-1.319-.814-1.951-1.259a1.223,1.223,0,0,0-1.467.19l-4.563,4.033a1.233,1.233,0,0,0,0,1.721,1.2,1.2,0,0,0,.144.118,1.242,1.242,0,0,0,1.569-.118l3.809-3.367a40.9,40.9,0,0,0,5,2.831c3.233,1.552,6.893,2.923,10.521,2.251,1.1-.2,2.227-.319,3.338-.473a.949.949,0,0,0,.655-.458,1.348,1.348,0,0,0,.19-1.039" transform="translate(-95.373 -142.714)" fill="#323232"/>
    <path id="パス_4441" data-name="パス 4441" d="M199.172,70.156a1.215,1.215,0,0,0,1.712,0,1.249,1.249,0,0,0,0-1.721c-.373-.463-.769-.906-1.147-1.365a4.483,4.483,0,0,1-.289-.408c-.01-.016-.034-.059-.054-.094-.018-.058-.042-.143-.045-.14a.089.089,0,0,1,0-.027,1.748,1.748,0,0,1,.137-.279,8.592,8.592,0,0,1,.513-.694,12.757,12.757,0,0,0,1.142-1.686c1.163-2.152,1.2-5.313-1.242-6.617-1.375-.736-2.6,1.364-1.222,2.1a1.9,1.9,0,0,1,.833,2.037,6.948,6.948,0,0,1-1.55,2.865,3.221,3.221,0,0,0-.789,3.379,12.262,12.262,0,0,0,2,2.65m.186-3.678c0,.022.007.035.008.044h0c.006.045-.016-.04-.016-.092a.347.347,0,0,0,.008.048" transform="translate(-101.547 -29.246)" fill="#323232"/>
    <path id="パス_4442" data-name="パス 4442" d="M212.29,150.132a15.451,15.451,0,0,0,14.887-5.059,1.254,1.254,0,0,0,0-1.72,1.217,1.217,0,0,0-1.713,0,13.043,13.043,0,0,1-12.53,4.433c-1.521-.324-2.17,2.022-.644,2.346" transform="translate(-109.004 -73.409)" fill="#323232"/>
  </g>
</svg>
