<svg id="グループ_341" data-name="グループ 341" xmlns="http://www.w3.org/2000/svg" xmlns:xlink="http://www.w3.org/1999/xlink" width="210" height="160" viewBox="0 0 210 160">
  <defs>
    <clipPath id="clip-path">
      <rect id="長方形_190" data-name="長方形 190" width="210" height="160" fill="none"/>
    </clipPath>
  </defs>
  <g id="グループ_340" data-name="グループ 340" clip-path="url(#clip-path)">
    <path id="パス_3620" data-name="パス 3620" d="M368.07,264.1a7.654,7.654,0,0,1,.762,1.439,6.012,6.012,0,0,1,.582-1.052,5.583,5.583,0,0,1,1.821-1.6,5,5,0,0,1-2.4-2.007,5.966,5.966,0,0,1-.566.727,5.788,5.788,0,0,1-1.526,1.182,4.919,4.919,0,0,1,1.332,1.315" transform="translate(-210.913 -149.958)" fill="#fff"/>
    <path id="パス_3621" data-name="パス 3621" d="M352.854,250.892a1.276,1.276,0,0,0,0,2.551c2.345.293,4.256.621,5.073,3.082a35.157,35.157,0,0,1,1.011,5.01,1.284,1.284,0,0,0,2.458,0,35.9,35.9,0,0,1,1-5.184c.74-2.016,3.173-2.459,4.993-3.1a1.283,1.283,0,0,0-.339-2.506c-1.441-.165-3.315-.182-4.424-1.262-1.016-.99-1.074-2.708-1.162-4.035.023-.516.029-1.031.031-1.537a1.275,1.275,0,0,0-2.549,0c0,.355,0,.72,0,1.088a1.29,1.29,0,0,0-.032.379c.005.078.011.156.017.235a5.984,5.984,0,0,1-1.073,3.588c-1.2,1.5-3.217,1.608-5,1.695m6.719.251a5.973,5.973,0,0,0,.566-.726,5.005,5.005,0,0,0,2.4,2.006,5.583,5.583,0,0,0-1.821,1.6,6.023,6.023,0,0,0-.582,1.051,7.652,7.652,0,0,0-.762-1.439,4.918,4.918,0,0,0-1.332-1.314,5.8,5.8,0,0,0,1.526-1.182" transform="translate(-202.222 -139.492)" fill="#323232"/>
    <path id="パス_3622" data-name="パス 3622" d="M208.765,238.58l3.813-19.472c.216-1.1,1-3,.809-4.129-.2-1.219-1.459-1.057-2.331-1.057H157.05a18.294,18.294,0,0,0-3.131,0c-1.5.276-1.556,1.721-1.806,2.992l-1.056,5.381-5.643,28.747a1.344,1.344,0,0,1-.07.233h52.844a1.276,1.276,0,0,1,0,2.551H143.9a1.255,1.255,0,0,1-.59-.14l-10.4,4.69-6.777,3.054c-.09.04-.191.093-.3.15h63.88c.667,0,1.333.005,2-.021.219-.009,1.076-.068,1.314-.056l.185-.086a3.255,3.255,0,0,0,.328-.194c.6-.368,1.207-.714,1.81-1.071l9.395-5.559c-1.174-.275-1.02-2.357.431-2.525s1.691-3.794,1.887-4.795q.852-4.347,1.7-8.693m-4.342,9.451a1.29,1.29,0,0,1-1.229.937H149.932a1.294,1.294,0,0,1-1.229-1.615q2.919-15.343,5.839-30.685a1.29,1.29,0,0,1,1.229-.937h53.683a1.293,1.293,0,0,1,1.229,1.615l-6.261,30.685" transform="translate(-72.368 -122.919)" fill="#fff"/>
    <path id="パス_3623" data-name="パス 3623" d="M191.518,224.286l-5.354,28.133h50.687l5.74-28.133H191.518Z" transform="translate(-107.064 -128.922)" fill="#fff"/>
    <path id="パス_3624" data-name="パス 3624" d="M191.518,224.286l-5.354,28.133h50.687l5.74-28.133H191.518Z" transform="translate(-107.064 -128.922)" fill="#75bb36"/>
    <path id="パス_3625" data-name="パス 3625" d="M240.37,218.286H186.686a1.289,1.289,0,0,0-1.229.936q-2.92,15.343-5.839,30.685a1.294,1.294,0,0,0,1.229,1.615h53.262a1.29,1.29,0,0,0,1.229-.937q3.131-15.342,6.261-30.685a1.293,1.293,0,0,0-1.229-1.614m-7.3,30.685H182.383l5.354-28.134h51.074l-5.74,28.134" transform="translate(-103.283 -125.473)" fill="#323232"/>
    <path id="パス_3626" data-name="パス 3626" d="M200.378,250.8c1.74-.65,2.317-2.205,2.7-4.15q.6-3.059,1.2-6.117,1.893-9.669,3.786-19.338.721-3.686,1.443-7.372c.306-1.565.739-2.971-.3-4.427-1.719-2.4-6.466-1.561-9.006-1.561H149.1a6,6,0,0,0-3.289.534c-1.756,1.068-1.938,3.163-2.3,4.99l-6.57,33.47a1.272,1.272,0,0,0,.119.859,1.317,1.317,0,0,0-.715.11l-9.589,4.322-6.8,3.063a27.527,27.527,0,0,0-3.52,1.586,2.041,2.041,0,0,0,.926,3.826,12.744,12.744,0,0,0,1.465,0h63.4c.771,0,1.542.006,2.314,0a15.381,15.381,0,0,0,2.931-.17,3.337,3.337,0,0,0,1.646-.714c3.8-2.181,7.542-4.462,11.312-6.692a1.286,1.286,0,0,0-.056-2.217m-1.209-2.268c-1.451.168-1.606,2.25-.431,2.525l-9.394,5.559c-.6.357-1.213.7-1.81,1.071a3.205,3.205,0,0,1-.327.193l-.185.087c-.238-.012-1.095.047-1.314.056-.666.026-1.333.021-2,.021h-63.88c.1-.057.206-.109.3-.15l6.777-3.054,10.405-4.69a1.257,1.257,0,0,0,.589.14h54.285a1.276,1.276,0,0,0,0-2.551H139.335a1.407,1.407,0,0,0,.071-.233l5.643-28.747q.528-2.691,1.056-5.381c.249-1.272.3-2.716,1.806-2.992a18.289,18.289,0,0,1,3.131,0h54.006c.872,0,2.127-.162,2.331,1.057.189,1.129-.592,3.026-.808,4.129l-3.813,19.472-1.7,8.693c-.2,1-.424,4.626-1.887,4.795" transform="translate(-66.36 -119.384)" fill="#323232"/>
    <path id="パス_3627" data-name="パス 3627" d="M63.52,191.343c-.878-2.953-4.98-1.208-7.05-.771l-10.231,2.162c-1.66.351-6.055.527-6.628,2.583-.335,1.2.376,2.952.62,4.107q.025.121.051.241l23.927-5.056-.689-3.266m-7.289,3.287-8.491,1.794c-1.6.339-2.282-2.121-.678-2.46l8.491-1.794c1.6-.338,2.282,2.121.678,2.46" transform="translate(-22.73 -109.02)" fill="#fff"/>
    <path id="パス_3628" data-name="パス 3628" d="M67.552,212.268l-23.927,5.056q2.714,12.867,5.429,25.733L72.981,238q-2.715-12.867-5.429-25.733" transform="translate(-25.089 -122.014)" fill="#fff"/>
    <path id="パス_3629" data-name="パス 3629" d="M66.473,207.159l-23.927,5.056q.229,1.086.458,2.172l23.927-5.055-.458-2.172" transform="translate(-24.468 -119.077)" fill="#323232"/>
    <path id="パス_3630" data-name="パス 3630" d="M66.932,209.331q-.23-1.086-.459-2.172l-23.926,5.056q.228,1.086.458,2.172,2.714,12.867,5.429,25.733l23.927-5.055q-2.715-12.867-5.429-25.733" transform="translate(-24.469 -119.077)" fill="#75bb36"/>
    <path id="パス_3631" data-name="パス 3631" d="M63.6,192.293l-1.062-5.033a1.36,1.36,0,0,0-.108-.31c-1-2.81-3.568-3.618-6.344-3.031l-8.206,1.734-9.118,1.927c-2.445.517-4.833,1.452-5.174,4.345-.31,2.633.961,5.8,1.5,8.356l5.955,28.225c.379,1.8.537,3.788,1.961,5.112a4.965,4.965,0,0,0,4.488,1.071c3.215-.585,6.408-1.354,9.6-2.029s6.444-1.222,9.6-2.029a4.877,4.877,0,0,0,3.561-2.884c.71-1.791.035-3.706-.344-5.5L63.6,192.293M36.789,196.02c-.244-1.156-.954-2.906-.619-4.107.573-2.056,4.967-2.232,6.628-2.583l10.231-2.162c2.07-.438,6.172-2.182,7.05.771l.689,3.266L36.839,196.26q-.025-.121-.051-.241m1.035,4.9q-.229-1.086-.458-2.172L61.292,193.7q.229,1.086.458,2.172L67.18,221.6l-23.927,5.055-5.429-25.734M67,227.849a6.6,6.6,0,0,1-1.952.526L56.418,230.2l-8.634,1.824a4.67,4.67,0,0,1-2.171.212c-1.276-.352-1.65-1.77-1.88-3.077l24.013-5.074c.344,1.385.614,2.955-.74,3.763" transform="translate(-19.288 -105.615)" fill="#323232"/>
    <path id="パス_3632" data-name="パス 3632" d="M57.531,283.7c.23,1.307.6,2.725,1.88,3.077a4.668,4.668,0,0,0,2.171-.212l8.635-1.824,8.634-1.824a6.6,6.6,0,0,0,1.952-.526c1.355-.808,1.084-2.379.74-3.763L57.531,283.7" transform="translate(-33.086 -160.16)" fill="#fff"/>
    <path id="パス_3633" data-name="パス 3633" d="M64.517,195.519l-8.491,1.794c-1.6.339-.925,2.8.678,2.46l8.491-1.794c1.6-.339.925-2.8-.678-2.46" transform="translate(-31.694 -112.368)" fill="#323232"/>
    <path id="パス_3634" data-name="パス 3634" d="M289.39,107.223a4.974,4.974,0,0,0,2.39-.742A4.33,4.33,0,0,0,293.6,102.8a4.378,4.378,0,0,0-3.837-4c-5.637-.178-6.055,8.138-.378,8.426" transform="translate(-164.095 -56.788)" fill="#fff"/>
    <path id="パス_3635" data-name="パス 3635" d="M303.761,94.457h2.914a9.7,9.7,0,0,0-7.739-7.953v2.919a6.778,6.778,0,0,1,4.825,5.034" transform="translate(-171.919 -49.723)" fill="#fff"/>
    <path id="パス_3636" data-name="パス 3636" d="M286.312,104.241l-1.771-2.288a7.779,7.779,0,0,1-2.332.562,1.347,1.347,0,0,1-.341.028,1.29,1.29,0,0,1-.387-.037,6.743,6.743,0,0,1-.441-13.427V86.213a9.584,9.584,0,1,0,5.271,18.028" transform="translate(-156.574 -49.556)" fill="#75bb36"/>
    <path id="パス_3637" data-name="パス 3637" d="M285.422,102.2a12.58,12.58,0,0,0,5.179-9.956l-.005-.2a12.161,12.161,0,1,0-23.974,3.078c1.986,8.31,11.852,11.76,18.8,7.082m-.447-2.914-1.777-2.3a6.843,6.843,0,0,0,1.916-3.674h2.856a9.762,9.762,0,0,1-3,5.971M280.16,82.811a9.7,9.7,0,0,1,7.739,7.953h-2.914a6.778,6.778,0,0,0-4.825-5.034Zm2.493,9.228a4.33,4.33,0,0,1-1.825,3.684,4.98,4.98,0,0,1-2.39.743c-5.677-.288-5.259-8.6.378-8.426a4.378,4.378,0,0,1,3.837,4m-5.043-9.352v2.866a6.743,6.743,0,0,0,.441,13.427,1.286,1.286,0,0,0,.387.037,1.347,1.347,0,0,0,.341-.028,7.782,7.782,0,0,0,2.332-.562l1.77,2.288a9.584,9.584,0,1,1-5.271-18.028" transform="translate(-153.144 -46.031)" fill="#323232"/>
    <path id="パス_3638" data-name="パス 3638" d="M306.085,114.882l1.777,2.3a9.764,9.764,0,0,0,3-5.971H308a6.845,6.845,0,0,1-1.916,3.674" transform="translate(-176.031 -63.924)" fill="#fff"/>
    <path id="パス_3639" data-name="パス 3639" d="M103.638,56.474a1.255,1.255,0,0,1,.02.62.935.935,0,0,1,.025.286A6.591,6.591,0,0,1,102.4,60.8l8.41-1.874,7.962-31.71a1.294,1.294,0,0,1,1.568-.891l4.676,1.176-4.662-20.95-3.431.764-25.443,5.67.449,1.606,11.7,41.886" transform="translate(-52.613 -3.763)" fill="#fff"/>
    <path id="パス_3640" data-name="パス 3640" d="M98.61,125.747l1.01,5.053c2.265-.705,4.876-2.047,5.485-4.268a12.462,12.462,0,0,0-6.5-.784" transform="translate(-56.711 -72.228)" fill="#75bb36"/>
    <path id="パス_3641" data-name="パス 3641" d="M32.786,59.054a65.946,65.946,0,0,1,14-1.726,25.566,25.566,0,0,1,4.8.148l-1-3.562L39.074,12.7c-10.684-3.29-22.533.12-32.632,4.138l1.134,5.223q4.643,21.375,9.287,42.749a85.092,85.092,0,0,1,15.922-5.753M18.343,39.1c6.566-2.7,14.371-4.385,21.5-3.783,1.626.137,1.635,2.689,0,2.551-6.942-.586-14.432,1.059-20.826,3.692-1.519.625-2.174-1.844-.678-2.46M43.581,49.392c-6.942-.586-14.432,1.06-20.826,3.692-1.519.625-2.174-1.844-.678-2.46,6.566-2.7,14.371-4.386,21.5-3.783,1.626.137,1.635,2.689,0,2.551M41.714,43.63c-6.942-.587-14.432,1.059-20.826,3.692-1.519.625-2.174-1.844-.678-2.46,6.566-2.7,14.371-4.385,21.5-3.783,1.626.137,1.635,2.689,0,2.551m-26.8-8.485-3.32-12.64a1.291,1.291,0,0,1,.586-1.441,37.279,37.279,0,0,1,15.21-4.343,27.445,27.445,0,0,1,7.427.74c1.249.3,2.558.416,3.042,1.7,1.452,3.833,2.16,8.12,3.184,12.105a1.035,1.035,0,0,1,.119.8,1.335,1.335,0,0,1-1.933.958c-7-3.242-16.115.5-22.747,3.012a1.283,1.283,0,0,1-1.568-.891" transform="translate(-3.705 -6.539)" fill="#fff"/>
    <path id="パス_3642" data-name="パス 3642" d="M12.9,61.2A89.832,89.832,0,0,1,27.905,55.46a60.128,60.128,0,0,1,11.366-1.913l.123.551.266,1.2q.519,2.6,1.04,5.2a1.3,1.3,0,0,0,1.568.891c.467-.105.942-.234,1.417-.384l13.821-3.08-.528,2.1L55.652,65.31h0l-.647,2.576a1.256,1.256,0,0,0,.011.679,1.122,1.122,0,0,0,.879.89c9.47,2.381,18.915,4.894,28.415,7.144,2.234.529,4.286-.035,5.049-2.451A9.819,9.819,0,0,0,89.647,73l7.778-30.974,1.7-6.784c.438-1.745.832-3.577-.933-4.81-1.215-.848-3.157-1.014-4.549-1.364l-9.326-2.345-9.147-2.3q-1.913-8.6-3.827-17.2-.7-3.154-1.4-6.309A1.3,1.3,0,0,0,68.373.033L38.185,6.76,37.64,4.811A1.162,1.162,0,0,0,36.919,4a1.466,1.466,0,0,0-.169-.077C25.059-.024,11.893,3.829.927,8.292a1.317,1.317,0,0,0-.89,1.569q4.8,22.122,9.611,44.244.688,3.168,1.377,6.336A1.29,1.29,0,0,0,12.9,61.2m30.012-2.632q-.505-2.527-1.01-5.053a12.463,12.463,0,0,1,6.5.784c-.609,2.222-3.221,3.563-5.485,4.269M85.637,74.3a5.647,5.647,0,0,1-1.394-.35L69.306,70.2,57.781,67.3l.932-3.712,25.194,6.334c1.194.3,3.321.341,3.4,1.945.048,1.006-.652,2.381-1.667,2.437M75.792,27.215l4.374,1.1,9.8,2.466a43.552,43.552,0,0,1,6,1.508c1.212.506,1.007,1.055.72,2.2q-.8,3.181-1.6,6.362L90.275,60.034l-2.14,8.523a4.573,4.573,0,0,0-1.062-.469C82.428,66.68,77.6,65.706,72.9,64.523l-13.562-3.41.956-3.809q.347-1.383.7-2.765Q64.14,41.974,67.3,29.41q.511-2.037,1.023-4.074l4.71,1.184,2.764.7M64.316,3.548l3.43-.764q2.331,10.474,4.662,20.949l-4.676-1.176a1.294,1.294,0,0,0-1.568.891Q62.182,39.3,58.2,55.158l-8.41,1.874a6.592,6.592,0,0,0,1.279-3.415.934.934,0,0,0-.025-.286,1.255,1.255,0,0,0-.02-.62l-11.7-41.887-.449-1.606,25.444-5.67M3.872,15.519,2.737,10.3c10.1-4.018,21.948-7.428,32.632-4.138L46.886,47.376l1,3.562a25.563,25.563,0,0,0-4.8-.148,65.95,65.95,0,0,0-14,1.726,85.088,85.088,0,0,0-15.922,5.753Q8.515,36.894,3.872,15.519" transform="translate(0 0)" fill="#323232"/>
    <path id="パス_3643" data-name="パス 3643" d="M161.478,88.541a1.092,1.092,0,0,1-.91,1.1L155.833,90.7,140.6,94.094l-.956,3.809,13.562,3.41c4.706,1.183,9.532,2.157,14.177,3.564a4.581,4.581,0,0,1,1.062.47l2.14-8.523L175.4,77.638l1.6-6.361c.287-1.143.492-1.693-.72-2.2a43.46,43.46,0,0,0-6-1.508l-9.8-2.466L156.1,64q2.678,12.035,5.357,24.07a1.344,1.344,0,0,1,.019.466" transform="translate(-80.31 -36.791)" fill="#fff"/>
    <path id="パス_3644" data-name="パス 3644" d="M149.84,63.66l-6.31,25.128,17.414-3.881-1.114-5L155.572,60.77l-4.71-1.184q-.512,2.037-1.023,4.074" transform="translate(-82.545 -34.251)" fill="#fff"/>
    <path id="パス_3645" data-name="パス 3645" d="M160,86.508,142.59,90.389l-.695,2.766,15.232-3.394,4.735-1.055a1.092,1.092,0,0,0,.91-1.1,1.344,1.344,0,0,0-.019-.466Q160.074,75.1,157.4,63.066l-2.764-.695,4.258,19.134,1.113,5" transform="translate(-81.604 -35.852)" fill="#323232"/>
    <path id="パス_3646" data-name="パス 3646" d="M176.28,66.539a43.52,43.52,0,0,0-6-1.508l-9.8-2.466-4.375-1.1-2.764-.695-4.71-1.184-1.023,4.074L141.3,88.788q-.347,1.383-.694,2.766l-.956,3.809,13.562,3.41c4.706,1.183,9.532,2.157,14.177,3.565a4.581,4.581,0,0,1,1.062.469l2.14-8.523q2.409-9.593,4.817-19.186l1.6-6.362c.287-1.143.492-1.693-.72-2.2" transform="translate(-80.31 -34.251)" fill="#75bb36"/>
    <path id="パス_3647" data-name="パス 3647" d="M162.115,155.884l-25.194-6.335-.932,3.712,11.524,2.9,14.938,3.756a5.661,5.661,0,0,0,1.394.35c1.015-.057,1.715-1.431,1.667-2.437-.076-1.6-2.2-1.645-3.4-1.945" transform="translate(-78.208 -85.962)" fill="#fff"/>
    <path id="パス_3648" data-name="パス 3648" d="M46.19,31.094c-7.263-2.072-14.483-.666-21.206,2.535l2.7,10.262c6.461-2.43,14.2-5.065,21.033-3.193l-2.523-9.6" transform="translate(-14.368 -17.312)" fill="#fff"/>
    <path id="パス_3649" data-name="パス 3649" d="M46.143,40.225a1.334,1.334,0,0,0,1.932-.958,1.035,1.035,0,0,0-.119-.8c-1.024-3.985-1.732-8.272-3.184-12.106-.485-1.279-1.793-1.4-3.043-1.7a27.444,27.444,0,0,0-7.427-.74,37.276,37.276,0,0,0-15.21,4.343,1.291,1.291,0,0,0-.586,1.44q1.66,6.32,3.32,12.641a1.283,1.283,0,0,0,1.568.891c6.631-2.514,15.749-6.255,22.747-3.012m-22.211.094q-1.348-5.131-2.7-10.263c6.723-3.2,13.943-4.606,21.206-2.534l2.523,9.6c-6.828-1.872-14.571.763-21.033,3.193" transform="translate(-10.621 -13.739)" fill="#323232"/>
    <path id="パス_3650" data-name="パス 3650" d="M54.81,70.069c1.635.138,1.626-2.414,0-2.551-7.132-.6-14.937,1.08-21.5,3.783-1.5.616-.841,3.085.678,2.46,6.394-2.632,13.883-4.278,20.826-3.692" transform="translate(-18.669 -38.74)" fill="#323232"/>
    <path id="パス_3651" data-name="パス 3651" d="M37.7,84.853c-1.5.616-.841,3.085.677,2.46,6.394-2.633,13.884-4.279,20.826-3.692,1.635.138,1.626-2.414,0-2.551-7.132-.6-14.937,1.08-21.5,3.783" transform="translate(-21.196 -46.529)" fill="#323232"/>
    <path id="パス_3652" data-name="パス 3652" d="M42.1,98.4c-1.5.616-.841,3.085.678,2.46,6.394-2.633,13.884-4.279,20.826-3.692,1.635.138,1.626-2.414,0-2.551-7.132-.6-14.937,1.08-21.5,3.783" transform="translate(-23.724 -54.319)" fill="#323232"/>
    <path id="パス_3653" data-name="パス 3653" d="M413.127,140.445c-.013-.028.037-.1.132-.2-.11.043-.178.105-.132.2" transform="translate(-237.583 -80.613)" fill="#fff"/>
    <path id="パス_3654" data-name="パス 3654" d="M376.261,148.127a1,1,0,0,1,.108,0c0-.04-.044-.034-.108,0" transform="translate(-216.389 -85.131)" fill="#fff"/>
    <rect id="長方形_186" data-name="長方形 186" width="2.133" height="12.637" transform="translate(184.032 60.253)" fill="#75bb36"/>
    <path id="パス_3655" data-name="パス 3655" d="M428.4,135.709a1.294,1.294,0,0,0-1.275,1.276v15.189a1.177,1.177,0,0,0,.341.863c.013.015.027.028.041.043s.016.016.025.023a1.176,1.176,0,0,0,.868.346h4.683a1.294,1.294,0,0,0,1.275-1.276V136.985a1.293,1.293,0,0,0-1.275-1.276ZM431.8,150.9h-2.133V138.26H431.8Z" transform="translate(-245.64 -78.007)" fill="#323232"/>
    <rect id="長方形_187" data-name="長方形 187" width="2.133" height="7.575" transform="translate(175.521 65.316)" fill="#fff"/>
    <path id="パス_3656" data-name="パス 3656" d="M408.367,147.616a1.294,1.294,0,0,0-1.275,1.276v10.126a1.178,1.178,0,0,0,.341.863c.013.015.028.029.041.043s.016.016.025.023a1.176,1.176,0,0,0,.868.346h4.683a1.294,1.294,0,0,0,1.275-1.276V148.892a1.294,1.294,0,0,0-1.275-1.276Zm3.408,10.126h-2.133v-7.575h2.133Z" transform="translate(-234.12 -84.851)" fill="#323232"/>
    <rect id="長方形_188" data-name="長方形 188" width="2.133" height="7.575" transform="translate(167.01 65.316)" fill="#fff"/>
    <path id="パス_3657" data-name="パス 3657" d="M388.337,147.616a1.294,1.294,0,0,0-1.275,1.276v10.126a1.178,1.178,0,0,0,.341.863c.013.015.028.029.041.043l.025.023a1.176,1.176,0,0,0,.868.346h4.683a1.294,1.294,0,0,0,1.275-1.276V148.892a1.294,1.294,0,0,0-1.275-1.276Zm3.408,10.126h-2.133v-7.575h2.133Z" transform="translate(-222.601 -84.851)" fill="#323232"/>
    <rect id="長方形_189" data-name="長方形 189" width="2.133" height="4.199" transform="translate(158.5 68.691)" fill="#fff"/>
    <path id="パス_3658" data-name="パス 3658" d="M368.307,155.555a1.294,1.294,0,0,0-1.275,1.276v6.75a1.178,1.178,0,0,0,.341.863c.013.015.028.029.041.043l.025.023a1.176,1.176,0,0,0,.868.346h4.683a1.294,1.294,0,0,0,1.275-1.276v-6.75a1.294,1.294,0,0,0-1.275-1.276Zm3.409,6.75h-2.133v-4.2h2.133Z" transform="translate(-211.082 -89.415)" fill="#323232"/>
    <path id="パス_3659" data-name="パス 3659" d="M384.6,127.176c-.6-.061-1.232,0-1.832,0h-5.237c-1.325,0-2.68-.082-4,0a3.323,3.323,0,0,0-2.078,1.031l-2.3,1.879c-.241.2-.538.39-.767.614-1.031-.006-3.723.008-4.079.008a1.276,1.276,0,0,0,0,2.551c1.391,0,2.841.121,4.226,0a4.717,4.717,0,0,0,2.576-1.493l2.016-1.65c.1-.079.261-.182.412-.291a28.57,28.57,0,0,0,3.2-.1h5.308a19.537,19.537,0,0,0,3.178,0,4.263,4.263,0,0,0,1.9-1.177l3.494-2.859,7.07-5.786c1.271-1.04-.542-2.836-1.8-1.8l-5.61,4.591c-.383.313-4.5,3.405-5.635,4.488l-.04,0M368.675,130.7c.064-.03.107-.036.108,0a1,1,0,0,0-.108,0m15.672-3.164c-.045-.1.023-.159.132-.2-.1.1-.145.174-.132.2" transform="translate(-208.804 -67.708)" fill="#323232"/>
    <path id="パス_3660" data-name="パス 3660" d="M392.644,141.532q-18.682-.04-37.363-.071-.015-15.223-.024-30.446a1.275,1.275,0,0,0-2.549,0q.015,15.86.025,31.719a1.294,1.294,0,0,0,1.275,1.276q19.319.041,38.637.074a1.276,1.276,0,0,0,0-2.551" transform="translate(-202.844 -63.104)" fill="#323232"/>
    <path id="パス_3661" data-name="パス 3661" d="M355.479,348.825l-3.9-3.671c-1.494-1.406-2.956-3.043-4.53-4.442a15.587,15.587,0,0,1-2.912,2.682c.127.1.249.2.351.3l7.2,6.774c.809.761,1.588,1.64,2.467,2.321,1.222.947,2.005-.064,2.905-.981.8-1.284-.692-2.149-1.578-2.983" transform="translate(-197.914 -195.845)" fill="#fff"/>
    <path id="パス_3662" data-name="パス 3662" d="M321.468,310.238c-2.089-1.966-4.124-4.039-6.26-5.968a15.541,15.541,0,1,0-17.179,7.215,15.578,15.578,0,0,0,10.5-1.119c2.423,2.481,5.138,4.751,7.655,7.118,1.056.993,2.078,2.052,3.181,2.993,2.407,2.053,4.475.463,6.3-1.358a1.36,1.36,0,0,0,.206-.268c2.624-3.466-2.2-6.544-4.4-8.613m-28.86-4.653a13.006,13.006,0,1,1,18.387,0,13.133,13.133,0,0,1-18.387,0m31.165,11.821c-.9.918-1.683,1.929-2.905.982-.879-.681-1.658-1.56-2.467-2.321l-7.2-6.774c-.1-.1-.223-.2-.351-.3a15.585,15.585,0,0,0,2.912-2.683c1.575,1.4,3.036,3.037,4.53,4.443l3.9,3.67c.886.834,2.379,1.7,1.578,2.983" transform="translate(-164.63 -161.442)" fill="#323232"/>
    <path id="パス_3663" data-name="パス 3663" d="M314.5,290.661a13.006,13.006,0,1,0,0,18.4,13.138,13.138,0,0,0,0-18.4m-16.139,19.188c-9.105-6.371-5.212-20.984,5.793-22.09a12.212,12.212,0,0,1,12.163,6.953,12.158,12.158,0,0,1-17.956,15.137" transform="translate(-168.131 -164.918)" fill="#fff"/>
    <path id="パス_3664" data-name="パス 3664" d="M317.582,295.784a12.212,12.212,0,0,0-12.163-6.953c-11.006,1.106-14.9,15.719-5.793,22.09a12.158,12.158,0,0,0,17.956-15.137m-4.213,11.951a10.03,10.03,0,0,1-7.592,2.737,9.621,9.621,0,0,1-6-2.737,9.728,9.728,0,0,1,0-13.605,9.52,9.52,0,0,1,1.512-1.232c.085-.056.175-.1.262-.153.177-.108.354-.219.537-.314a9.544,9.544,0,0,1,2.54-.885c.034-.007.068-.018.1-.024s.075-.009.112-.016a9.625,9.625,0,0,1,8.531,16.23" transform="translate(-169.399 -165.99)" fill="#323232"/>
    <path id="パス_3665" data-name="パス 3665" d="M322.833,313.753l-4.694,4.7a1.276,1.276,0,0,0,1.8,1.8l4.694-4.7a1.276,1.276,0,0,0-1.8-1.8" transform="translate(-182.748 -180.133)" fill="#75bb36"/>
    <path id="パス_3666" data-name="パス 3666" d="M419.411,20.833l5.35,2.988,5.71-6.184V11.791l-13.394,7.738,2.334,1.3" transform="translate(-239.863 -6.778)" fill="#fff"/>
    <path id="パス_3667" data-name="パス 3667" d="M416.909,48.742l4.677-9.361-7.827-4.371V50.686l2.557-1.579.593-.366" transform="translate(-237.955 -20.124)" fill="#fff"/>
    <path id="パス_3668" data-name="パス 3668" d="M454.6,12.641V18l7.629,4.408,4.485-2.768-12.115-7" transform="translate(-261.442 -7.266)" fill="#fff"/>
    <path id="パス_3669" data-name="パス 3669" d="M430.575,78l-10.8-4.881-2.517,1.554,13.316,7.693V78Z" transform="translate(-239.967 -42.027)" fill="#fff"/>
    <path id="パス_3670" data-name="パス 3670" d="M478.482,35.233l-1.154.712,2.1,11.333,2.425,1.354V33.156l-3.366,2.077" transform="translate(-274.513 -19.058)" fill="#fff"/>
    <path id="パス_3671" data-name="パス 3671" d="M465.3,71.858l-10.7,5.354v4.067l13.55-7.829-2.85-1.592" transform="translate(-261.442 -41.305)" fill="#fff"/>
    <path id="パス_3672" data-name="パス 3672" d="M444.388,30.256V15.178a1.283,1.283,0,0,0-.631-1.1L428.489,5.256c-.332-.192-.686-.444-1.047-.662a1.33,1.33,0,0,0-1.35-.477,3.284,3.284,0,0,0-1.607.661l-8.669,5.009-7.427,4.291a1.21,1.21,0,0,0-.518.556l0,.007a1.1,1.1,0,0,0-.052.16,1.332,1.332,0,0,0-.057.378v19.69a1.283,1.283,0,0,0,.631,1.1l11.39,6.581c1.751,1.012,3.479,2.171,5.3,3.06,1.155.565,1.746.144,2.771-.448l13.646-7.884c1.038-.6,2.66-1.125,2.895-2.421a27.168,27.168,0,0,0,0-4.6M411.8,34.99l2.517-1.553,10.8-6.666V42.684L411.8,34.99m23.5-17.5L427.661,22.2V7.724l12.114,7-4.485,2.768m-10.178-4.283v9.373l-5.71-3.189-5.35-2.988-2.334-1.3,13.394-7.738Zm-14.8,4.027,7.827,4.371,5.506,3.075-10.184,6.286-.593.366-2.557,1.579Zm17.353,21.021V26.926l10.056,5.616.644.36,2.85,1.591-13.55,7.829Zm11.753-7.687-10.738-6,8.643-5.335,1.154-.712,3.366-2.077V31.923l-2.425-1.354" transform="translate(-234.504 -2.349)" fill="#323232"/>
    <path id="パス_3673" data-name="パス 3673" d="M433.982,57.438l-10.8,6.666,10.8,4.88Z" transform="translate(-243.374 -33.016)" fill="#75bb36"/>
    <path id="パス_3674" data-name="パス 3674" d="M431.356,48.366l-5.506-3.075-4.677,9.361,10.183-6.286" transform="translate(-242.218 -26.034)" fill="#75bb36"/>
    <path id="パス_3675" data-name="パス 3675" d="M440.871,34.912V25.539l-5.71,6.184,5.71,3.189" transform="translate(-250.263 -14.68)" fill="#75bb36"/>
    <path id="パス_3676" data-name="パス 3676" d="M454.6,34.363l7.629-4.709L454.6,25.246Z" transform="translate(-261.442 -14.512)" fill="#75bb36"/>
    <path id="パス_3677" data-name="パス 3677" d="M464.655,63.419,454.6,57.8v11.33l10.7-5.354-.644-.36" transform="translate(-261.442 -33.226)" fill="#75bb36"/>
    <path id="パス_3678" data-name="パス 3678" d="M456.987,45.052l10.738,6-2.1-11.332-8.643,5.335" transform="translate(-262.815 -22.83)" fill="#75bb36"/>
  </g>
</svg>
