<svg id="グループ_332" data-name="グループ 332" xmlns="http://www.w3.org/2000/svg" xmlns:xlink="http://www.w3.org/1999/xlink" width="118" height="160" viewBox="0 0 118 160">
  <defs>
    <clipPath id="clip-path">
      <rect id="長方形_182" data-name="長方形 182" width="118" height="160" fill="none"/>
    </clipPath>
  </defs>
  <g id="グループ_331" data-name="グループ 331" clip-path="url(#clip-path)">
    <path id="パス_3457" data-name="パス 3457" d="M315.215,262.117a.145.145,0,0,0,.05-.009h-.051a.007.007,0,0,0,0,.007l.006,0" transform="translate(-204.808 -169.788)" fill="#75bb36"/>
    <path id="パス_3458" data-name="パス 3458" d="M314.239,261.709l0-.006h0l0,.006" transform="translate(-204.175 -169.526)" fill="#75bb36"/>
    <path id="パス_3459" data-name="パス 3459" d="M314.335,261.771c.046.052.05.044.037.02l-.045-.029.008.009" transform="translate(-204.235 -169.564)" fill="#75bb36"/>
    <path id="パス_3460" data-name="パス 3460" d="M314.168,261.645a.033.033,0,0,0-.016,0l.029.018,0-.008-.008-.012" transform="translate(-204.121 -169.488)" fill="#75bb36"/>
    <path id="パス_3461" data-name="パス 3461" d="M162.683,150.234c.048.239.1.478.159.714.074.276.16.549.26.818.021.058.045.114.067.172h0c.058.11.1.225.161.336a5.387,5.387,0,0,0,.331.559c.018.027.038.054.057.081.05.056.1.117.149.173s.133.137.2.2l.014.012a.372.372,0,0,1,.1.08c.092.055.213.119.26.145l.024.006.179.049h0c.054,0,.109.007.163.006.016,0,.064-.007.1-.011s.064-.013.095-.021c.058-.015.126-.048.187-.061l.018-.009c.026-.014.244-.139.366-.217l.007-.007c.033-.031.069-.059.1-.089q.106-.095.2-.2c.123-.125.234-.259.344-.394.032-.044.1-.134.122-.168q.1-.145.189-.293c.139-.227.267-.461.385-.7q.089-.181.172-.366c.006-.012.029-.064.045-.1l.046-.113c.061-.154.11-.313.165-.469l-4.684-.137" transform="translate(-105.704 -97.318)" fill="#fff"/>
    <path id="パス_3462" data-name="パス 3462" d="M271.679,217.592c-.088.1-.031.039,0,0" transform="translate(-176.494 -140.951)" fill="#75bb36"/>
    <path id="パス_3463" data-name="パス 3463" d="M314.208,261.657l0,.008.032.021-.039-.042H314.2l.008.012" transform="translate(-204.152 -169.487)" fill="#75bb36"/>
    <path id="パス_3464" data-name="パス 3464" d="M313.893,259.6v.025a.334.334,0,0,0,.028-.067c.008-.056-.023-.07-.027.043" transform="translate(-203.952 -168.111)" fill="#75bb36"/>
    <path id="パス_3465" data-name="パス 3465" d="M313.859,259.859a.155.155,0,0,0,.011-.023v0a.268.268,0,0,1-.012.027" transform="translate(-203.931 -168.314)" fill="#75bb36"/>
    <path id="パス_3466" data-name="パス 3466" d="M315.384,262.095c.106,0,.062-.005.008-.007l-.024.007h.016" transform="translate(-204.911 -169.775)" fill="#75bb36"/>
    <path id="パス_3467" data-name="パス 3467" d="M256.909,201.534l.007,0c.061-.144-.081,0-.007,0" transform="translate(-166.913 -130.509)" fill="#75bb36"/>
    <path id="パス_3468" data-name="パス 3468" d="M166.9,159.125c.052.048.045.037.02.011l-.025-.015,0,0" transform="translate(-108.441 -103.075)" fill="#75bb36"/>
    <path id="パス_3469" data-name="パス 3469" d="M171.052,158.665a.368.368,0,0,0-.076.059c.047-.03.08-.054.076-.059" transform="translate(-111.092 -102.78)" fill="#75bb36"/>
    <path id="パス_3470" data-name="パス 3470" d="M166.654,158.936c0,.007.033.033.084.064-.024-.022-.049-.043-.074-.064,0,0-.009,0-.01,0" transform="translate(-108.284 -102.954)" fill="#75bb36"/>
    <path id="パス_3471" data-name="パス 3471" d="M278.035,218.275v0c0-.024-.008-.049,0,0" transform="translate(-180.651 -141.374)" fill="#75bb36"/>
    <path id="パス_3472" data-name="パス 3472" d="M158.847,86.979a.256.256,0,0,1-.028,0l.028,0" transform="translate(-103.193 -56.342)" fill="#75bb36"/>
    <path id="パス_3473" data-name="パス 3473" d="M158.478,86.926h0" transform="translate(-102.951 -56.305)" fill="#75bb36"/>
    <path id="パス_3474" data-name="パス 3474" d="M226.39,247.506a12.22,12.22,0,0,1-1.654,1.507l-7.355,5.905a42.555,42.555,0,0,0-3.453,2.811c-.2.2-.5.4-.246.549.31.186.891-.156,1.167-.3,2.781-1.471,5.5-3.088,8.238-4.631a7.115,7.115,0,0,1,2.585-1.019l.719-4.821" transform="translate(-138.777 -160.329)" fill="#75bb36"/>
    <path id="パス_3475" data-name="パス 3475" d="M218.219,213.987q.345-2.315.69-4.63.481-3.221.96-6.442c.036-.236.07-.472.105-.707,0-.02.006-.041.009-.061-.012.049-.015-.051-.008-.137-.273.027-.549.039-.822.058L204.5,203.109c-.279.02-.558.043-.837.06l-.068,0a.754.754,0,0,0-.185.149,3.444,3.444,0,0,0-.415,1.539q-.56,3.316-1.121,6.632-.9,5.3-1.792,10.6,5.21-3.438,10.421-6.874c1.818-1.2,4.35-3.433,6.664-2.252a2.56,2.56,0,0,1,1.055,1.015" transform="translate(-130.002 -130.858)" fill="#75bb36"/>
    <path id="パス_3476" data-name="パス 3476" d="M273,216.563c-.058.022-.071.035,0,0" transform="translate(-177.352 -140.285)" fill="#75bb36"/>
    <path id="パス_3477" data-name="パス 3477" d="M283.437,230.9a.6.6,0,0,1,.109-.172l.008-.007.009-.026c-.08.008-.493.207-.127.206" transform="translate(-184.067 -149.441)" fill="#75bb36"/>
    <path id="パス_3478" data-name="パス 3478" d="M314.449,257.545c.025-.065.047-.139,0,0v0" transform="translate(-204.314 -166.781)" fill="#75bb36"/>
    <path id="パス_3479" data-name="パス 3479" d="M303.658,255.485s.013.01.02.016l-.008-.011a.026.026,0,0,0-.012,0" transform="translate(-197.303 -165.498)" fill="#75bb36"/>
    <path id="パス_3480" data-name="パス 3480" d="M314.38,257.793a.115.115,0,0,1-.016.029s.009-.013.016-.029" transform="translate(-204.259 -166.993)" fill="#75bb36"/>
    <path id="パス_3481" data-name="パス 3481" d="M313.85,260.6a.067.067,0,0,0-.006-.021.15.15,0,0,1,.006.021" transform="translate(-203.921 -168.799)" fill="#75bb36"/>
    <path id="パス_3482" data-name="パス 3482" d="M288.725,202.817a1.254,1.254,0,0,1-.041-.28,1.709,1.709,0,0,0-.948-1.511,1.531,1.531,0,0,0-1.545.061c-.11.141-.223.28-.344.413-.009.01-.02.017-.029.026q-.68.655-1.326,1.343c-.288.307-.572.62-.839.945l-.116.144-.039.048c-.025.039-.047.078-.055.09a4.023,4.023,0,0,0-.262.458c-.006.012-.032.074-.053.119-.026.074-.053.148-.076.224-.033.108-.044.31-.085.445a.219.219,0,0,1-.028.071c0,.038,0,.076-.006.114,0,.07,0,.139,0,.208,0,.027.007.055.01.07s.016.086.029.14c.009.01.02.026.034.046s.015.025.023.037l.017.018a.152.152,0,0,1,.084.071l.015.01.053.031a1.322,1.322,0,0,1,.177.052h.025a.2.2,0,0,1,.076-.008c.061-.018.13-.042.163-.053s.09-.045.133-.069c.117-.064.229-.136.339-.211.029-.02.168-.126.2-.147l.049-.041c.048-.04.1-.081.143-.122q.124-.107.244-.217c.33-.3.645-.615.988-.9a1.166,1.166,0,0,1,1.61,0,1.154,1.154,0,0,1,0,1.619c-1.011.837-1.889,1.937-3.191,2.326a2.716,2.716,0,0,1-1.86-.138,1.027,1.027,0,0,1-.295.256q-1,.557-1.948,1.2-.462.317-.908.655l-.153.117-.129.1q-.208.166-.411.336a24.733,24.733,0,0,0-3.168,3.19,1.147,1.147,0,0,1-1.61,0,1.175,1.175,0,0,1,0-1.619,25.376,25.376,0,0,1,6.993-5.854,3.362,3.362,0,0,1-1.533-.2,3.491,3.491,0,0,1-2.225-3.537,2.784,2.784,0,0,1-.969-.234,3.7,3.7,0,0,1-1.988-2.064c-.624-1.763.353-3.48,1.35-4.856.955-1.319,2.075-2.868,3.613-3.528a3.469,3.469,0,0,1,.521-.173l2.968-7.179q1.42-3.436,2.84-6.872a2.02,2.02,0,0,0,.209-1.469,2.7,2.7,0,0,1-.126-.243c-.025-.027-.092-.108-.111-.124-.042-.037-.048-.047-.04-.045l-.073-.048a1.677,1.677,0,0,1-.22-.123.879.879,0,0,0-.952.02,5.387,5.387,0,0,0-1.241,2.184c-.273.619-.556,1.233-.839,1.847-1.7,3.68-3.451,7.336-5.13,11.025-.383.841-.763,1.684-1.133,2.531q-.127.29-.251.58l-.169.4c-.112.268-.222.536-.328.807a8.507,8.507,0,0,1-.7,1.485l-1.027,1.641a1.148,1.148,0,0,1-2.121-.578q-.227-2.654-.454-5.308c-.049-.573-.088-1.148-.147-1.72-.007-.025-.02-.074-.032-.121-.007-.009-.044-.106-.075-.168-.011-.021-.017-.035-.022-.048a.2.2,0,0,1-.032-.025c-.022-.021-.1-.094-.145-.135s-.149-.1-.172-.112-.075-.039-.111-.058c-.08-.027-.159-.054-.241-.075-.056-.015-.113-.026-.17-.037-.1-.005-.2-.007-.3-.008-.036,0-.072,0-.108.007h0c-.091.022-.18.047-.27.07-.02.005-.036.012-.053.017a.871.871,0,0,0-.106.056c-.043.029-.165.119-.178.123-.056.051-.111.1-.162.158l-.018.02a1.255,1.255,0,0,0-.085.135,2.019,2.019,0,0,0-.247.692c-.061.3-.082.714-.115,1.081q-.114,1.273-.186,2.549c-.177,3.1-.34,6.166-.821,9.242s-1.064,6.551.777,9.31a1.137,1.137,0,0,1,.163.377,1.305,1.305,0,0,1,.619,1.019q.043.456.085.914.294,3.173.587,6.347a1.154,1.154,0,0,1-1.138,1.145.973.973,0,0,1-.424-.076v1.152a4.62,4.62,0,0,0,.35.378c.09.086.185.168.28.248l.027.021.136.1c.206.138.412.273.628.395a10.93,10.93,0,0,0,3.437,1.163,21.185,21.185,0,0,0,9.775-.778l-.083-.487a1.2,1.2,0,0,1-.69.25,1.18,1.18,0,0,1-1.138-1.145q-.182-1.382-.365-2.764a2.057,2.057,0,0,1,.219-1.39q2.485-4.5,4.857-9.063c.963-1.86,1.915-3.729,2.792-5.631.172-.372.34-.745.5-1.121.03-.07.081-.192.082-.193l.054-.132c.059-.146.117-.293.172-.441.089-.237.175-.476.241-.721.017-.064.029-.136.044-.205v0c0-.025,0-.046,0-.07" transform="translate(-172.998 -113.891)" fill="#fff"/>
    <path id="パス_3483" data-name="パス 3483" d="M145.576,267.905a24.045,24.045,0,0,0,3.032,7.341,13.805,13.805,0,0,0,3.115,3.046,6.729,6.729,0,0,0,2.26,1.231,1.322,1.322,0,0,1,.242-.407l3.65-4.183L160,272.5c.329-.377.641-.8,1-1.148a5.082,5.082,0,0,1,1.576-.712q1.531-.6,3.048-1.244a69.1,69.1,0,0,0,7.768-3.743,16.94,16.94,0,0,0,3.307-2.417,3.31,3.31,0,0,0,1.19-2.566c-.672.516-1.344,1.032-2.051,1.5-1.044.7-2.118,1.348-3.184,2.012-1.25.779-2.392-1.2-1.149-1.977a57.719,57.719,0,0,0,5.6-3.765c.479-.383.965-.75,1.466-1.1a4.6,4.6,0,0,0,1.088-.948,2.073,2.073,0,0,0,.363-.973,1.033,1.033,0,0,0-.053-.521.708.708,0,0,0-.132-.236q-.844.607-1.7,1.192a76.743,76.743,0,0,1-7.629,4.552c-1.3.678-2.45-1.3-1.149-1.977a76.669,76.669,0,0,0,8.153-4.911,31.252,31.252,0,0,0,3.529-2.632,2.419,2.419,0,0,0,.813-1.181c.048-.3,0-.662-.246-.75-.41-.149-1,.213-1.351.4-.652.35-1.291.726-1.937,1.088l-3.752,2.111a33.539,33.539,0,0,1-3.9,2.112,2.9,2.9,0,0,1-3.53-.84,2.706,2.706,0,0,1,.778-3.5c1.04-.959,2.217-1.8,3.32-2.684l7-5.624c.76-.611,2.087-1.37,2.317-2.406.207-.933-.512-.938-1.188-.717a12.17,12.17,0,0,0-2.749,1.636q-1.514,1-3.031,2c-4.11,2.711-8.23,5.406-12.328,8.136-1.226.817-2.365-1.167-1.149-1.977.564-.375,1.13-.746,1.694-1.12a1.5,1.5,0,0,1,.009-.447l.052-.308q.293-1.736.587-3.472a29.518,29.518,0,0,0-3.3,3.136,22.02,22.02,0,0,0-2.87,5.264,37.564,37.564,0,0,0-2.512,6.065,8.255,8.255,0,0,1-1.51,3.114c-.653.822-1.358,1.6-2.019,2.418q-.556.685-1.1,1.379l-.023.032c-.013.018-.027.036-.039.055a1.209,1.209,0,0,1-2.11-.258l-1.93,2.07a1.143,1.143,0,0,1,.537,1.281" transform="translate(-94.24 -154.675)" fill="#fff"/>
    <path id="パス_3484" data-name="パス 3484" d="M32.041,182.289a6.851,6.851,0,0,1-1.464,1.173c-4.3,3.023-8.925,5.6-13.378,8.389a29.229,29.229,0,0,0-5.561,4.085A17.532,17.532,0,0,0,6.585,208.8c.014.526.057,1.047.106,1.571l0,.006c.121.392.208.8.321,1.194.481,1.684.993,3.359,1.5,5.035q2.2,7.214,4.455,14.408c.794,2.544,1.53,5.117,2.391,7.639,1.079,3.162,2.36,6.271,3.6,9.371,1.039,2.6,1.995,4.914,3.116,7.445.96,2.167,1.949,4.335,3.118,6.4.213.377.434.749.668,1.113.11.171.223.34.34.505.044.062.092.123.136.186l.008.009a15.209,15.209,0,0,0,3.49,2.744,13.3,13.3,0,0,0,5.175,1.988,10.983,10.983,0,0,0,5.458-.75,15.8,15.8,0,0,0,2.861-1.528,7.018,7.018,0,0,0,.851-.582c.025-.027.044-.059.068-.086.335-.388.638-.81.955-1.213l4.025-5.114,1.528-1.941h0l5.079-6.454a.984.984,0,0,1,.929-.316l.934-1.8a1.151,1.151,0,0,1-.237-1.439c2.1-3.161,4.393-6.206,6.756-9.181a7.424,7.424,0,0,1-3.154-1.3,17.166,17.166,0,0,1-4.054-3.724,19.331,19.331,0,0,1-2.332-4.505c-.331-.84-.626-1.695-.891-2.559l-.809.764-10.136,9.566-6.357,6c-1.068,1.008-2.68-.608-1.61-1.618l2.331-2.2,10.136-9.566,5.971-5.635a1.228,1.228,0,0,1,.993-.669,1.127,1.127,0,0,1,.767.176l1.93-2.07a.972.972,0,0,1,.144-.9c.539-.8,1.2-1.531,1.8-2.275a27.7,27.7,0,0,0,2.021-2.481,14.834,14.834,0,0,0,1.084-3.081c.768-2.157,1.826-4.19,2.789-6.262a27.537,27.537,0,0,1,1.346-2.832,14.6,14.6,0,0,1,1.82-2.335,58.368,58.368,0,0,1,4.919-4.376,1.5,1.5,0,0,1,.138-.1l1.3-7.685c.275-1.628.511-3.269.824-4.89a1.55,1.55,0,0,1-.532-.146l-1.628-.731a1.207,1.207,0,0,1-.512,1.316.848.848,0,0,1-.125.28l-.6.848L67.6,190.9a1.182,1.182,0,0,1-.983.567,1.117,1.117,0,0,1-.983-.567l-.373-.831-2.6-5.8a1.176,1.176,0,0,1,.408-1.566,1.144,1.144,0,0,1,1.558.411l.373.831,1.841,4.105,3.587-5.04a1.467,1.467,0,0,1,.121-.145l-.013-.019-2.363-3.6a25.05,25.05,0,0,1-4.155,2.925,1.159,1.159,0,0,1-1.558-.411,1.1,1.1,0,0,1-.1-.909l-1.2-.091a1.235,1.235,0,0,1-.124.8,1.173,1.173,0,0,1-1.558.411c-.672-.289-1.341-.588-2.009-.888-3.309-1.486-6.588-3.043-9.815-4.7a76.023,76.023,0,0,1-9.255-5.362c-.969,2.924-1.856,5.876-2.838,8.8l.453.235a1.111,1.111,0,0,1,.145-.422,1.142,1.142,0,0,1,1.558-.411c1.566,1.175,3.218,2.232,4.882,3.259,4.636,2.861,9.417,5.5,14.244,8.03l2.71-7.322a1.139,1.139,0,1,1,2.2.609l-3.195,8.632a1.157,1.157,0,0,1-1.672.684q-.924-.479-1.841-.969-4.523-2.4-8.97-4.944a92.287,92.287,0,0,1-9.5-6,1.259,1.259,0,0,1-.553-1.145l-.453-.235c-.068.2-.132.405-.2.607a1.16,1.16,0,0,1-1.4.8,1.2,1.2,0,0,1-.809-.861l-.84.752a1.287,1.287,0,0,1-.268,1.174m12.4,57.761a1.148,1.148,0,0,1,1.558.41,12.489,12.489,0,0,0,2.922,3.806q.237.214.484.418c.062.052.126.1.189.153l.175.133q.49.363,1.01.682t1.065.591c.191.1.383.185.578.272l.045.02.057.023q.162.064.324.127a1.177,1.177,0,0,1,.8,1.408,1.142,1.142,0,0,1-1.4.8,15.379,15.379,0,0,1-8.21-7.277,1.17,1.17,0,0,1,.408-1.566m-8.874-3.209-1.13-.074-7.849-.513a1.145,1.145,0,0,1,0-2.289l1.13.074,7.849.514a1.145,1.145,0,0,1,0,2.289m-.974-23.532a57.149,57.149,0,0,1,3.076,7.155c1.317,3.484,2.6,6.981,3.971,10.442a1.153,1.153,0,0,1-.795,1.408,1.173,1.173,0,0,1-1.4-.8c-1.487-3.744-2.854-7.533-4.3-11.3a41.151,41.151,0,0,0-2.886-6.4c-.238-.4-.49-.8-.761-1.182-.075-.106-.151-.21-.228-.313l-.013-.017-.1-.129c-.164-.2-.33-.4-.5-.6a17.975,17.975,0,0,0-2.242-2.212l-.245-.2-.215-.161q-.292-.213-.592-.414c-.426-.286-.864-.552-1.31-.805-.989-.561-2.015-1.053-3.047-1.526-3.075-1.409-6.2-2.712-9.267-4.132a1.143,1.143,0,0,1,1.149-1.977c3.4,1.571,6.877,2.976,10.254,4.594a22.52,22.52,0,0,1,5.513,3.542,19.208,19.208,0,0,1,3.935,5.02" transform="translate(-4.274 -110.784)" fill="#fff"/>
    <path id="パス_3485" data-name="パス 3485" d="M175.776,261.649a1.139,1.139,0,0,1,2.277,0q.019,1.162.033,2.324c.054,4.146.116,8.3.126,12.45a1.137,1.137,0,0,1,.269.345q.293.573.6,1.137,1.779,3.264,3.848,6.361a29.47,29.47,0,0,0,4.454,5.58c.1.093.207.183.312.273.027.023.074.06.106.086.143.106.288.206.44.3a11.4,11.4,0,0,0,1.968.964,9.932,9.932,0,0,0,3.891.669,8.479,8.479,0,0,0,6.016-2.986,11.235,11.235,0,0,0,2.59-6.851c.084-1.955-.059-3.935-.166-5.887-.264-4.8-.665-9.6-1.09-14.391q-.278-3.14-.584-6.278a28.337,28.337,0,0,1-4.6.888,18.7,18.7,0,0,1-8.105-.754,11.443,11.443,0,0,1-2.391-1.139q.133,5.5.267,10.995a1.139,1.139,0,0,1-2.277,0q-.02-.856-.041-1.712-.148-6.067-.295-12.134a1.123,1.123,0,0,1,1.792-.9,1.037,1.037,0,0,1,.5.495c.047.091.1.18.151.267.017.027.081.113.115.161l.006.007V250.76a1.276,1.276,0,0,1-.714-1.069q-.043-.456-.085-.913l-.571-6.17a1.14,1.14,0,0,1-.488-.418c-2.455-3.679-1.413-8.244-.816-12.309.489-3.326.44-6.706.745-10.05.029-.317.063-.634.11-.946l-1.154-.61-.561,3.763-1.8,12.092a3.154,3.154,0,0,1,.758,2.746,5.378,5.378,0,0,1-2.355,3.113l-.046.035a3.633,3.633,0,0,1,.384,3.382,5.472,5.472,0,0,1-2.086,2.445,5.807,5.807,0,0,1-.1,3.458,6.936,6.936,0,0,1-2.006,2.676,36.267,36.267,0,0,1-9.254,5.312c-2.02.9-4.062,1.752-6.126,2.541l-.713.817-4.977,5.7a1.269,1.269,0,0,1,.276.283,1.055,1.055,0,0,1,.187.145,1.184,1.184,0,0,1,0,1.619c-2.758,3.4-5.435,6.9-7.86,10.547a1.156,1.156,0,0,1-1.558.41,1.03,1.03,0,0,1-.171-.127l-.935,1.8a1.13,1.13,0,0,1,.682,1.935l-.581.739-3.224,4.1h34.826c.074-2.165.1-4.333.115-6.5.045-6.553-.011-13.108-.116-19.66m12.938,6.479a11.5,11.5,0,0,0,9.938-1.241c1.237-.8,2.377,1.181,1.149,1.977a13.7,13.7,0,0,1-11.693,1.472c-1.384-.468-.787-2.678.605-2.208" transform="translate(-91.584 -141.393)" fill="#fff"/>
    <path id="パス_3486" data-name="パス 3486" d="M94.536,63.229a4.184,4.184,0,0,0-.842-.516,2.053,2.053,0,0,0-.267-.1c-.05-.015-.32-.074-.316-.082-.112-.011-.225-.009-.338-.012-.013,0-.082.006-.123.008l-.045.008c-.115.029-.227.06-.338.1l-.018.01c-.046.024-.092.046-.137.074s-.187.123-.226.147-.143.129-.171.155a2.649,2.649,0,0,0-.353.412,3.922,3.922,0,0,0-.57,1.2,5.845,5.845,0,0,0-.122,3.012A8.685,8.685,0,0,0,92.446,71a8.4,8.4,0,0,0,3.26,2.661,1.172,1.172,0,0,1,.8,1.408,1.206,1.206,0,0,1-1.127.852q-.007.22-.013.44-.145,4.794-.29,9.586a1.285,1.285,0,0,1-.017.131c1.074.707,2.175,1.372,3.287,2.012a162.723,162.723,0,0,0,16.83,8.3.965.965,0,0,1,.532.768l1.2.091a1.111,1.111,0,0,1,.508-.658c.51-.281,1-.6,1.485-.922.179-.12.354-.245.531-.369,0-.007,0-.015,0-.022q.061-.865.123-1.729a16.344,16.344,0,0,1-9.319-1.039,27.754,27.754,0,0,1-6.418-4.09,22.261,22.261,0,0,1-5.467-6.609c-.707-1.293,1.26-2.447,1.966-1.156a20.5,20.5,0,0,0,5.583,6.518,20.814,20.814,0,0,0,7.337,3.954,13.768,13.768,0,0,0,6.914-.059,11.9,11.9,0,0,0,5.019-2.766c3.477-3.241,4.62-7.952,5.162-12.517.3-2.559.363-5.133.626-7.692l.79-7.693a1.2,1.2,0,0,1,.915-1.123l.352-3.718a1.159,1.159,0,0,1-.724-1.3,5.639,5.639,0,0,1-.831-.677,1.024,1.024,0,0,1-1.07-.032,23.966,23.966,0,0,1-5.1-4.742,20.35,20.35,0,0,1-2.858-6.126,1.037,1.037,0,0,1,.015-.727,3.689,3.689,0,0,0-1.6,1.386,1.159,1.159,0,0,1-.094.924,18.967,18.967,0,0,1-7.212,6.922,1.155,1.155,0,0,1-1.531-.377,9.44,9.44,0,0,1-4.37.84,24.146,24.146,0,0,1-3.417,2.142,1.16,1.16,0,0,1-1.491-.318,14.928,14.928,0,0,1-2.458,1.275c-.446.658-.9,1.31-1.372,1.947l.986,5.061a1.169,1.169,0,0,1-.8,1.408,1.042,1.042,0,0,1-.2.032,2.436,2.436,0,0,0,.379.761,9.352,9.352,0,0,1-3.346-.559,1.213,1.213,0,0,1-1.4-.167M112.7,63.7a1.146,1.146,0,0,1,0-2.289,1.146,1.146,0,0,1,0,2.289m12.837-.284a1.146,1.146,0,0,1,0-2.289,1.146,1.146,0,0,1,0,2.289m-1.787-6.692a1.226,1.226,0,0,1,.68-.526,6.971,6.971,0,0,1,4.579-.015,1.172,1.172,0,0,1,.8,1.408,1.146,1.146,0,0,1-1.4.8,6.781,6.781,0,0,0-1.06-.258,6.081,6.081,0,0,0-1.248,0,5.851,5.851,0,0,0-1.061.275,1.151,1.151,0,0,1-1.4-.8,1.175,1.175,0,0,1,.115-.882M122.3,71.836a1.146,1.146,0,0,1,0,2.289,1.146,1.146,0,0,1,0-2.289m-.286,6.148a1.211,1.211,0,0,1,.246.033c.019,0,.038,0,.057.008a1.059,1.059,0,0,1,.719.629c.01.021.019.043.028.065s.025.07.035.107a1.229,1.229,0,0,1,.033.145c0,.012,0,.024.005.037.006.04.014.08.016.122a.961.961,0,0,1-.04.3v.006a12.158,12.158,0,0,1-1.808,4.2,5.1,5.1,0,0,1-2.436,1.948,3.2,3.2,0,0,1-2.632-.316c-2.094-1.263-2.673-4.111-2.9-6.355a1.147,1.147,0,0,1,1.138-1.145l.948.028,6.586.192M109.528,56.121a9.179,9.179,0,0,1,3.282-.649,7.358,7.358,0,0,1,3.371.494,1.162,1.162,0,0,1,.408,1.566,1.132,1.132,0,0,1-1.434.456s0,0-.04-.007-.085-.03-.129-.043c-.092-.029-.186-.053-.28-.074s-.2-.039-.3-.056c-.047-.005-.1-.013-.139-.017a10.383,10.383,0,0,0-1.462-.029q-.389.018-.777.06l-.152.017c-.1.017-.207.032-.31.05-.215.039-.428.084-.638.142-.088.024-.174.05-.261.079s-.383.157,0-.012a1.17,1.17,0,0,1-1.558-.411,1.152,1.152,0,0,1,.408-1.566" transform="translate(-58.821 -27.176)" fill="#fff"/>
    <path id="パス_3487" data-name="パス 3487" d="M85.509,37.393a4.868,4.868,0,0,1,4.246,1.256,1.157,1.157,0,0,1,0,1.619,1.121,1.121,0,0,1-.213.166,9.355,9.355,0,0,0,3.346.559,2.445,2.445,0,0,1-.378-.761,1.137,1.137,0,0,1-1.2-.832l-.57-2.926c-.174-.894-.371-1.787-.523-2.685-.149-.879.589-1.543,1.058-2.211.834-1.185,1.636-2.395,2.368-3.647.373-.639.73-1.289,1.04-1.961.05-.107.1-.215.145-.324l.018-.045c.052-.134.1-.268.149-.4a5.5,5.5,0,0,0,.205-.774,1.148,1.148,0,0,1,1.4-.8,1.177,1.177,0,0,1,.8,1.408,16.744,16.744,0,0,1-2.748,5.617c-.246.382-.5.758-.756,1.134a14.917,14.917,0,0,0,2.458-1.275,1.05,1.05,0,0,1-.067-.092,1.161,1.161,0,0,1,.408-1.566,22.549,22.549,0,0,0,8.159-7.072,1.14,1.14,0,1,1,1.966,1.155,25.314,25.314,0,0,1-5.559,5.752,9.445,9.445,0,0,0,4.37-.84c-.008-.012-.018-.021-.026-.033a1.159,1.159,0,0,1,.408-1.566A17.77,17.77,0,0,0,108,25c.074-.054.147-.107.22-.162l.158-.121q.194-.154.384-.312.44-.37.856-.768a17.812,17.812,0,0,0,1.59-1.737l.111-.141.112-.149q.163-.22.319-.446.344-.5.653-1.015a1.157,1.157,0,0,1,1.558-.41,1.06,1.06,0,0,1,.5.642,3.688,3.688,0,0,1,1.6-1.386,1.006,1.006,0,0,1,.3-.4c0-.046-.009-.09-.009-.139,0,.049.006.093.009.139a1.172,1.172,0,0,1,1.879.517A18.237,18.237,0,0,0,120.8,24.6c.053.074.165.218.316.4s.3.354.46.525c.33.359.677.7,1.035,1.03a31.577,31.577,0,0,0,2.536,2.058,1.135,1.135,0,0,1-.079,2.009,5.658,5.658,0,0,0,.831.677c.007-.025.008-.05.017-.074a12.788,12.788,0,0,0,.637-5.942,19.857,19.857,0,0,0-4.523-10.414,14.99,14.99,0,0,0-4.254-3.558,10.149,10.149,0,0,0-5-1.286,1.1,1.1,0,0,1-1.058-1.444c-.726-.262-1.447-.533-2.195-.751a1.146,1.146,0,0,1-1.74,1.464A9.564,9.564,0,0,0,103.5,6.783a10.262,10.262,0,0,0-4.479-.058,20.828,20.828,0,0,0-8.431,4.209,35.893,35.893,0,0,0-6.814,7,25.825,25.825,0,0,0-2.328,3.684,10.359,10.359,0,0,0-.727,5A45.989,45.989,0,0,0,83.1,37.657a1.12,1.12,0,0,1-1.389,1.38,4.6,4.6,0,0,0,.536,1.932,7.834,7.834,0,0,1,.412-1.038,4.64,4.64,0,0,1,2.853-2.538" transform="translate(-52.431 -4.214)" fill="#75bb36"/>
    <path id="パス_3488" data-name="パス 3488" d="M296.029,234.133a1.192,1.192,0,0,1,.107-.055,7.407,7.407,0,0,1,.463-.656c.155-.193.325-.374.489-.56.091-.1.178-.21.267-.316l.01-.015c.053-.074.106-.148.158-.223a1.38,1.38,0,0,1,.287-.306l.009-.017c.713-.981,1.952-2.29,1.2-3.556a.764.764,0,0,0-1.1-.265,5.447,5.447,0,0,0-1.6,1.417c-.422.475-.773.987-1.157,1.515a4.413,4.413,0,0,0-.941,1.864,1.156,1.156,0,0,0,.506,1.286c.5.368.731.257,1.3-.112" transform="translate(-191.155 -147.723)" fill="#fff"/>
    <path id="パス_3489" data-name="パス 3489" d="M303.714,255.529c.071.11.066.08.04.039a.417.417,0,0,0-.04-.039" transform="translate(-197.339 -165.526)" fill="#75bb36"/>
    <path id="パス_3490" data-name="パス 3490" d="M308.208,240.054c.062-.069.119-.135.172-.2.016-.017.029-.038.045-.055a1.08,1.08,0,0,0,.3-.877,1.138,1.138,0,0,0-.7-.993c-1.08-.46-2.02,1.078-2.607,1.789a1.047,1.047,0,0,1-.173.166,10.62,10.62,0,0,1-.737.944c-.082.093-.166.184-.248.277a2.244,2.244,0,0,1-.256.31c0,.008-.011.016-.016.024-.05.073-.1.148-.146.224-.1.159-.188.323-.274.489-.06.116-.116.232-.171.35-.014.029-.106.245-.124.281-.033.088-.064.177-.089.268,0,.012-.016.066-.029.118.011-.025-.019.179-.02.216s.023.186.022.261c.008.034.016.068.025.1s.018.057.027.085c.035.048.105.2.121.229v0a.148.148,0,0,1,.047.05c.052.056.119.137.135.151s.033.029.049.043l.245.144.07.025c.072.023.145.043.218.059l.056.011.024,0c.108,0,.214.007.322,0l.062-.005.054-.01c.074-.021.147-.041.221-.06a6.046,6.046,0,0,1,.253-.694,8.665,8.665,0,0,1,1.731-2.316q.672-.717,1.38-1.4l.011-.008" transform="translate(-196.961 -154.072)" fill="#fff"/>
    <path id="パス_3491" data-name="パス 3491" d="M315.506,255.63c.027-.035.083-.106.084-.106-.015,0-.051.053-.084.106" transform="translate(-205.001 -165.523)" fill="#75bb36"/>
    <path id="パス_3492" data-name="パス 3492" d="M315.208,262.133h0v0h0" transform="translate(-204.805 -169.804)" fill="#75bb36"/>
    <path id="パス_3493" data-name="パス 3493" d="M314.981,262.1h.045c-.025-.005-.044-.007-.045,0" transform="translate(-204.66 -169.78)" fill="#75bb36"/>
    <path id="パス_3494" data-name="パス 3494" d="M314.732,262.008a.149.149,0,0,0,.051.022c.007,0-.02-.013-.051-.022" transform="translate(-204.498 -169.723)" fill="#75bb36"/>
    <path id="パス_3495" data-name="パス 3495" d="M314.107,261.533c-.009-.012-.018-.021-.022-.021a.235.235,0,0,1,.022.021" transform="translate(-204.078 -169.402)" fill="#75bb36"/>
    <path id="パス_3496" data-name="パス 3496" d="M314.25,261.728c.052.1.031.052,0,0" transform="translate(-204.185 -169.542)" fill="#75bb36"/>
    <path id="パス_3497" data-name="パス 3497" d="M315.32,262.164c.055.017.039.011,0,0" transform="translate(-204.88 -169.824)" fill="#75bb36"/>
    <path id="パス_3498" data-name="パス 3498" d="M303.693,255.5l.007.011a.417.417,0,0,1,.04.039.139.139,0,0,0-.047-.05" transform="translate(-197.325 -165.506)" fill="#323232"/>
    <path id="パス_3499" data-name="パス 3499" d="M314.3,261.714a.153.153,0,0,0-.084-.071l.039.042.045.03" transform="translate(-204.163 -169.487)" fill="#323232"/>
    <path id="パス_3500" data-name="パス 3500" d="M315.3,262.088a.21.21,0,0,0-.076.008h.052l.024-.007" transform="translate(-204.816 -169.775)" fill="#323232"/>
    <path id="パス_3501" data-name="パス 3501" d="M313.891,259.712a.207.207,0,0,0,.028-.071.317.317,0,0,1-.028.067v0" transform="translate(-203.952 -168.19)" fill="#323232"/>
    <path id="パス_3502" data-name="パス 3502" d="M314.227,261.688h0l0-.008,0,.008" transform="translate(-204.167 -169.511)" fill="#323232"/>
    <path id="パス_3503" data-name="パス 3503" d="M286.766,198.439c0-.025.006-.046,0-.072a4.023,4.023,0,0,0-2.62-3.718,4.168,4.168,0,0,0-1.323-.236,3.488,3.488,0,0,0-1.675-2.742,3.276,3.276,0,0,0-1.99-.422,4.168,4.168,0,0,0-.152-1.093,3.286,3.286,0,0,0-1.454-1.954c1.885-4.575,3.717-9.177,5.674-13.722-.077.187.077-.16.133-.311a3.837,3.837,0,0,0,.225-1.7,3.34,3.34,0,0,0-2.159-2.85,3.122,3.122,0,0,0-3.7.991,10.654,10.654,0,0,0-1.29,2.413c-1.6,3.6-3.329,7.138-4.981,10.712-.927,2.006-1.852,4.014-2.7,6.055l-.02.051q-.055-.64-.11-1.28c-.056-.652-.1-1.3-.167-1.956a3.152,3.152,0,0,0-1.8-2.6,3.748,3.748,0,0,0-3.5.1,3.987,3.987,0,0,0-1.772,3.112l.778.412-.778-.412c-.047.312-.081.629-.11.946-.3,3.344-.256,6.724-.745,10.05-.6,4.066-1.639,8.63.816,12.309a1.145,1.145,0,0,0,.488.418q.285,3.085.571,6.17.042.457.084.914a1.276,1.276,0,0,0,.714,1.069v0a.973.973,0,0,0,.424.076,1.154,1.154,0,0,0,1.138-1.145q-.294-3.174-.587-6.347-.043-.457-.085-.914a1.3,1.3,0,0,0-.619-1.019,1.145,1.145,0,0,0-.163-.377c-1.841-2.759-1.259-6.224-.776-9.31s.644-6.138.821-9.242q.073-1.276.186-2.549c.033-.366.055-.779.115-1.081a2.016,2.016,0,0,1,.247-.691,1.217,1.217,0,0,1,.085-.135l.018-.019c.051-.056.106-.107.162-.159.014,0,.136-.094.179-.123a.92.92,0,0,1,.106-.056c.016-.006.032-.012.053-.017.09-.024.179-.048.27-.07h0c.036,0,.072-.007.108-.007.1,0,.2,0,.3.008.057.011.113.022.17.037.082.021.161.048.241.075.037.02.076.036.111.058s.12.08.172.112.123.114.145.135a.239.239,0,0,0,.032.026c.006.013.012.026.022.047.031.062.068.159.075.168.012.048.025.1.032.121.059.572.1,1.147.147,1.72q.227,2.654.454,5.308a1.147,1.147,0,0,0,2.121.578l1.027-1.641a8.51,8.51,0,0,0,.7-1.485c.106-.271.216-.539.328-.807l.169-.4q.125-.291.251-.58c.37-.847.75-1.69,1.132-2.531,1.68-3.689,3.431-7.345,5.13-11.025.284-.614.567-1.229.84-1.847a5.383,5.383,0,0,1,1.241-2.184.877.877,0,0,1,.952-.021,1.67,1.67,0,0,0,.221.123l.073.048c-.008,0,0,.007.04.045.019.017.086.1.111.124a2.7,2.7,0,0,0,.126.243,2.021,2.021,0,0,1-.209,1.469q-1.427,3.433-2.84,6.871l-2.968,7.179a3.488,3.488,0,0,0-.522.173c-1.538.66-2.658,2.209-3.613,3.528-1,1.377-1.974,3.094-1.35,4.856a3.694,3.694,0,0,0,1.988,2.064,2.783,2.783,0,0,0,.969.234,3.491,3.491,0,0,0,2.225,3.537,3.365,3.365,0,0,0,1.534.2,25.383,25.383,0,0,0-6.993,5.854,1.175,1.175,0,0,0,0,1.619,1.147,1.147,0,0,0,1.61,0,24.707,24.707,0,0,1,3.168-3.189q.2-.171.411-.337l.129-.1.153-.117q.446-.338.908-.655.946-.648,1.949-1.2a1.027,1.027,0,0,0,.295-.256,2.716,2.716,0,0,0,1.86.138c1.3-.389,2.181-1.49,3.191-2.326a1.154,1.154,0,0,0,0-1.619,1.166,1.166,0,0,0-1.61,0c-.343.284-.659.6-.988.9q-.121.11-.244.217l-.143.122-.049.041c-.03.021-.168.126-.2.147-.11.075-.222.147-.339.211-.043.024-.09.044-.133.069s-.1.035-.163.053c.054,0,.1.01-.008.007h-.016a.145.145,0,0,1-.05.009l-.006,0a.007.007,0,0,1,0-.007h-.024a1.325,1.325,0,0,0-.177-.052l-.053-.031-.015-.01c.014.023.009.031-.037-.02l-.008-.009-.032-.021,0,.006,0-.006-.029-.018a.033.033,0,0,1,.016,0l.008.012-.008-.012h.006l-.017-.018c-.008-.013-.015-.026-.023-.037a.537.537,0,0,0-.034-.046c-.013-.055-.023-.112-.029-.141s-.007-.044-.01-.07c0-.069-.006-.138,0-.208,0-.038,0-.076.006-.114,0,.008-.005.015-.011.023,0-.007.007-.019.011-.027s0-.017,0-.025c0-.112.035-.1.027-.042.041-.135.051-.337.085-.445.023-.076.05-.149.076-.224.02-.045.047-.107.053-.119a3.965,3.965,0,0,1,.262-.458c.008-.012.031-.05.055-.09l.039-.048c.039-.048.077-.1.116-.144.268-.325.551-.638.839-.945q.646-.688,1.326-1.343c.009-.01.02-.017.029-.027.12-.134.234-.273.344-.413a1.53,1.53,0,0,1,1.545-.061,1.709,1.709,0,0,1,.948,1.511,1.256,1.256,0,0,0,.041.28c0,.024-.006.045,0,.07v.005c-.016.068-.027.141-.044.2-.066.244-.152.484-.241.721-.055.148-.113.294-.172.441l-.054.132s-.052.124-.082.193q-.243.564-.5,1.121c-.877,1.9-1.829,3.771-2.792,5.631q-2.364,4.565-4.857,9.063a2.056,2.056,0,0,0-.218,1.39q.182,1.382.365,2.764a1.18,1.18,0,0,0,1.138,1.145,1.2,1.2,0,0,0,.69-.25l-.324-1.906.324,1.906a.982.982,0,0,0,.448-.894L277.8,217.3c2.745-4.95,5.505-9.94,7.827-15.1.307-.684.61-1.374.865-2.079a3.914,3.914,0,0,0,.313-1.394,1.279,1.279,0,0,0-.041-.278m-22.773-12.077c-.03.039-.087.1,0,0m.464-.363c-.071.035-.058.022,0,0m1.735.619v0c-.009-.052,0-.027,0,0M268.3,191l-.008.007a.6.6,0,0,0-.11.172c-.366,0,.047-.2.127-.206L268.3,191m10.953,11.057h0m-.04-.011h0m-.034-.008a.372.372,0,0,1-.045,0c0-.006.02,0,.045,0m-.081-.014a.149.149,0,0,1-.051-.022c.031.009.057.018.051.022m-.219-.121c.031.052.051.1,0,0m-.036-.055a.207.207,0,0,0-.022-.021.207.207,0,0,1,.022.021m-4.1-6.993c-.164.186-.333.367-.489.56a7.38,7.38,0,0,0-.463.656c-.036.019-.071.032-.107.056-.568.369-.8.48-1.3.112a1.158,1.158,0,0,1-.505-1.286,4.421,4.421,0,0,1,.94-1.864c.385-.528.736-1.04,1.158-1.515a5.457,5.457,0,0,1,1.6-1.417.765.765,0,0,1,1.1.265c.751,1.266-.488,2.575-1.2,3.556,0,.006-.006.012-.01.017a1.38,1.38,0,0,0-.287.306c-.052.075-.1.149-.157.223l-.011.015c-.088.106-.176.213-.267.316m3.995,6.665a.149.149,0,0,0-.006-.021.149.149,0,0,1,.006.021m.176-.975a.115.115,0,0,0,.016-.029.115.115,0,0,1-.016.029m.03-.064v0c.046-.134.023-.061,0,0m.37-.658c.033-.053.07-.106.084-.106,0,0-.057.071-.084.106m.959-4.377c-.016.017-.029.038-.046.055-.053.064-.11.129-.172.2l-.011.009q-.709.681-1.38,1.4a8.68,8.68,0,0,0-1.731,2.316,6.212,6.212,0,0,0-.253.694c-.074.019-.148.039-.221.06l-.054.01-.062.006c-.108.006-.214,0-.322,0l-.025,0-.056-.011c-.073-.016-.146-.036-.217-.058l-.07-.025-.246-.144c-.016-.014-.033-.028-.049-.043s-.083-.1-.135-.151c.026.041.031.071-.04-.039-.007-.006-.017-.016-.02-.016s.008,0,.012,0v0c-.016-.025-.087-.181-.121-.229-.009-.028-.019-.056-.027-.085s-.017-.068-.025-.1c0-.075-.022-.225-.022-.261s.031-.24.019-.215c.013-.052.026-.106.029-.118.024-.091.056-.18.089-.268.019-.036.111-.252.124-.281.055-.118.112-.235.171-.35.085-.166.176-.33.274-.489q.07-.114.145-.224l.017-.024a2.242,2.242,0,0,0,.256-.31c.082-.093.166-.184.248-.277a10.567,10.567,0,0,0,.737-.944,1.031,1.031,0,0,0,.173-.166c.587-.711,1.527-2.249,2.607-1.789a1.137,1.137,0,0,1,.7.994,1.08,1.08,0,0,1-.3.877" transform="translate(-168.808 -109.721)" fill="#323232"/>
    <path id="パス_3504" data-name="パス 3504" d="M269.54,338.725c-.188-4.9-.6-9.791-1.014-14.674-.282-3.283-.564-6.569-.907-9.846-.006-.054-.011-.108-.016-.163a1.457,1.457,0,0,0-.165-.541l-.007-.012c-.017-.031-.033-.063-.052-.093a.977.977,0,0,0-1.217-.458c-.31.1-.624.2-.939.29l.4,2.374-.4-2.374a21.185,21.185,0,0,1-9.775.778,10.93,10.93,0,0,1-3.437-1.163c-.216-.122-.422-.257-.627-.395-.046-.032-.091-.065-.136-.1l-.026-.021c-.1-.08-.189-.162-.28-.248a4.689,4.689,0,0,1-.35-.378v0l-.006-.007c-.034-.047-.1-.133-.115-.161-.054-.087-.1-.176-.151-.267a1.036,1.036,0,0,0-.5-.495,1.123,1.123,0,0,0-1.791.9l.294,12.134q.021.856.042,1.713a1.139,1.139,0,0,0,2.277,0l-.267-10.995a11.445,11.445,0,0,0,2.391,1.139,18.707,18.707,0,0,0,8.105.754,28.336,28.336,0,0,0,4.6-.888q.3,3.137.584,6.278c.425,4.792.826,9.588,1.09,14.392.108,1.952.25,3.932.166,5.887a11.238,11.238,0,0,1-2.59,6.851,8.481,8.481,0,0,1-6.016,2.986,9.932,9.932,0,0,1-3.892-.669,11.381,11.381,0,0,1-1.968-.964c-.151-.093-.3-.194-.44-.3l-.107-.086c-.105-.09-.209-.18-.311-.273a29.443,29.443,0,0,1-4.454-5.58q-2.063-3.091-3.848-6.361-.308-.565-.6-1.137a1.125,1.125,0,0,0-.269-.345c-.01-4.152-.072-8.3-.126-12.45q-.015-1.162-.033-2.325a1.139,1.139,0,0,0-2.277,0c.105,6.552.161,13.108.116,19.661-.015,2.167-.041,4.334-.115,6.5h0c0,.021,0,.042,0,.064-.051,1.474,2.225,1.472,2.277,0,.08-2.294.122-4.589.143-6.886.585,1,1.194,1.994,1.816,2.973a46.409,46.409,0,0,0,4.828,6.568c3.666,3.992,10.113,5.258,14.722,2.139a12.392,12.392,0,0,0,4.8-6.637,20.918,20.918,0,0,0,.581-7.095" transform="translate(-156.186 -201.185)" fill="#323232"/>
    <path id="パス_3505" data-name="パス 3505" d="M147.762,128.424a1.945,1.945,0,0,0-1.554-.581c-4.769.254-9.534.677-14.3,1.015-.724.051-1.449.1-2.172.154a2.84,2.84,0,0,0-1.758.786.846.846,0,0,0-.33-.268l-4.1-1.84a1.314,1.314,0,0,0-.746-.137l-.931-1.418-.417-.635a1.293,1.293,0,0,0-.7-.523,1.152,1.152,0,0,0-1.489.094c-.042.038-.086.074-.128.112,0-.007,0-.015,0-.022a.937.937,0,0,0-.075-.4,13.9,13.9,0,0,0,3.025-1.478c4.292-2.809,6.517-7.63,7.369-12.568.58-3.365.739-6.749,1-10.144.215-2.791.573-5.579.859-8.364a1.149,1.149,0,0,0-1.138-1.145,1.168,1.168,0,0,0-.223.023l-.483,5.1.483-5.1a1.2,1.2,0,0,0-.915,1.122l-.79,7.693c-.263,2.559-.322,5.133-.626,7.692-.542,4.565-1.685,9.275-5.162,12.517a11.9,11.9,0,0,1-5.019,2.766,13.768,13.768,0,0,1-6.914.059,20.812,20.812,0,0,1-7.337-3.954,20.5,20.5,0,0,1-5.583-6.518c-.706-1.291-2.673-.137-1.966,1.156a22.256,22.256,0,0,0,5.467,6.609,27.761,27.761,0,0,0,6.418,4.09,16.346,16.346,0,0,0,9.318,1.039q-.061.864-.123,1.729c0,.008,0,.015,0,.023-.176.124-.352.249-.531.368-.484.324-.976.642-1.486.922a1.112,1.112,0,0,0-.507.658l2.09.157-2.09-.157a1.1,1.1,0,0,0,.1.908,1.158,1.158,0,0,0,1.558.411,25.065,25.065,0,0,0,4.155-2.925l2.363,3.6.012.019a1.569,1.569,0,0,0-.121.145l-3.587,5.04-1.842-4.105-.373-.831a1.143,1.143,0,0,0-1.558-.411,1.176,1.176,0,0,0-.408,1.566l2.6,5.8.373.831a1.117,1.117,0,0,0,.983.567,1.181,1.181,0,0,0,.983-.567l4.19-5.886.6-.847a.861.861,0,0,0,.125-.28,1.208,1.208,0,0,0,.512-1.316l1.628.731a1.55,1.55,0,0,0,.532.146c-.314,1.621-.55,3.262-.825,4.89q-.649,3.843-1.3,7.685a1.5,1.5,0,0,0-.138.1,58.426,58.426,0,0,0-4.919,4.376,14.6,14.6,0,0,0-1.82,2.335,27.621,27.621,0,0,0-1.347,2.833c-.963,2.071-2.021,4.1-2.789,6.262a14.832,14.832,0,0,1-1.084,3.081,27.769,27.769,0,0,1-2.022,2.481c-.606.743-1.263,1.479-1.8,2.274a.973.973,0,0,0-.144.9l.972-1.042-.972,1.042a1.209,1.209,0,0,0,2.11.258c.013-.019.026-.037.04-.055l.023-.032q.546-.693,1.1-1.379c.662-.815,1.366-1.6,2.019-2.418a8.259,8.259,0,0,0,1.511-3.114,37.564,37.564,0,0,1,2.512-6.065,22.012,22.012,0,0,1,2.871-5.265,29.543,29.543,0,0,1,3.3-3.135q-.293,1.736-.587,3.471l-.052.308a1.488,1.488,0,0,0-.009.447c-.564.374-1.131.745-1.694,1.12-1.216.81-.077,2.793,1.149,1.977,4.1-2.729,8.218-5.425,12.328-8.135q1.517-1,3.031-2a12.186,12.186,0,0,1,2.749-1.636c.676-.22,1.395-.216,1.188.717-.23,1.036-1.556,1.8-2.317,2.406l-7,5.624c-1.1.886-2.279,1.724-3.32,2.684a2.707,2.707,0,0,0-.778,3.5,2.9,2.9,0,0,0,3.53.841,33.62,33.62,0,0,0,3.9-2.112l3.752-2.111c.645-.363,1.285-.738,1.937-1.088.351-.188.941-.55,1.35-.4.242.088.295.452.246.75a2.418,2.418,0,0,1-.813,1.181,31.292,31.292,0,0,1-3.528,2.632,76.8,76.8,0,0,1-8.153,4.911c-1.3.678-.151,2.655,1.149,1.977a76.84,76.84,0,0,0,7.629-4.552q.86-.583,1.7-1.192a.712.712,0,0,1,.132.236,1.037,1.037,0,0,1,.053.521,2.071,2.071,0,0,1-.363.973,4.606,4.606,0,0,1-1.088.948c-.5.353-.986.72-1.466,1.1a57.677,57.677,0,0,1-5.6,3.764c-1.243.774-.1,2.756,1.149,1.977,1.065-.664,2.14-1.314,3.184-2.012.707-.473,1.379-.989,2.051-1.5a3.311,3.311,0,0,1-1.19,2.566,16.919,16.919,0,0,1-3.307,2.417,69,69,0,0,1-7.767,3.742q-1.517.64-3.049,1.244a5.089,5.089,0,0,0-1.576.712c-.362.347-.673.771-1,1.149l-2.124,2.434-3.65,4.183a1.326,1.326,0,0,0-.242.407,6.733,6.733,0,0,1-2.261-1.231,13.811,13.811,0,0,1-3.115-3.046,24.049,24.049,0,0,1-3.032-7.341,1.144,1.144,0,0,0-.537-1.281l-2.3,2.47,2.3-2.47a1.129,1.129,0,0,0-.767-.175,1.226,1.226,0,0,0-.993.669l-5.971,5.635-10.136,9.565-2.331,2.2c-1.071,1.011.541,2.627,1.61,1.619l6.357-6,10.136-9.566.809-.764c.265.864.56,1.719.891,2.559a19.351,19.351,0,0,0,2.332,4.505,17.175,17.175,0,0,0,4.055,3.724,7.425,7.425,0,0,0,3.154,1.3c-2.363,2.975-4.655,6.02-6.756,9.182a1.151,1.151,0,0,0,.237,1.439l.506-.977-.506.977a1.047,1.047,0,0,0,.171.127,1.156,1.156,0,0,0,1.558-.41c2.425-3.649,5.1-7.146,7.86-10.546a1.184,1.184,0,0,0,0-1.619,1.026,1.026,0,0,0-.187-.145,1.263,1.263,0,0,0-.276-.283l4.977-5.7.712-.816c2.064-.79,4.106-1.645,6.126-2.542a36.267,36.267,0,0,0,9.254-5.312,6.933,6.933,0,0,0,2.006-2.676,5.8,5.8,0,0,0,.1-3.458A5.472,5.472,0,0,0,143.928,161a3.633,3.633,0,0,0-.384-3.382l.046-.035a5.379,5.379,0,0,0,2.356-3.113,3.154,3.154,0,0,0-.758-2.746q.9-6.045,1.8-12.092.281-1.881.561-3.763l-.266-.141.266.141q.266-1.789.533-3.579c.074-.5.151-.992.222-1.488a2.736,2.736,0,0,0-.546-2.378m-4.75,22.563a7.115,7.115,0,0,0-2.584,1.018c-2.743,1.543-5.457,3.16-8.238,4.631-.276.146-.857.488-1.167.3-.252-.151.041-.345.246-.549a42.671,42.671,0,0,1,3.453-2.811l7.355-5.905a12.2,12.2,0,0,0,1.654-1.507l-.719,4.821m3.079-20.648c-.036.236-.07.471-.105.707l-.96,6.442-.69,4.63a2.556,2.556,0,0,0-1.054-1.015c-2.315-1.181-4.847,1.049-6.665,2.252q-5.2,3.445-10.421,6.874.9-5.3,1.792-10.6l1.121-6.632a3.438,3.438,0,0,1,.416-1.538.738.738,0,0,1,.185-.149l.068,0c.279-.017.558-.04.837-.06l14.656-1.041c.274-.019.549-.032.822-.058-.006.086,0,.186.008.137l-.009.061m.03-.324h-.007c-.074,0,.069-.142.007,0" transform="translate(-56.117 -58.989)" fill="#323232"/>
    <path id="パス_3506" data-name="パス 3506" d="M138.725,396.447l-1.45,2.8,1.45-2.8a.983.983,0,0,0-.928.316l-5.079,6.454H135.6l3.224-4.1.581-.738a1.186,1.186,0,0,0,0-1.619,1.2,1.2,0,0,0-.682-.316" transform="translate(-86.234 -256.802)" fill="#323232"/>
    <path id="パス_3507" data-name="パス 3507" d="M46.485,274.332l-1.528,1.942-4.025,5.114c-.317.4-.62.825-.955,1.213-.023.027-.043.06-.068.086a6.986,6.986,0,0,1-.851.582A15.818,15.818,0,0,1,36.2,284.8a10.987,10.987,0,0,1-5.458.75,13.3,13.3,0,0,1-5.175-1.988,15.208,15.208,0,0,1-3.49-2.744l-.008-.009c-.044-.063-.091-.124-.136-.186-.117-.166-.23-.335-.34-.505-.234-.364-.455-.736-.668-1.113-1.169-2.062-2.158-4.23-3.118-6.4-1.121-2.531-2.077-4.847-3.116-7.445-1.24-3.1-2.52-6.21-3.6-9.371-.861-2.522-1.6-5.095-2.391-7.639q-2.246-7.2-4.455-14.408c-.51-1.676-1.022-3.351-1.5-5.035-.113-.4-.2-.8-.321-1.194l0-.006c-.049-.523-.092-1.045-.106-1.571a17.533,17.533,0,0,1,5.053-12.868,29.229,29.229,0,0,1,5.561-4.085C17.379,206.2,22,203.62,26.3,200.6a6.84,6.84,0,0,0,1.464-1.173,1.286,1.286,0,0,0,.268-1.174l-3.128,2.8,3.128-2.8a1.081,1.081,0,0,0-.268-.445,1.142,1.142,0,0,0-1.61,0,3.452,3.452,0,0,1-.461.424l-.025.018-.2.15q-.263.191-.532.375c-.925.639-1.872,1.243-2.822,1.844-2.443,1.545-4.914,3.045-7.376,4.559-2.062,1.268-4.149,2.513-6.14,3.892a19.776,19.776,0,0,0-6.765,8.1,20.651,20.651,0,0,0-1.662,5.973A15.912,15.912,0,0,0,.22,228.1c.229,1.135.626,2.254.957,3.362,1.4,4.691,2.86,9.366,4.314,14.041q1.642,5.278,3.3,10.553c.735,2.341,1.711,4.628,2.6,6.911,1.97,5.049,3.984,10.115,6.4,14.969a19.81,19.81,0,0,0,2.911,4.767,14.131,14.131,0,0,0,1.779,1.484,21.806,21.806,0,0,0,2.742,1.815,14.96,14.96,0,0,0,5.764,1.857,12.71,12.71,0,0,0,5.9-.893,18.7,18.7,0,0,0,3.142-1.61,7.594,7.594,0,0,0,1.523-1.1c.959-1.047,1.782-2.265,2.66-3.381l5.155-6.55Z" transform="translate(0 -127.918)" fill="#323232"/>
    <path id="パス_3508" data-name="パス 3508" d="M115.538,197.16a1.162,1.162,0,0,0-1.4.8l-2.71,7.322c-4.827-2.525-9.609-5.169-14.244-8.03-1.664-1.027-3.317-2.084-4.882-3.259a1.142,1.142,0,0,0-1.558.411,1.113,1.113,0,0,0-.145.422l1.842.958-1.842-.958a1.259,1.259,0,0,0,.553,1.145,92.227,92.227,0,0,0,9.5,6q4.44,2.552,8.97,4.944.919.487,1.841.969a1.157,1.157,0,0,0,1.672-.684l3.195-8.631a1.156,1.156,0,0,0-.8-1.408" transform="translate(-58.861 -125.555)" fill="#323232"/>
    <path id="パス_3509" data-name="パス 3509" d="M110.387,130.78l-1.331-.1,1.331.1a.965.965,0,0,0-.532-.768,162.762,162.762,0,0,1-16.83-8.3c-1.112-.64-2.213-1.3-3.286-2.012a1.282,1.282,0,0,0,.017-.131q.145-4.793.29-9.586.006-.22.013-.44a1.206,1.206,0,0,0,1.127-.852,1.173,1.173,0,0,0-.8-1.408,8.4,8.4,0,0,1-3.26-2.66,8.685,8.685,0,0,1-1.776-3.35,5.849,5.849,0,0,1,.121-3.012,3.923,3.923,0,0,1,.57-1.2,2.665,2.665,0,0,1,.353-.412c.027-.026.139-.125.171-.155s.182-.12.226-.147.091-.049.137-.074l.018-.01c.111-.04.224-.07.338-.1l.044-.008c.041,0,.11-.008.123-.008.113,0,.225,0,.338.012,0,.007.267.067.316.082a2.067,2.067,0,0,1,.267.1,4.2,4.2,0,0,1,.842.517,1.212,1.212,0,0,0,1.4.166,6.331,6.331,0,0,1-1.558-.85,6.331,6.331,0,0,0,1.558.85,1.121,1.121,0,0,0,.213-.166,1.157,1.157,0,0,0,0-1.619,4.867,4.867,0,0,0-4.246-1.256,4.639,4.639,0,0,0-2.853,2.538,7.814,7.814,0,0,0-.412,1.038,20.213,20.213,0,0,1,1.187,2.491,20.213,20.213,0,0,0-1.187-2.491,7.944,7.944,0,0,0-.335,3.217,9.65,9.65,0,0,0,1.871,4.6,12.718,12.718,0,0,0,2.981,3.052,1.29,1.29,0,0,0-.024.186q-.144,4.777-.289,9.553a1.168,1.168,0,0,0-1.45.471,1.112,1.112,0,0,0-.137.385,1.329,1.329,0,0,0-.114.243c-1.2,3.507-2.228,7.069-3.427,10.576a.968.968,0,0,0-.014.547l1.352-1.212-1.352,1.212a1.2,1.2,0,0,0,.809.861,1.16,1.16,0,0,0,1.4-.8c.069-.2.133-.4.2-.607l-1.059-.551,1.059.551c.982-2.92,1.869-5.872,2.838-8.8a76,76,0,0,0,9.255,5.362c3.227,1.658,6.506,3.216,9.815,4.7.668.3,1.337.6,2.009.888a1.172,1.172,0,0,0,1.557-.411,1.234,1.234,0,0,0,.124-.8" transform="translate(-53.504 -60.801)" fill="#323232"/>
    <path id="パス_3510" data-name="パス 3510" d="M144.881,82.949c.086-.029.173-.055.261-.079.21-.058.424-.1.638-.142.1-.019.207-.033.31-.05l.152-.017c.258-.028.518-.048.777-.059a10.33,10.33,0,0,1,1.462.029c.044,0,.092.012.139.017.1.017.2.034.3.056s.188.046.28.074c.043.013.085.03.129.043s.043.011.04.007a1.131,1.131,0,0,0,1.433-.456,1.162,1.162,0,0,0-.408-1.566,7.354,7.354,0,0,0-3.371-.494,9.171,9.171,0,0,0-3.282.648,1.152,1.152,0,0,0-.408,1.566,1.17,1.17,0,0,0,1.558.411c-.388.17-.1.045,0,.012m3.774-.3.028,0-.028,0m-.1-.014h0" transform="translate(-93.029 -52.015)" fill="#323232"/>
    <path id="パス_3511" data-name="パス 3511" d="M188.681,83.621a6.782,6.782,0,0,1,1.06.258,1.146,1.146,0,0,0,1.4-.8,1.172,1.172,0,0,0-.795-1.408,6.966,6.966,0,0,0-4.579.015,1.223,1.223,0,0,0-.681.526,1.175,1.175,0,0,0-.115.882,1.151,1.151,0,0,0,1.4.8,5.851,5.851,0,0,1,1.061-.275,6.106,6.106,0,0,1,1.248,0" transform="translate(-120.159 -52.659)" fill="#323232"/>
    <path id="パス_3512" data-name="パス 3512" d="M62.723,349.8l-1.13-.074a1.145,1.145,0,0,0,0,2.289l7.849.514,1.13.074a1.145,1.145,0,0,0,0-2.289l-7.849-.514" transform="translate(-39.281 -226.542)" fill="#323232"/>
    <path id="パス_3513" data-name="パス 3513" d="M166.684,158.938l.074.064.025.016a.374.374,0,0,0-.1-.08" transform="translate(-108.303 -102.957)" fill="#323232"/>
    <path id="パス_3514" data-name="パス 3514" d="M158.544,151.124a3.2,3.2,0,0,0,2.631.316,5.1,5.1,0,0,0,2.436-1.948,12.155,12.155,0,0,0,1.808-4.2v-.006a.96.96,0,0,0,.04-.3c0-.042-.011-.081-.016-.122,0-.012,0-.025,0-.037a1.247,1.247,0,0,0-.033-.145c-.01-.036-.021-.072-.034-.106s-.018-.044-.028-.065a1.058,1.058,0,0,0-.719-.629c-.019,0-.038,0-.057-.008a1.24,1.24,0,0,0-.246-.033l-6.586-.192-.948-.028a1.147,1.147,0,0,0-1.138,1.145c.222,2.244.8,5.091,2.9,6.355m2.47-2.142a.355.355,0,0,1,.076-.059c0,.005-.029.029-.076.059m1.568-2.31-.045.1c-.055.123-.112.245-.172.365-.118.239-.246.473-.385.7q-.091.148-.189.293c-.023.034-.09.123-.122.168-.11.135-.221.269-.344.394q-.1.1-.205.2c-.034.03-.07.058-.1.089l-.007.007c-.122.078-.341.2-.366.217l-.018.009c-.061.013-.13.046-.187.061-.032.008-.063.015-.1.021s-.089.01-.1.011c-.055,0-.109,0-.163-.005h0l-.179-.049-.024-.006c-.047-.026-.168-.091-.26-.145.025.026.032.037-.021-.011l0,0c-.051-.031-.088-.057-.084-.064s.006,0,.01,0l-.014-.012c-.071-.064-.138-.132-.2-.2s-.1-.116-.149-.173l-.057-.081a5.39,5.39,0,0,1-.331-.559c-.057-.11-.1-.226-.161-.336h0c-.022-.058-.046-.114-.067-.172-.1-.268-.186-.541-.26-.818-.063-.235-.11-.474-.159-.713l4.684.136c-.055.157-.1.315-.165.47l-.046.113" transform="translate(-101.131 -93.037)" fill="#323232"/>
    <path id="パス_3515" data-name="パス 3515" d="M179.2,126.794a1.146,1.146,0,0,0,0,2.289,1.146,1.146,0,0,0,0-2.289" transform="translate(-115.719 -82.134)" fill="#323232"/>
    <path id="パス_3516" data-name="パス 3516" d="M188.439,98.693a1.146,1.146,0,0,0,0-2.289,1.146,1.146,0,0,0,0,2.289" transform="translate(-121.724 -62.448)" fill="#323232"/>
    <path id="パス_3517" data-name="パス 3517" d="M151.787,99.5a1.146,1.146,0,0,0,0-2.289,1.146,1.146,0,0,0,0,2.289" transform="translate(-97.91 -62.971)" fill="#323232"/>
    <path id="パス_3518" data-name="パス 3518" d="M53.1,285.648a1.153,1.153,0,0,0,.8-1.408c-1.375-3.461-2.654-6.958-3.971-10.442a57.185,57.185,0,0,0-3.077-7.155,19.207,19.207,0,0,0-3.935-5.019,22.523,22.523,0,0,0-5.514-3.542c-3.377-1.618-6.855-3.022-10.254-4.594a1.143,1.143,0,0,0-1.149,1.977c3.071,1.419,6.192,2.723,9.267,4.132,1.033.473,2.058.966,3.047,1.526.446.253.884.52,1.311.805q.3.2.591.414l.216.161.245.2a17.952,17.952,0,0,1,2.242,2.213q.255.3.5.6c.034.042.068.086.1.129l.012.017c.077.1.153.208.228.313.271.383.523.778.761,1.182a41.179,41.179,0,0,1,2.886,6.4c1.442,3.762,2.808,7.551,4.3,11.3a1.173,1.173,0,0,0,1.4.8" transform="translate(-16.53 -164.117)" fill="#323232"/>
    <path id="パス_3519" data-name="パス 3519" d="M118.133,370.946a12.49,12.49,0,0,1-2.922-3.806,1.147,1.147,0,0,0-1.557-.41,1.17,1.17,0,0,0-.408,1.566,15.379,15.379,0,0,0,8.21,7.278,1.143,1.143,0,0,0,1.4-.8,1.177,1.177,0,0,0-.8-1.408l-.324-.127-.056-.023-.046-.02c-.194-.087-.387-.176-.578-.271q-.545-.272-1.065-.592t-1.01-.682l-.175-.133q-.1-.076-.189-.153-.246-.2-.484-.418" transform="translate(-73.488 -237.463)" fill="#323232"/>
    <path id="パス_3520" data-name="パス 3520" d="M274.133,359.4a13.7,13.7,0,0,0,11.693-1.472c1.228-.8.087-2.778-1.149-1.977a11.5,11.5,0,0,1-9.938,1.241c-1.392-.47-1.989,1.74-.605,2.208" transform="translate(-177.608 -230.453)" fill="#323232"/>
    <path id="パス_3521" data-name="パス 3521" d="M104.074,3.319a10.736,10.736,0,0,1,1.232.292,1.278,1.278,0,0,0-.13-.155A11.659,11.659,0,0,0,96.037.038a19.987,19.987,0,0,0-9.559,3.78,37.146,37.146,0,0,0-7.866,7.4,33.939,33.939,0,0,0-2.865,4.133,11.554,11.554,0,0,0-1.525,5.279c-.258,4.557,1.164,9.106,2.455,13.417a1.063,1.063,0,0,0,.806.771,3.734,3.734,0,0,1,.322-1.565,3.734,3.734,0,0,0-.322,1.565,1.12,1.12,0,0,0,1.389-1.38A46.024,46.024,0,0,1,76.493,22.4a10.364,10.364,0,0,1,.727-5,25.863,25.863,0,0,1,2.328-3.684,35.887,35.887,0,0,1,6.814-7A20.824,20.824,0,0,1,94.793,2.51a10.262,10.262,0,0,1,4.479.058,9.566,9.566,0,0,1,4.294,2.506,1.146,1.146,0,0,0,1.74-1.464,10.736,10.736,0,0,0-1.232-.292" transform="translate(-48.206 0)" fill="#323232"/>
    <path id="パス_3522" data-name="パス 3522" d="M190.628,50.328a31.584,31.584,0,0,1-2.536-2.058c-.358-.329-.706-.671-1.035-1.03q-.236-.257-.46-.525c-.152-.182-.263-.326-.316-.4a18.238,18.238,0,0,1-2.561-5.487,1.172,1.172,0,0,0-1.879-.517,1.492,1.492,0,0,0,.073.371,1.644,1.644,0,0,1,.969.546,1.644,1.644,0,0,0-.969-.546.7.7,0,0,0,.619.546.7.7,0,0,1-.619-.546,1.041,1.041,0,0,0-.374.029,1.037,1.037,0,0,0-.015.727,20.348,20.348,0,0,0,2.858,6.126,23.959,23.959,0,0,0,5.1,4.743,1.024,1.024,0,0,0,1.07.032,13.409,13.409,0,0,1-1.361-1.6,13.409,13.409,0,0,0,1.361,1.6,1.135,1.135,0,0,0,.079-2.009" transform="translate(-117.908 -25.933)" fill="#323232"/>
    <path id="パス_3523" data-name="パス 3523" d="M182.049,41.189a1.493,1.493,0,0,1-.073-.371,1.006,1.006,0,0,0-.3.4,1.042,1.042,0,0,1,.374-.029" transform="translate(-118.044 -26.441)" fill="#323232"/>
    <path id="パス_3524" data-name="パス 3524" d="M184.937,21.854a20.322,20.322,0,0,0-8.055-10.011,12.684,12.684,0,0,0-6.6-1.859,1.055,1.055,0,0,0-1.058.845,14.477,14.477,0,0,0,2.528.718,14.477,14.477,0,0,1-2.528-.718,1.1,1.1,0,0,0,1.058,1.444,10.153,10.153,0,0,1,5,1.286,14.994,14.994,0,0,1,4.254,3.558,19.855,19.855,0,0,1,4.523,10.414,12.788,12.788,0,0,1-.636,5.942c-.009.025-.011.05-.018.074a3.055,3.055,0,0,0,.81.387l0-.035,0,.035a1.866,1.866,0,0,0,1.51-.178,17.643,17.643,0,0,0-.785-11.9" transform="translate(-109.929 -6.467)" fill="#323232"/>
    <path id="パス_3525" data-name="パス 3525" d="M209.715,76.885a1.159,1.159,0,0,0,.724,1.3l.087-.912a3.049,3.049,0,0,1-.81-.386" transform="translate(-136.243 -49.804)" fill="#323232"/>
    <path id="パス_3526" data-name="パス 3526" d="M211.924,77.655l-.087.912c.03.011.058.027.089.035a1.161,1.161,0,0,0,1.4-.8c.04-.107.071-.217.108-.325a1.865,1.865,0,0,1-1.51.178" transform="translate(-137.642 -50.188)" fill="#323232"/>
    <path id="パス_3527" data-name="パス 3527" d="M114.226,55.044a1.148,1.148,0,0,0-1.4.8,5.519,5.519,0,0,1-.205.774c-.046.136-.1.27-.149.4l-.018.045c-.046.109-.1.217-.145.324-.311.672-.667,1.322-1.04,1.961-.731,1.251-1.534,2.462-2.368,3.647-.469.667-1.207,1.332-1.058,2.21.152.9.349,1.791.523,2.685l.57,2.926a1.136,1.136,0,0,0,1.2.832c-.379-1.239.135-2.593-1.022-3.466,1.158.873.644,2.227,1.022,3.466a1.043,1.043,0,0,0,.2-.032,1.169,1.169,0,0,0,.8-1.408l-.986-5.061c.472-.638.926-1.29,1.372-1.947-.653.271-1.331.514-2.052.756.721-.242,1.4-.486,2.052-.756.255-.376.51-.752.756-1.134a16.744,16.744,0,0,0,2.748-5.617,1.177,1.177,0,0,0-.8-1.408" transform="translate(-70.059 -35.633)" fill="#323232"/>
    <path id="パス_3528" data-name="パス 3528" d="M160.376,44.438c-.687.851-1.4,1.8-2.31,1.949.91-.153,1.623-1.1,2.31-1.949a1.061,1.061,0,0,0-.5-.642,1.157,1.157,0,0,0-1.558.411c-.207.345-.423.684-.653,1.015q-.156.226-.319.446l-.112.149-.111.141a17.819,17.819,0,0,1-1.59,1.738q-.416.4-.856.768c-.126.106-.254.21-.384.313l-.158.121q-.109.082-.22.162a17.769,17.769,0,0,1-1.992,1.249,1.159,1.159,0,0,0-.408,1.566c.008.012.018.022.026.033a5.23,5.23,0,0,0,1.273-.941,5.23,5.23,0,0,1-1.273.941,1.156,1.156,0,0,0,1.532.377,18.975,18.975,0,0,0,7.212-6.922,1.159,1.159,0,0,0,.094-.924" transform="translate(-98.345 -28.275)" fill="#323232"/>
    <path id="パス_3529" data-name="パス 3529" d="M135.046,48.415a1.159,1.159,0,0,0-1.558.411A22.543,22.543,0,0,1,125.33,55.9a1.161,1.161,0,0,0-.408,1.566,1.04,1.04,0,0,0,.067.092,13.162,13.162,0,0,0,1.094-.786,13.162,13.162,0,0,1-1.094.786,1.16,1.16,0,0,0,1.491.319,24.126,24.126,0,0,0,3.417-2.142c-.811.007-1.626-.02-2.413-.02.787,0,1.6.026,2.413.02a25.312,25.312,0,0,0,5.559-5.752,1.159,1.159,0,0,0-.408-1.566" transform="translate(-81.072 -31.261)" fill="#323232"/>
    <path id="パス_3530" data-name="パス 3530" d="M39.01,22.842l.566.477a1.215,1.215,0,0,0,.8.335,1.145,1.145,0,0,0,.8-1.954l-4.027-3.394-.566-.477a1.215,1.215,0,0,0-.8-.335,1.145,1.145,0,0,0-.8,1.954l4.027,3.394" transform="translate(-22.516 -11.332)" fill="#323232"/>
    <path id="パス_3531" data-name="パス 3531" d="M62.787,8.042l.258.713a1.139,1.139,0,1,0,2.2-.609l-1.8-4.95-.258-.713a1.139,1.139,0,1,0-2.2.609l1.795,4.95" transform="translate(-39.594 -1.059)" fill="#323232"/>
    <path id="パス_3532" data-name="パス 3532" d="M23.592,48.277l5.031,1.282.707.18a1.145,1.145,0,0,0,.605-2.208L24.9,46.249l-.707-.18a1.145,1.145,0,0,0-.6,2.208" transform="translate(-14.792 -29.82)" fill="#323232"/>
  </g>
</svg>
