<svg id="グループ_330" data-name="グループ 330" xmlns="http://www.w3.org/2000/svg" xmlns:xlink="http://www.w3.org/1999/xlink" width="167" height="159" viewBox="0 0 167 159">
  <defs>
    <clipPath id="clip-path">
      <rect id="長方形_181" data-name="長方形 181" width="167" height="159" fill="none"/>
    </clipPath>
  </defs>
  <g id="グループ_329" data-name="グループ 329" clip-path="url(#clip-path)">
    <path id="パス_3370" data-name="パス 3370" d="M99.532,147.575q-.85,15.906-1.7,31.813L97.587,184c-.082,1.544,2.311,1.539,2.393,0q.85-15.906,1.7-31.813l.247-4.613c.083-1.544-2.311-1.539-2.393,0" transform="translate(-58.658 -87.827)" fill="#323232"/>
    <path id="パス_3371" data-name="パス 3371" d="M50.825,184.224q4.767,20.49,9.534,40.981.681,2.926,1.361,5.851c.35,1.5,2.658.868,2.308-.638l-9.534-40.981q-.681-2.926-1.361-5.851c-.35-1.5-2.658-.868-2.308.638" transform="translate(-30.529 -109.606)" fill="#323232"/>
    <path id="パス_3372" data-name="パス 3372" d="M7.092,182.751l14.094,29.661,1.991,4.189c.662,1.394,2.726.177,2.067-1.212L11.15,185.728l-1.991-4.189c-.663-1.394-2.727-.177-2.067,1.212" transform="translate(-4.186 -108.524)" fill="#323232"/>
    <path id="パス_3373" data-name="パス 3373" d="M329.73,322.59,292.421,345.8l-5.388,3.353c-1.306.813-.106,2.891,1.208,2.073l37.309-23.213,5.388-3.353c1.306-.813.106-2.891-1.208-2.073" transform="translate(-172.196 -193.389)" fill="#323232"/>
    <path id="パス_3374" data-name="パス 3374" d="M343.171,371.281l-30.677,7.053-4.363,1c-1.5.345-.866,2.66.636,2.315l30.677-7.053,4.363-1c1.5-.345.866-2.661-.636-2.315" transform="translate(-184.702 -222.687)" fill="#323232"/>
    <path id="パス_3375" data-name="パス 3375" d="M369.46,41.977a1.266,1.266,0,0,1,.114-.351c1.527-3.014,2.147-6.331,4.614-8.788,1.2-1.194,2.429-2.048,2.588-3.854.076-.866.065-1.734.094-2.6a2.73,2.73,0,0,1-2.461-1.307,7.022,7.022,0,0,1-1.65.728,7.141,7.141,0,0,1-.545,3.048c-.584,1.391-2.876.776-2.285-.632,1.379-3.286-.691-6.239-2.284-9a13.534,13.534,0,0,1-2.164-7.038,15.765,15.765,0,0,0-.09-4.267c-.176-.646-1.574-3.194-2.2-.55a7.046,7.046,0,0,0,.288,1.583,19.861,19.861,0,0,1-1.033,8.445c-.9,2.862-1.851,5.318-1.255,8.375.446,2.289.886,3.949-.191,6.15-.95,1.94-2.018,3.829-3.036,5.735,2.621,3.72,7.133,4.952,11.5,4.323" transform="translate(-215.17 -3.712)" fill="#fff"/>
    <path id="パス_3376" data-name="パス 3376" d="M148.849,326.4a16.451,16.451,0,0,1,2.167,4.006,10.993,10.993,0,0,0-.773-4.857,12.279,12.279,0,0,1-1.394.85" transform="translate(-89.473 -195.279)" fill="#fff"/>
    <path id="パス_3377" data-name="パス 3377" d="M386.671,28.064c.424.742.882,1.467,1.3,2.2.058.1.115.206.172.309a7.016,7.016,0,0,0,2.154-3.227,7.21,7.21,0,0,0,.593-1.859,1.509,1.509,0,0,0-1.308-1.78,9.813,9.813,0,0,1-2.914,4.355" transform="translate(-232.427 -14.222)" fill="#fff"/>
    <path id="パス_3378" data-name="パス 3378" d="M403.939,43.223c.094.178.457.256.477.3a2.286,2.286,0,0,0,.545-.319,6.539,6.539,0,0,0,1.263-1.39,6.187,6.187,0,0,0,1.024-1.864c.139-.484.175-1.4-.693-1.272a1.333,1.333,0,0,1-.168.008,12.59,12.59,0,0,1-2.568,4.356,1.285,1.285,0,0,1,.12.182" transform="translate(-242.735 -23.193)" fill="#fff"/>
    <path id="パス_3379" data-name="パス 3379" d="M393,37.463c.156.388.294.78.411,1.176a5.877,5.877,0,0,0,2.92-2.466c.249-.376,2.854-5.275.56-4.546a1.256,1.256,0,0,1-.166.035c-.72,2.28-1.729,4.459-3.726,5.8" transform="translate(-236.233 -18.927)" fill="#fff"/>
    <path id="パス_3380" data-name="パス 3380" d="M383.288,19.082l.006.014a8.179,8.179,0,0,0,1.987-3.795,5.11,5.11,0,0,0,.242-2.485c-.238-.5-1.906-.459-2.363-.036a1.258,1.258,0,0,1-.3.2c.013.261.02.519.017.77-.018,1.833-.229,3.556.414,5.326" transform="translate(-230.116 -7.469)" fill="#fff"/>
    <path id="パス_3381" data-name="パス 3381" d="M138.577,196.341a15.667,15.667,0,0,0-12.427-1.984A16.2,16.2,0,0,0,116.889,201c-2,2.711-4.332,5.244-7.692,6.182a7.2,7.2,0,0,1-1.04.207,13.947,13.947,0,0,0,14.382-1.563c4.956-4.217,9.7-9.236,16.808-7.122a1.2,1.2,0,0,1,.6,1.869c2.029.317,4.157.191,5.664-1.1h0c-.282-.125-.552-.261-.813-.4-.083-.046-.16-.1-.241-.142-.176-.1-.349-.2-.514-.315-.088-.058-.171-.12-.257-.18-.15-.107-.3-.216-.441-.329-.081-.065-.16-.132-.239-.2q-.208-.177-.4-.364c-.07-.068-.14-.136-.207-.2-.133-.136-.259-.276-.382-.418-.055-.064-.111-.126-.164-.191-.135-.166-.262-.337-.385-.511-.033-.046-.068-.091-.1-.138a9.317,9.317,0,0,1-.809-1.463c-.192-.02-.385-.031-.582-.038l0,0a1.14,1.14,0,0,1,.162.295c.341.941-.634,2.165-1.663,1.47" transform="translate(-65.013 -116.284)" fill="#fff"/>
    <path id="パス_3382" data-name="パス 3382" d="M209.86,239.171c.092-.032.184-.063.276-.1a14.02,14.02,0,0,0,2.541-1.232c1.3-.807,2.491,1.25,1.2,2.052-2.629,1.629-5.181,2.1-8.122,2.848a1.154,1.154,0,0,1-.662-.019c.286,2.55.4,5.114.6,7.67a39.538,39.538,0,0,0,6.357-8.38,1.187,1.187,0,0,1,2.046,1.2,41.628,41.628,0,0,1-8.508,10.562,1.2,1.2,0,0,1-2.022-.84c-.229-1.982-.348-3.972-.483-5.96-1.988,9.747-3.772,19.572-7.345,28.892-.542,1.415-2.833.8-2.284-.632,3.622-9.451,5.4-19.421,7.427-29.3a1.15,1.15,0,0,1,2.106-.3c-.077-1.035-.165-2.07-.284-3.1a1.226,1.226,0,0,1,0-.225c-3.505,1.728-6.063,4.663-8.845,7.371-1.1,1.066-2.771-.614-1.675-1.681,2.725-2.652,5.275-5.527,8.6-7.368-4.55-3.172-9.23-6.734-12.24-11.44a1,1,0,0,1-.463-.751,20.978,20.978,0,0,1-1.1-2.132,1.225,1.225,0,0,1,.118-1.226,1.08,1.08,0,0,0-.728,0,1.184,1.184,0,0,1-.249,1.3l-2.239,2.086c-.027.025-.057.044-.086.066.007.293.018.586.026.879a1.092,1.092,0,0,1,.368.626,69.98,69.98,0,0,0,6.276,16.087c.693,1.361-1.352,2.562-2.046,1.2a100.747,100.747,0,0,1-4.185-9.165c.479,7.178,1.269,14.344,2.236,21.454.736,5.41,1.6,10.811,2.728,16.153a61.611,61.611,0,0,0,3.36,11.774,1.248,1.248,0,0,1-.216,1.351c-.027.03-.057.057-.086.085a4.627,4.627,0,0,0,.822,1.363,5.959,5.959,0,0,1,1.385-1.449,1.187,1.187,0,0,1,.236-.313,64.015,64.015,0,0,0,16.365-25.247,77.391,77.391,0,0,0,4.088-27.931,1.055,1.055,0,0,1,.379-.882l0,0-.006,0a13.324,13.324,0,0,1-3.019.681l-1.407,2.98a1.1,1.1,0,0,1-.99.577,1.364,1.364,0,0,1-.265-.026c.009.147.016.293.018.437" transform="translate(-110.475 -134.976)" fill="#fff"/>
    <path id="パス_3383" data-name="パス 3383" d="M213.12,130.1l.012.007a1.16,1.16,0,0,1,.222,1.814c-5.029,5.091-9.195,11.038-15.329,14.9a1.152,1.152,0,0,1-1.969.669c-1.021-1.122-2.369-.93-2.664.651a12.017,12.017,0,0,0-.12,3.35,7.306,7.306,0,0,0,4.659,5.924c1.1.487.579,1.858-.367,2.118a10.942,10.942,0,0,0-.848,1.871c.821-.48,2.145.145,1.766,1.286q-1.1,3.313-2.208,6.626c3.056,4.683,7.847,8.143,12.382,11.272a1.176,1.176,0,0,1,.508.768,1.228,1.228,0,0,1,.506,1.373,1.422,1.422,0,0,1,.274.082,1.055,1.055,0,0,1,.839-1.059c1.685-.428,3.23-.747,4.739-1.279,0-.144-.008-.289-.017-.437a1.09,1.09,0,0,1-.366-.124,1.223,1.223,0,0,1-.425-1.626l.825-1.746A16.88,16.88,0,0,1,209,174.561c-4.225-2.245-6.735-5.779-9.565-9.478-.929-1.214,1.13-2.4,2.046-1.2,2.52,3.294,4.706,6.4,8.428,8.466,3.9,2.162,8.441,2.606,12.407.362,7.514-4.251,8.721-13.563,10.2-21.268a1.135,1.135,0,0,1,2.068-.334,14.1,14.1,0,0,0,.27-3.4,1.09,1.09,0,0,1-.754-1.075c-.047-8.7-6-16.158-14.106-18.948a1.2,1.2,0,0,1-.448-.278c-2.986-.825-4.979.517-6.421,2.693m15.14,8.913a4.127,4.127,0,0,1,3.934,2.74,1.2,1.2,0,0,1-.828,1.462,1.219,1.219,0,0,1-1.457-.83,1.715,1.715,0,0,0-1.649-.994,1.189,1.189,0,0,1,0-2.377m-2.608,7.688a1.192,1.192,0,0,1,1.457-.83l2.1.831a1.217,1.217,0,0,1,.828,1.462,1.193,1.193,0,0,1-1.458.83l-2.1-.831a1.217,1.217,0,0,1-.827-1.462m-13.8-4.964,3.481.394a1.215,1.215,0,0,1,1.185,1.188,1.194,1.194,0,0,1-1.185,1.188l-3.481-.394a1.214,1.214,0,0,1-1.185-1.188,1.194,1.194,0,0,1,1.185-1.188m11.037,19.914-9.647-2.789c.13,2.043.333,4.279,1.383,5.9,1.809,2.8,4.437.579,5.348-1.7.561-1.4,2.852-.788,2.285.632-1.253,3.134-4.506,6.327-7.99,4.065-3.253-2.111-3.23-7.07-3.5-10.511a1.194,1.194,0,0,1,1.5-1.146l11.253,3.253a1.189,1.189,0,0,1-.63,2.292m-2.2-17.4c.63-1.393,2.672-.183,2.046,1.2a3.15,3.15,0,0,0,.267,2.973c.806,1.305-1.245,2.5-2.046,1.2a5.621,5.621,0,0,1-.267-5.373m.27,9.073a1.189,1.189,0,0,1,0,2.377,1.189,1.189,0,0,1,0-2.377m-3.222-15.052a2.582,2.582,0,0,0-3.182.9c-.841,1.27-2.892.078-2.046-1.2a5.011,5.011,0,0,1,6.424-1.749c1.375.664.172,2.713-1.2,2.052" transform="translate(-116.136 -76.274)" fill="#fff"/>
    <path id="パス_3384" data-name="パス 3384" d="M223.152,117.3a23.494,23.494,0,0,1,14.883,15,17.938,17.938,0,0,0-5.99-14.483,15.128,15.128,0,0,0-8.025-4.025c-2.633-.321-6.087-.092-8.281,1.63a1.181,1.181,0,0,1-1.444,1.413c-4.419-1.227-9.384,2.5-12.3,5.449-3.84,3.881-4.865,8.678-4.5,13.97a4.125,4.125,0,0,1,1.665.555c.009-.006.016-.013.025-.019,6.044-3.737,10.109-9.662,15.033-14.647a1.082,1.082,0,0,1,1.441-.14c1.442-2.176,3.435-3.518,6.421-2.693a1.157,1.157,0,0,1-.337-.6c-.171-.8.43-1.758,1.415-1.419" transform="translate(-118.67 -68.187)" fill="#fff"/>
    <path id="パス_3385" data-name="パス 3385" d="M126.8,314.19l-.006,0a.887.887,0,0,1-.178.036.928.928,0,0,1-.116,0l-.043,0a.956.956,0,0,1-.112-.015l-.037-.009a1.1,1.1,0,0,1-.336-.144l-.049-.032c-.028-.02-.055-.04-.081-.062s-.037-.032-.056-.05-.047-.042-.068-.065a1.365,1.365,0,0,1-.1-.121c-.014-.018-.026-.038-.039-.058s-.042-.063-.061-.1-.023-.042-.034-.063c-.018-.036-.034-.073-.049-.111-.007-.019-.016-.037-.022-.056a1.3,1.3,0,0,1-.047-.174c0-.009,0-.018,0-.026a1.227,1.227,0,0,1-.017-.158c0-.019,0-.038,0-.058a1.129,1.129,0,0,1,.009-.137c0-.019,0-.038.008-.057a1.2,1.2,0,0,1,.048-.189,1.264,1.264,0,0,1,.22-.392c2.293-2.766,2.131-7.925.583-11.024a37.642,37.642,0,0,0-3.356-4.888c-.9-1.242,1.161-2.428,2.046-1.2q.2.273.395.543c1.079-.522,2.669-1.456,2.981-2.421a2.425,2.425,0,0,0-.519-1.656c-.284-.176-.76-.033-1.1.036a18.893,18.893,0,0,0-4.953,2c-1.346.721-2.542-1.332-1.2-2.052,1.525-.816,3.94-2.211,6.062-2.457a4.082,4.082,0,0,0,.445-1.828c-.216-1.17-1.052-.957-1.939-.676a33.388,33.388,0,0,0-6.322,3.082,1.188,1.188,0,0,1-1.2-2.052,47.228,47.228,0,0,1,5.394-2.767,12.16,12.16,0,0,1,2.62-.881,3.853,3.853,0,0,0-.493-2.27c-1.008-1.185-2.772.083-3.833.693A37.934,37.934,0,0,0,115.5,286.5c-1.153.99-2.836-.685-1.675-1.681,2.411-2.069,5.386-4.7,8.523-5.732a3.65,3.65,0,0,0-.277-.805c-.712-1.4-1.77-.812-2.849-.288-1.721.837-2.758,2.509-4.228,3.731a14.42,14.42,0,0,0-2.5,2.468c-.523.71-.6.779-.326,1.551.267.744.61,1.469.935,2.2a1.232,1.232,0,0,1,.1.146,79.082,79.082,0,0,1,4.639,12c.7,2.086,1.7,4.309,1.146,6.547A31.014,31.014,0,0,1,117.6,310.3a1.2,1.2,0,0,1-.584.653,1.356,1.356,0,0,1-1.5-.2l-.149.21a73.954,73.954,0,0,0,10.629,5.9c.114.052.231.1.345.154l.531-2.86c-.024.01-.047.023-.072.031" transform="translate(-67.327 -166.403)" fill="#fff"/>
    <path id="パス_3386" data-name="パス 3386" d="M190.745,83.336a1.105,1.105,0,0,1,.284-1.468c-.031-.036-.063-.075-.094-.106-.821,0-1.214.536-1.515,1.217.756-.033,1.511.539,1.158,1.424l-2.534,6.355L170.321,135.2c-.56,1.4-2.851.788-2.285-.632l.008-.02A15.084,15.084,0,0,0,166.6,135.9c-1.768,5.264-4.622,9.948-10.121,12.342-.081.035-.162.063-.243.1a1.17,1.17,0,0,1,1.342,1.137,78.607,78.607,0,0,1-4.382,29.151,66.766,66.766,0,0,1-16.6,25.545c-.057.054-.111.11-.168.163a1.227,1.227,0,0,1-2.034-.782,1,1,0,0,1,.122-.587,5.967,5.967,0,0,0-1.385,1.449c.047.052.088.107.138.158-.051-.051-.092-.105-.138-.158-.222.307-.437.627-.651.95.214-.323.429-.643.651-.95a4.648,4.648,0,0,1-.822-1.362,1.365,1.365,0,0,1-.609.348.948.948,0,0,1-.7-.076,1.026,1.026,0,0,1-.435-.507c-3.832-8.835-5.037-19.035-6.326-28.5a280.757,280.757,0,0,1-2.782-32.446,1.163,1.163,0,0,1,.11-.529,10.735,10.735,0,0,0-3.059.757,1.091,1.091,0,0,1,.455,1.241c-1.167,4.4-2.827,8.732-3.4,13.272-.19,1.5-2.561,1.513-2.37,0a78.636,78.636,0,0,1,2.9-11.8,52.254,52.254,0,0,0-12.512-1.148c-1.979.118-2.867.5-3.967,2.126a68.963,68.963,0,0,0-3.887,6.76,117.521,117.521,0,0,0-5.218,11.453c-2.06,5.233-4.239,10.42-6.435,15.6a54.789,54.789,0,0,0,14.5,14l.149-.21a.945.945,0,0,1-.2-1.088c.029-.073.06-.146.089-.219.373-.928.8-1.858,1.093-2.81.657-2.156-.41-4.335-1.1-6.377a77.822,77.822,0,0,0-4.048-10.581,1.268,1.268,0,0,1-.2-.325c-.579-1.418-1.962-3.283-1.544-4.852.735-2.759,3.979-4.376,5.745-6.365,1.4-1.579,3.79-3.617,6.1-3.148,1.935.394,2.858,2.023,3.243,3.8a3.721,3.721,0,0,1,2.285,1.293c.988,1.148.718,2.362.94,3.746a1.265,1.265,0,0,1-.03.548,3.987,3.987,0,0,1,1.384,2.092,4.323,4.323,0,0,1-.346,2.957,4.363,4.363,0,0,1,1.612,4.477,4.19,4.19,0,0,1-.607,1.071,1.328,1.328,0,0,1,.149.268c1.338,3.323,1.9,7.309-.456,10.3h0a11.8,11.8,0,0,1-1.819,7.639c-.155.224-.317.445-.495.659a1.267,1.267,0,0,1-.164.166,1.068,1.068,0,0,1-.122.084c-.016.01-.032.024-.048.032a.837.837,0,0,1-.1.041l-.531,2.859a107.737,107.737,0,0,0,23.719,7.29,46.683,46.683,0,0,0,20.046-.519l.154-.235q1.648-2.511,3.291-5.026c3.52-5.389,7.205-10.72,10.328-16.355a196,196,0,0,0,14.1-31.048,1.2,1.2,0,0,1,1.454-.779c.079-.232.162-.465.252-.7a.988.988,0,0,1-.063-.914l2.985-7.927,12.96-34.424L206.132,89.5c-5.9,1.19-12.245-.669-15.387-6.166m-64.9,116.013A212.971,212.971,0,0,1,114.1,169.8c-.638-2.07-2.165-5.466-1.221-7.652,1.138-2.634,5.072-3.767,7.613-4.379,1.484-.357,2.112,1.935.63,2.292-1.784.429-5.98,1.555-6.136,3.4a9.609,9.609,0,0,0,.6,2.956c.435,1.642.947,3.263,1.477,4.877a220.457,220.457,0,0,0,10.819,26.852c.662,1.373-1.382,2.577-2.046,1.2m40.976-37.5c-1.519,3.736-3.319,7.358-5.131,10.957-3.348,6.649-7,13.142-10.334,19.795-.686,1.368-2.73.163-2.046-1.2,1.361-2.713,2.821-5.376,4.241-8.058,3.633-6.863,7.347-13.733,10.449-20.858,1.146-2.634,2.443-5.554,1.663-8.485a4.9,4.9,0,0,0-2.624-3.2,7.533,7.533,0,0,0-1.138-.411c-.185-.057-.728-.13-.29-.078-1.5-.178-1.511-2.557,0-2.377a7.47,7.47,0,0,1,5.967,4.38c1.351,3.158.471,6.518-.756,9.537M181.4,134.31c-4.314,3.979-8.25,8.453-13.215,11.652-1.288.83-2.475-1.229-1.2-2.052,4.787-3.084,8.575-7.443,12.735-11.28,1.121-1.034,2.8.643,1.675,1.681m1.933-4.748a1.189,1.189,0,0,1,0-2.377,1.189,1.189,0,0,1,0,2.377" transform="translate(-50.541 -49.043)" fill="#aedef0"/>
    <path id="パス_3387" data-name="パス 3387" d="M296.7,137.026l17.723-44.447,2.534-6.355c.353-.884-.4-1.457-1.158-1.423a1.232,1.232,0,0,0-1.127.792l-17.722,44.447-2.526,6.335-.008.02c-.566,1.42,1.724,2.037,2.285.632" transform="translate(-176.916 -50.866)" fill="#323232"/>
    <path id="パス_3388" data-name="パス 3388" d="M339.438,34.293c3.143,5.5,9.488,7.356,15.387,6.166l-7.349,19.522L334.517,94.4q-1.492,3.964-2.984,7.927a.986.986,0,0,0,.063.914,1.281,1.281,0,0,0,2.221-.282l8.126-21.586L354.9,46.954l2.984-7.927a1.194,1.194,0,0,0-1.457-1.462l-.055.018c.535-1.3.987-2.639,1.581-3.918a15.329,15.329,0,0,1,3.387-4.2c2.261-2.343,1.705-5.008,2.038-7.986a11.176,11.176,0,0,0,1.581-1.931c.775-1.15,1.543-2.7,1.181-4.128a3.18,3.18,0,0,0-2.993-2.252c-.241-1.6-1.325-3.009-3.025-2.918-.155-1.588-1.3-2.607-3.2-3.076a11.617,11.617,0,0,0,.091-1.57,2.545,2.545,0,0,0-2.089-2.784,4.607,4.607,0,0,0-3.4.184,4.217,4.217,0,0,0-2.609-2.81,3.047,3.047,0,0,0-4.066,3.363,25.282,25.282,0,0,1,.357,5.228,27.94,27.94,0,0,1-1.557,5.981,15.3,15.3,0,0,0-.519,8.623,5.346,5.346,0,0,1-.254,3.89c-.3.637-.664,1.253-.994,1.876l-1.839,3.472a1.38,1.38,0,0,0-.318.2,1.105,1.105,0,0,0-.284,1.468m23.448-18.8a1.33,1.33,0,0,0,.168-.008c.868-.125.833.788.693,1.272a6.187,6.187,0,0,1-1.024,1.864,6.527,6.527,0,0,1-1.263,1.39,2.286,2.286,0,0,1-.545.319c-.021-.043-.383-.121-.477-.3a1.277,1.277,0,0,0-.12-.182,12.584,12.584,0,0,0,2.568-4.356m-3.157-2.756a1.262,1.262,0,0,0,.166-.035c2.294-.729-.312,4.17-.56,4.546a5.879,5.879,0,0,1-2.92,2.466c-.118-.4-.256-.788-.412-1.176,2-1.342,3.006-3.521,3.726-5.8m-3.338-3.248a1.509,1.509,0,0,1,1.308,1.78,7.207,7.207,0,0,1-.593,1.859,7.02,7.02,0,0,1-2.154,3.227c-.057-.1-.114-.207-.172-.309-.42-.736-.878-1.461-1.3-2.2a9.806,9.806,0,0,0,2.913-4.355m-4.417-3.972a1.27,1.27,0,0,0,.3-.2c.457-.423,2.125-.465,2.363.036a5.115,5.115,0,0,1-.241,2.485,8.182,8.182,0,0,1-1.988,3.794l-.006-.014c-.643-1.77-.431-3.493-.414-5.326,0-.251,0-.509-.017-.77m-6.913,22.691c1.078-2.2.637-3.862.191-6.151-.6-3.057.359-5.513,1.255-8.375a19.862,19.862,0,0,0,1.033-8.445,7.047,7.047,0,0,1-.288-1.584c.626-2.643,2.024-.1,2.2.55a15.767,15.767,0,0,1,.09,4.267,13.536,13.536,0,0,0,2.164,7.038c1.593,2.76,3.663,5.713,2.284,9-.591,1.408,1.7,2.023,2.285.632a7.143,7.143,0,0,0,.545-3.048,7.017,7.017,0,0,0,1.65-.729,2.729,2.729,0,0,0,2.46,1.307c-.029.868-.018,1.737-.094,2.6-.158,1.806-1.389,2.66-2.588,3.854-2.467,2.457-3.087,5.774-4.614,8.788a1.269,1.269,0,0,0-.114.351c-4.365.629-8.877-.6-11.5-4.323,1.018-1.906,2.086-3.8,3.036-5.735" transform="translate(-199.235 0)" fill="#323232"/>
    <path id="パス_3389" data-name="パス 3389" d="M286.988,259.7a1.2,1.2,0,0,0-1.454.779,196,196,0,0,1-14.1,31.048c-3.123,5.635-6.808,10.966-10.328,16.355q-1.642,2.515-3.291,5.026l-.154.235q1.762-.434,3.486-1,3.686-5.622,7.336-11.268a176.49,176.49,0,0,0,9.436-16.638q1.368-2.732,2.664-5.512a181.713,181.713,0,0,0,7.237-17.615,1.047,1.047,0,0,0-.831-1.411" transform="translate(-154.879 -155.756)" fill="#323232"/>
    <path id="パス_3390" data-name="パス 3390" d="M238.152,165.952l3.481.394a1.194,1.194,0,0,0,1.185-1.188,1.214,1.214,0,0,0-1.185-1.188l-3.481-.394a1.194,1.194,0,0,0-1.185,1.188,1.215,1.215,0,0,0,1.185,1.188" transform="translate(-142.44 -98.115)" fill="#323232"/>
    <path id="パス_3391" data-name="パス 3391" d="M275.3,176.114l2.1.831a1.193,1.193,0,0,0,1.457-.83,1.217,1.217,0,0,0-.827-1.462l-2.1-.831a1.193,1.193,0,0,0-1.457.83,1.217,1.217,0,0,0,.827,1.462" transform="translate(-164.96 -104.229)" fill="#323232"/>
    <path id="パス_3392" data-name="パス 3392" d="M263.556,173.1a3.149,3.149,0,0,1-.267-2.973c.625-1.383-1.416-2.592-2.046-1.2a5.62,5.62,0,0,0,.267,5.373c.8,1.3,2.852.106,2.046-1.2" transform="translate(-156.699 -100.961)" fill="#323232"/>
    <path id="パス_3393" data-name="パス 3393" d="M261.034,194.908a1.189,1.189,0,0,0,0-2.377,1.189,1.189,0,0,0,0,2.377" transform="translate(-156.219 -115.487)" fill="#323232"/>
    <path id="パス_3394" data-name="パス 3394" d="M237.21,200.575c.273,3.441.25,8.4,3.5,10.511,3.484,2.262,6.737-.931,7.99-4.065.567-1.42-1.724-2.036-2.285-.632-.911,2.281-3.539,4.5-5.348,1.7-1.051-1.626-1.253-3.861-1.383-5.9l9.647,2.789a1.189,1.189,0,0,0,.63-2.292l-11.253-3.253a1.194,1.194,0,0,0-1.5,1.146" transform="translate(-142.585 -119.601)" fill="#323232"/>
    <path id="パス_3395" data-name="パス 3395" d="M189.2,144.442c.122.174.25.345.385.511.053.065.109.128.164.191.123.142.249.283.382.418.068.069.137.137.207.2q.194.187.4.364c.079.067.158.134.239.2.142.114.29.222.441.329.085.06.169.122.257.18.166.11.339.213.514.315.081.047.158.1.241.142.262.142.531.279.813.4h0a1.213,1.213,0,0,0,.829.065c.946-.26,1.466-1.631.367-2.118a7.307,7.307,0,0,1-4.659-5.924,12.015,12.015,0,0,1,.12-3.349c.3-1.581,1.643-1.773,2.664-.651a1.152,1.152,0,0,0,1.97-.669c6.135-3.86,10.3-9.808,15.329-14.9a1.16,1.16,0,0,0-.222-1.814,1.084,1.084,0,0,0-1.454.133c-4.924,4.985-8.989,10.91-15.033,14.647-.01.006-.016.013-.025.019a4.129,4.129,0,0,0-1.666-.555c-.362-5.291.664-10.089,4.5-13.97,2.918-2.949,7.883-6.676,12.3-5.449a1.181,1.181,0,0,0,1.444-1.413c2.194-1.722,5.648-1.951,8.281-1.63a15.129,15.129,0,0,1,8.025,4.025,17.939,17.939,0,0,1,5.99,14.483,23.494,23.494,0,0,0-14.884-15c-.985-.339-1.585.619-1.414,1.42a1.154,1.154,0,0,0,.784.872c8.105,2.79,14.06,10.249,14.107,18.948a1.09,1.09,0,0,0,.753,1.075,1.165,1.165,0,0,0,1.616-1.075,21.549,21.549,0,0,0-.162-2.494,1.039,1.039,0,0,0,1.125-.844c1.73-7.316-1.315-15.051-7.053-19.764-5.018-4.121-13.851-6.309-19.189-1.405a1.242,1.242,0,0,0-.206.248c-4.736-.5-9.589,2.842-12.816,5.952-4.561,4.4-6.029,10.018-5.567,16.216a1.31,1.31,0,0,0,.061.3c-1.463.875-1.639,2.866-1.74,4.411a11.358,11.358,0,0,0,.864,5.349,9.29,9.29,0,0,0,.809,1.463c.032.047.067.092.1.138" transform="translate(-112.643 -64.512)" fill="#323232"/>
    <path id="パス_3396" data-name="パス 3396" d="M264.9,261.014c1.227-3.019,2.107-6.379.757-9.537a7.471,7.471,0,0,0-5.967-4.381c-1.511-.18-1.5,2.2,0,2.377-.438-.052.1.021.29.078a7.521,7.521,0,0,1,1.139.411,4.9,4.9,0,0,1,2.624,3.2c.78,2.931-.517,5.851-1.663,8.485-3.1,7.125-6.816,14-10.449,20.858-1.42,2.682-2.88,5.345-4.241,8.058-.684,1.363,1.359,2.568,2.046,1.2,3.337-6.653,6.986-13.146,10.334-19.794,1.813-3.6,3.612-7.222,5.131-10.958" transform="translate(-148.622 -148.212)" fill="#323232"/>
    <path id="パス_3397" data-name="パス 3397" d="M195.165,213.138q-.738,2.216-1.477,4.432c-.012-.027-.026-.053-.038-.08-.412-.935-1.463-.7-1.929-.026a1.225,1.225,0,0,0-.117,1.225,21,21,0,0,0,1.1,2.133,1,1,0,0,0,.463.751c3.01,4.706,7.69,8.268,12.24,11.44-3.327,1.84-5.877,4.716-8.6,7.368-1.1,1.067.58,2.747,1.675,1.681,2.782-2.707,5.34-5.642,8.845-7.371a1.306,1.306,0,0,0,0,.226c.119,1.032.207,2.066.284,3.1a1.15,1.15,0,0,0-2.106.3c-2.022,9.881-3.805,19.852-7.428,29.3-.548,1.429,1.742,2.047,2.285.632,3.573-9.32,5.356-19.145,7.345-28.892.135,1.988.254,3.978.483,5.96a1.2,1.2,0,0,0,2.022.84,41.642,41.642,0,0,0,8.508-10.561,1.187,1.187,0,0,0-2.046-1.2,39.551,39.551,0,0,1-6.357,8.38c-.2-2.557-.316-5.12-.6-7.67a1.154,1.154,0,0,0,.662.018c2.942-.747,5.493-1.219,8.122-2.848,1.3-.8.106-2.86-1.2-2.052a14.056,14.056,0,0,1-2.54,1.232,48.67,48.67,0,0,1-5.016,1.376,1.056,1.056,0,0,0-.839,1.06,1.383,1.383,0,0,0-.274-.082,1.228,1.228,0,0,0-.506-1.373,1.176,1.176,0,0,0-.508-.768c-4.534-3.129-9.326-6.589-12.382-11.272q1.1-3.313,2.208-6.626c.38-1.141-.944-1.766-1.766-1.286a1.156,1.156,0,0,0-.519.654" transform="translate(-115.105 -127.358)" fill="#323232"/>
    <path id="パス_3398" data-name="パス 3398" d="M93.373,216.252a68.964,68.964,0,0,1,3.887-6.76c1.1-1.626,1.989-2.008,3.967-2.126a52.257,52.257,0,0,1,12.512,1.148,78.538,78.538,0,0,0-2.9,11.8c-.191,1.513,2.18,1.5,2.369,0,.574-4.54,2.235-8.868,3.4-13.272a1.092,1.092,0,0,0-.455-1.241,1.167,1.167,0,0,0-1.762.425,75.692,75.692,0,0,0-8.454-1.144c5.117-3.447,8.832-9.748,15.946-7.631a1.052,1.052,0,0,0,1.231-.423,1.2,1.2,0,0,0-.6-1.869c-7.1-2.114-11.852,2.9-16.808,7.122a13.947,13.947,0,0,1-14.382,1.562,7.087,7.087,0,0,0,1.039-.206c3.36-.938,5.7-3.471,7.693-6.182a16.2,16.2,0,0,1,9.261-6.641,15.667,15.667,0,0,1,12.427,1.984c1.029.7,2-.529,1.663-1.47a1.139,1.139,0,0,0-.162-.295,1.264,1.264,0,0,0-.3-.288c-5.888-3.978-14.17-3.561-19.984.335-2.859,1.916-4.34,4.8-6.617,7.273a9.751,9.751,0,0,1-5.127,3.116c-2.112.357-3.785-.81-5.211-2.249-1.077-1.086-2.752.594-1.675,1.681a12.691,12.691,0,0,0,1.837,1.546,13.037,13.037,0,0,0,9.58,4.95,31.574,31.574,0,0,0-2.063,3.371c-4.8,8.217-8.051,17.043-11.7,25.792-.6,1.451-1.218,2.9-1.827,4.347q.753,1.225,1.567,2.394c2.2-5.179,4.374-10.367,6.434-15.6a117.713,117.713,0,0,1,5.218-11.453" transform="translate(-48.18 -112.742)" fill="#323232"/>
    <path id="パス_3399" data-name="パス 3399" d="M292.3,221.727c4.965-3.2,8.9-7.673,13.215-11.652,1.125-1.038-.554-2.715-1.675-1.681-4.161,3.837-7.949,8.2-12.735,11.28-1.279.824-.092,2.882,1.2,2.052" transform="translate(-174.65 -124.808)" fill="#323232"/>
    <path id="パス_3400" data-name="パス 3400" d="M331.178,197.651a1.189,1.189,0,0,0,0-2.377,1.189,1.189,0,0,0,0,2.377" transform="translate(-198.382 -117.133)" fill="#323232"/>
    <path id="パス_3401" data-name="パス 3401" d="M241.536,186.562c-1.48,7.705-2.687,17.017-10.2,21.268-3.966,2.244-8.5,1.8-12.407-.362-3.721-2.062-5.908-5.173-8.428-8.466-.915-1.2-2.975-.014-2.046,1.2,2.83,3.7,5.34,7.233,9.565,9.478a16.88,16.88,0,0,0,6.542,1.974l-.825,1.746a1.224,1.224,0,0,0,.425,1.626,1.2,1.2,0,0,0,.631.15,1.1,1.1,0,0,0,.99-.577l1.407-2.98a13.326,13.326,0,0,0,3.018-.681l.006,0,0,0a1.054,1.054,0,0,0-.379.882,77.392,77.392,0,0,1-4.088,27.931A64.015,64.015,0,0,1,209.378,265a1.046,1.046,0,0,0-.358.9,1.227,1.227,0,0,0,2.034.782c.057-.054.112-.11.169-.163a66.768,66.768,0,0,0,16.6-25.544,78.6,78.6,0,0,0,4.382-29.152,1.169,1.169,0,0,0-1.342-1.137c.081-.033.162-.061.243-.1,5.5-2.395,8.353-7.078,10.121-12.342a85.525,85.525,0,0,0,2.6-11.055,1.179,1.179,0,0,0-.217-.966,1.135,1.135,0,0,0-2.068.334" transform="translate(-125.16 -111.394)" fill="#323232"/>
    <path id="パス_3402" data-name="パス 3402" d="M243.316,151.957a2.581,2.581,0,0,1,3.182-.9c1.368.66,2.571-1.389,1.2-2.052a5.011,5.011,0,0,0-6.424,1.749c-.846,1.278,1.205,2.469,2.046,1.2" transform="translate(-144.906 -89.069)" fill="#323232"/>
    <path id="パス_3403" data-name="パス 3403" d="M279.358,159.151a1.715,1.715,0,0,1,1.649.994,1.219,1.219,0,0,0,1.458.83,1.2,1.2,0,0,0,.827-1.462,4.126,4.126,0,0,0-3.934-2.74,1.189,1.189,0,0,0,0,2.377" transform="translate(-167.234 -94.038)" fill="#323232"/>
    <path id="パス_3404" data-name="パス 3404" d="M180.836,223.725l-2.123,1.977a1.086,1.086,0,0,0-.808.594,1.164,1.164,0,0,0-.11.529,280.756,280.756,0,0,0,2.782,32.446c1.289,9.46,2.494,19.661,6.326,28.5a1.026,1.026,0,0,0,.435.507.949.949,0,0,0,.7.076,1.382,1.382,0,0,0,.695-.433,1.248,1.248,0,0,0,.216-1.351,61.649,61.649,0,0,1-3.36-11.774c-1.132-5.342-1.992-10.743-2.728-16.154-.967-7.11-1.757-14.276-2.236-21.454,1.221,3.144,2.681,6.211,4.185,9.165.694,1.363,2.739.161,2.046-1.2a70,70,0,0,1-6.277-16.087,1.088,1.088,0,0,0-.368-.626c-.008-.293-.019-.585-.026-.879.029-.022.059-.041.086-.066l2.24-2.086a1.184,1.184,0,0,0,.248-1.3,1.145,1.145,0,0,0-.248-.381,1.2,1.2,0,0,0-1.675,0" transform="translate(-106.872 -133.995)" fill="#323232"/>
    <path id="パス_3405" data-name="パス 3405" d="M160.02,285.179c-.53-1.613-1.042-3.235-1.477-4.877a9.6,9.6,0,0,1-.6-2.955c.156-1.846,4.352-2.972,6.136-3.4,1.482-.357.854-2.649-.63-2.292-2.541.611-6.475,1.744-7.613,4.378-.944,2.186.582,5.582,1.221,7.652a213.01,213.01,0,0,0,11.737,29.548c.664,1.377,2.708.172,2.046-1.2a220.553,220.553,0,0,1-10.819-26.853" transform="translate(-93.492 -162.925)" fill="#323232"/>
    <path id="パス_3406" data-name="パス 3406" d="M125.883,301.8c2.354-2.987,1.793-6.973.456-10.3a1.3,1.3,0,0,0-.148-.269,4.184,4.184,0,0,0,.607-1.071,4.364,4.364,0,0,0-1.612-4.477,4.322,4.322,0,0,0,.346-2.957,3.99,3.99,0,0,0-1.384-2.092,1.266,1.266,0,0,0,.03-.549c-.222-1.384.049-2.6-.94-3.746a3.724,3.724,0,0,0-2.285-1.293c-.385-1.775-1.308-3.4-3.243-3.8-2.308-.469-4.7,1.569-6.1,3.148-1.766,1.989-5.01,3.606-5.745,6.365-.418,1.569.965,3.435,1.544,4.852a1.285,1.285,0,0,0,.2.325,77.785,77.785,0,0,1,4.048,10.581c.694,2.043,1.761,4.221,1.1,6.377-.29.952-.72,1.882-1.093,2.81-.029.073-.061.146-.089.219-.431,1.1.847,1.719,1.7,1.285a1.2,1.2,0,0,0,.584-.653,31.013,31.013,0,0,0,1.381-3.661c.557-2.239-.443-4.461-1.146-6.547a79.125,79.125,0,0,0-4.639-12,1.232,1.232,0,0,0-.1-.146c-.325-.728-.668-1.453-.935-2.2-.277-.772-.2-.84.325-1.551a14.423,14.423,0,0,1,2.5-2.468c1.47-1.222,2.507-2.894,4.228-3.731,1.079-.525,2.137-1.116,2.849.288a3.65,3.65,0,0,1,.277.805c-3.136,1.037-6.112,3.663-8.523,5.732-1.16,1,.522,2.671,1.676,1.681a37.893,37.893,0,0,1,5.751-4.162c1.06-.611,2.824-1.879,3.833-.693a3.85,3.85,0,0,1,.493,2.27,12.162,12.162,0,0,0-2.62.881,47.272,47.272,0,0,0-5.395,2.767,1.188,1.188,0,0,0,1.2,2.052,33.392,33.392,0,0,1,6.322-3.082c.887-.281,1.724-.495,1.939.676a4.082,4.082,0,0,1-.446,1.828c-2.121.246-4.537,1.641-6.061,2.457-1.346.721-.15,2.773,1.2,2.052a18.89,18.89,0,0,1,4.952-2c.337-.069.813-.212,1.1-.036a2.425,2.425,0,0,1,.519,1.656c-.311.964-1.9,1.9-2.981,2.421q-.2-.271-.395-.543c-.885-1.228-2.942-.043-2.046,1.2a37.641,37.641,0,0,1,3.357,4.888c1.548,3.1,1.71,8.259-.583,11.024a1.27,1.27,0,0,0-.22.392,1.163,1.163,0,0,0-.048.189c0,.019-.005.038-.008.057a1.218,1.218,0,0,0-.009.137c0,.019,0,.038,0,.058a1.161,1.161,0,0,0,.017.158c0,.009,0,.018,0,.026a1.366,1.366,0,0,0,.047.174c.007.019.015.038.022.056.015.038.031.074.049.111.011.021.022.042.034.063s.039.065.061.1.025.039.039.058a1.517,1.517,0,0,0,.1.121c.022.023.045.044.069.065s.037.034.056.05.053.042.081.062l.049.032a1.113,1.113,0,0,0,.336.144l.037.009a.956.956,0,0,0,.112.015l.043,0a.934.934,0,0,0,.116,0,.893.893,0,0,0,.178-.036l.006,0c.024-.008.048-.021.072-.031l.385-2.074-.385,2.074a.766.766,0,0,0,.1-.041c.016-.009.032-.022.048-.032a1.024,1.024,0,0,0,.122-.084,1.311,1.311,0,0,0,.164-.166c.178-.214.34-.435.5-.659a11.8,11.8,0,0,0,1.819-7.639h0m-.751-4a16.459,16.459,0,0,0-2.167-4.006,12.265,12.265,0,0,0,1.394-.85,10.986,10.986,0,0,1,.773,4.856" transform="translate(-63.59 -162.667)" fill="#323232"/>
    <path id="パス_3407" data-name="パス 3407" d="M80.374,40.7h3.6l3.361-7.066h-3.6L80.374,40.7" transform="translate(-48.313 -20.177)" fill="#e10022"/>
    <path id="パス_3408" data-name="パス 3408" d="M69.947,144.859l-3.433.846a17.314,17.314,0,0,0-.188,8.455l3.875-.954a16.012,16.012,0,0,1-.253-8.346" transform="translate(-39.601 -86.892)" fill="#ffdf18"/>
    <path id="パス_3409" data-name="パス 3409" d="M340.168,313.361a36.8,36.8,0,0,1-2.559,7.247l3.663-.3c1.352-1.937,2.789-3.829,2.672-6.241l-3.776-.71" transform="translate(-202.936 -187.966)" fill="#ffdf18"/>
    <path id="パス_3410" data-name="パス 3410" d="M234.19,83.365l2.1.28c1.193.159,1.256-.278,2.32-1.066a14.734,14.734,0,0,0,3.04-2.792l-2.66-.587-4.8,4.164" transform="translate(-140.771 -47.508)" fill="#e10022"/>
    <path id="パス_3411" data-name="パス 3411" d="M396.2,164.112a23.976,23.976,0,0,1,1.137,6.667l3.062-2.145a64.359,64.359,0,0,0-1.315-6.458l-2.883,1.936" transform="translate(-238.153 -97.279)" fill="#ffdf18"/>
    <path id="パス_3412" data-name="パス 3412" d="M375.5,227.228q.557,2.544,1.113,5.088h2.154l-1.113-5.088Z" transform="translate(-225.712 -136.3)" fill="#e10022"/>
    <path id="パス_3413" data-name="パス 3413" d="M107.922,80.212l.421,1.237,1.624.621q-.209-.866-.418-1.732l-1.626-.126" transform="translate(-64.872 -48.114)" fill="#fff"/>
    <path id="パス_3414" data-name="パス 3414" d="M237.817,74.087l-4.873-1.075a1.187,1.187,0,0,0-.71.051h0l-.063.027a1.269,1.269,0,0,0-.391.23l-7.255,6.294c-.883.766-.069,1.927.846,2.049a37.32,37.32,0,0,0,5.673.757c1.321-.036,2.658-1.415,3.667-2.2a11.848,11.848,0,0,0,3.821-4.369,1.22,1.22,0,0,0-.715-1.764m-5.244,4.761c-1.063.788-1.126,1.226-2.319,1.066l-2.1-.281,4.8-4.164,2.659.587a14.722,14.722,0,0,1-3.04,2.792" transform="translate(-134.733 -43.776)" fill="#323232"/>
    <path id="パス_3415" data-name="パス 3415" d="M84.617,27.637H78.372a1.18,1.18,0,0,0-1.033.595l-4.5,9.467A1.216,1.216,0,0,0,73.869,39.5h6.155a.979.979,0,0,0,1.123-.595l4.5-9.467a1.215,1.215,0,0,0-1.033-1.806M79.363,37.1h-3.6l3.362-7.066h3.6L79.363,37.1" transform="translate(-43.7 -16.578)" fill="#323232"/>
    <path id="パス_3416" data-name="パス 3416" d="M69.262,139.213c.346-.9-.663-1.676-1.472-1.477l-6.2,1.527a1.194,1.194,0,0,0-.836.839c-.959,3.79-1.389,7.778,0,11.518a1.227,1.227,0,0,0,1.472.838l6.2-1.527a1.108,1.108,0,0,0,.628-.388,1,1,0,0,0,.207-1.089,13.99,13.99,0,0,1,0-10.242m-6.554,10.655a17.319,17.319,0,0,1,.188-8.455l3.434-.846a16.008,16.008,0,0,0,.253,8.346l-3.874.954" transform="translate(-35.984 -82.601)" fill="#323232"/>
    <path id="パス_3417" data-name="パス 3417" d="M396.935,155.331a1.21,1.21,0,0,0-1.758-.717l-4.988,3.349a1.247,1.247,0,0,0-.43,1.643c1.18,2.708,1.246,5.873,1.3,8.775a1.206,1.206,0,0,0,1.8,1.036l5.492-3.848a1.414,1.414,0,0,0,.55-1.356,54.4,54.4,0,0,0-1.969-8.883m-3.555,10.8a23.97,23.97,0,0,0-1.137-6.667l2.883-1.936a64.488,64.488,0,0,1,1.316,6.458l-3.062,2.145" transform="translate(-234.199 -92.635)" fill="#323232"/>
    <path id="パス_3418" data-name="パス 3418" d="M375.744,222.109a1.211,1.211,0,0,0-1.154-.882h-4.6a1.215,1.215,0,0,0-1.154,1.52l1.639,7.489a1.211,1.211,0,0,0,1.154.881h4.6a1.088,1.088,0,0,0,1.077-.745,1.187,1.187,0,0,0,.077-.774l-1.639-7.489m-3.155,6.607q-.557-2.544-1.113-5.088h2.154l1.113,5.088Z" transform="translate(-221.687 -132.7)" fill="#323232"/>
    <path id="パス_3419" data-name="パス 3419" d="M340.693,308.032l-5.827-1.1c-.569-.107-1.379.154-1.472.839-.483,3.537-2.1,6.74-3.459,10a1.2,1.2,0,0,0,1.154,1.519l6.191-.5a1.239,1.239,0,0,0,.535-.167,1.21,1.21,0,0,0,.5-.428c2.046-3.02,3.858-5.525,3.216-9.327a1.16,1.16,0,0,0-.836-.838m-4.074,8.413-3.663.3a36.792,36.792,0,0,0,2.559-7.247l3.776.71c.116,2.412-1.32,4.3-2.672,6.241" transform="translate(-198.284 -184.098)" fill="#323232"/>
    <path id="パス_3420" data-name="パス 3420" d="M107.26,75.09a1.049,1.049,0,0,0-1-.854,1.327,1.327,0,0,0-.155-.028l-4.3-.334a1.207,1.207,0,0,0-1.154,1.52l.795,2.336c.276.812.4,1.6,1.239,1.994,1.364.642,2.851,1.091,4.259,1.629.9.343,1.669-.662,1.472-1.477L107.26,75.09m-3.318,2.556-.421-1.237,1.626.126q.209.866.418,1.732l-1.624-.621" transform="translate(-60.471 -44.311)" fill="#323232"/>
    <path id="パス_3421" data-name="パス 3421" d="M369.46,41.977a1.266,1.266,0,0,1,.114-.351c1.527-3.014,2.147-6.331,4.614-8.788,1.2-1.194,2.429-2.048,2.588-3.854.076-.866.065-1.734.094-2.6a2.73,2.73,0,0,1-2.461-1.307,7.022,7.022,0,0,1-1.65.728,7.141,7.141,0,0,1-.545,3.048c-.584,1.391-2.876.776-2.285-.632,1.379-3.286-.691-6.239-2.284-9a13.534,13.534,0,0,1-2.164-7.038,15.765,15.765,0,0,0-.09-4.267c-.176-.646-1.574-3.194-2.2-.55a7.046,7.046,0,0,0,.288,1.583,19.861,19.861,0,0,1-1.033,8.445c-.9,2.862-1.851,5.318-1.255,8.375.446,2.289.886,3.949-.191,6.15-.95,1.94-2.018,3.829-3.036,5.735,2.621,3.72,7.133,4.952,11.5,4.323" transform="translate(-215.17 -3.712)" fill="#fff"/>
    <path id="パス_3422" data-name="パス 3422" d="M148.849,326.4a16.451,16.451,0,0,1,2.167,4.006,10.993,10.993,0,0,0-.773-4.857,12.279,12.279,0,0,1-1.394.85" transform="translate(-89.473 -195.279)" fill="#fff"/>
    <path id="パス_3423" data-name="パス 3423" d="M386.671,28.064c.424.742.882,1.467,1.3,2.2.058.1.115.206.172.309a7.016,7.016,0,0,0,2.154-3.227,7.21,7.21,0,0,0,.593-1.859,1.509,1.509,0,0,0-1.308-1.78,9.813,9.813,0,0,1-2.914,4.355" transform="translate(-232.427 -14.222)" fill="#fff"/>
    <path id="パス_3424" data-name="パス 3424" d="M403.939,43.223c.094.178.457.256.477.3a2.286,2.286,0,0,0,.545-.319,6.539,6.539,0,0,0,1.263-1.39,6.187,6.187,0,0,0,1.024-1.864c.139-.484.175-1.4-.693-1.272a1.333,1.333,0,0,1-.168.008,12.59,12.59,0,0,1-2.568,4.356,1.285,1.285,0,0,1,.12.182" transform="translate(-242.735 -23.193)" fill="#fff"/>
    <path id="パス_3425" data-name="パス 3425" d="M393,37.463c.156.388.294.78.411,1.176a5.877,5.877,0,0,0,2.92-2.466c.249-.376,2.854-5.275.56-4.546a1.256,1.256,0,0,1-.166.035c-.72,2.28-1.729,4.459-3.726,5.8" transform="translate(-236.233 -18.927)" fill="#fff"/>
    <path id="パス_3426" data-name="パス 3426" d="M383.288,19.082l.006.014a8.179,8.179,0,0,0,1.987-3.795,5.11,5.11,0,0,0,.242-2.485c-.238-.5-1.906-.459-2.363-.036a1.258,1.258,0,0,1-.3.2c.013.261.02.519.017.77-.018,1.833-.229,3.556.414,5.326" transform="translate(-230.116 -7.469)" fill="#fff"/>
    <path id="パス_3427" data-name="パス 3427" d="M138.577,196.341a15.667,15.667,0,0,0-12.427-1.984A16.2,16.2,0,0,0,116.889,201c-2,2.711-4.332,5.244-7.692,6.182a7.2,7.2,0,0,1-1.04.207,13.947,13.947,0,0,0,14.382-1.563c4.956-4.217,9.7-9.236,16.808-7.122a1.2,1.2,0,0,1,.6,1.869c2.029.317,4.157.191,5.664-1.1h0c-.282-.125-.552-.261-.813-.4-.083-.046-.16-.1-.241-.142-.176-.1-.349-.2-.514-.315-.088-.058-.171-.12-.257-.18-.15-.107-.3-.216-.441-.329-.081-.065-.16-.132-.239-.2q-.208-.177-.4-.364c-.07-.068-.14-.136-.207-.2-.133-.136-.259-.276-.382-.418-.055-.064-.111-.126-.164-.191-.135-.166-.262-.337-.385-.511-.033-.046-.068-.091-.1-.138a9.317,9.317,0,0,1-.809-1.463c-.192-.02-.385-.031-.582-.038l0,0a1.14,1.14,0,0,1,.162.295c.341.941-.634,2.165-1.663,1.47" transform="translate(-65.013 -116.284)" fill="#75bb36"/>
    <path id="パス_3428" data-name="パス 3428" d="M209.86,239.171c.092-.032.184-.063.276-.1a14.02,14.02,0,0,0,2.541-1.232c1.3-.807,2.491,1.25,1.2,2.052-2.629,1.629-5.181,2.1-8.122,2.848a1.154,1.154,0,0,1-.662-.019c.286,2.55.4,5.114.6,7.67a39.538,39.538,0,0,0,6.357-8.38,1.187,1.187,0,0,1,2.046,1.2,41.628,41.628,0,0,1-8.508,10.562,1.2,1.2,0,0,1-2.022-.84c-.229-1.982-.348-3.972-.483-5.96-1.988,9.747-3.772,19.572-7.345,28.892-.542,1.415-2.833.8-2.284-.632,3.622-9.451,5.4-19.421,7.427-29.3a1.15,1.15,0,0,1,2.106-.3c-.077-1.035-.165-2.07-.284-3.1a1.226,1.226,0,0,1,0-.225c-3.505,1.728-6.063,4.663-8.845,7.371-1.1,1.066-2.771-.614-1.675-1.681,2.725-2.652,5.275-5.527,8.6-7.368-4.55-3.172-9.23-6.734-12.24-11.44a1,1,0,0,1-.463-.751,20.978,20.978,0,0,1-1.1-2.132,1.225,1.225,0,0,1,.118-1.226,1.08,1.08,0,0,0-.728,0,1.184,1.184,0,0,1-.249,1.3l-2.239,2.086c-.027.025-.057.044-.086.066.007.293.018.586.026.879a1.092,1.092,0,0,1,.368.626,69.98,69.98,0,0,0,6.276,16.087c.693,1.361-1.352,2.562-2.046,1.2a100.747,100.747,0,0,1-4.185-9.165c.479,7.178,1.269,14.344,2.236,21.454.736,5.41,1.6,10.811,2.728,16.153a61.611,61.611,0,0,0,3.36,11.774,1.248,1.248,0,0,1-.216,1.351c-.027.03-.057.057-.086.085a4.627,4.627,0,0,0,.822,1.363,5.959,5.959,0,0,1,1.385-1.449,1.187,1.187,0,0,1,.236-.313,64.015,64.015,0,0,0,16.365-25.247,77.391,77.391,0,0,0,4.088-27.931,1.055,1.055,0,0,1,.379-.882l0,0-.006,0a13.324,13.324,0,0,1-3.019.681l-1.407,2.98a1.1,1.1,0,0,1-.99.577,1.364,1.364,0,0,1-.265-.026c.009.147.016.293.018.437" transform="translate(-110.475 -134.976)" fill="#fff"/>
    <path id="パス_3429" data-name="パス 3429" d="M213.12,130.1l.012.007a1.16,1.16,0,0,1,.222,1.814c-5.029,5.091-9.195,11.038-15.329,14.9a1.152,1.152,0,0,1-1.969.669c-1.021-1.122-2.369-.93-2.664.651a12.017,12.017,0,0,0-.12,3.35,7.306,7.306,0,0,0,4.659,5.924c1.1.487.579,1.858-.367,2.118a10.942,10.942,0,0,0-.848,1.871c.821-.48,2.145.145,1.766,1.286q-1.1,3.313-2.208,6.626c3.056,4.683,7.847,8.143,12.382,11.272a1.176,1.176,0,0,1,.508.768,1.228,1.228,0,0,1,.506,1.373,1.422,1.422,0,0,1,.274.082,1.055,1.055,0,0,1,.839-1.059c1.685-.428,3.23-.747,4.739-1.279,0-.144-.008-.289-.017-.437a1.09,1.09,0,0,1-.366-.124,1.223,1.223,0,0,1-.425-1.626l.825-1.746A16.88,16.88,0,0,1,209,174.561c-4.225-2.245-6.735-5.779-9.565-9.478-.929-1.214,1.13-2.4,2.046-1.2,2.52,3.294,4.706,6.4,8.428,8.466,3.9,2.162,8.441,2.606,12.407.362,7.514-4.251,8.721-13.563,10.2-21.268a1.135,1.135,0,0,1,2.068-.334,14.1,14.1,0,0,0,.27-3.4,1.09,1.09,0,0,1-.754-1.075c-.047-8.7-6-16.158-14.106-18.948a1.2,1.2,0,0,1-.448-.278c-2.986-.825-4.979.517-6.421,2.693m15.14,8.913a4.127,4.127,0,0,1,3.934,2.74,1.2,1.2,0,0,1-.828,1.462,1.219,1.219,0,0,1-1.457-.83,1.715,1.715,0,0,0-1.649-.994,1.189,1.189,0,0,1,0-2.377m-2.608,7.688a1.192,1.192,0,0,1,1.457-.83l2.1.831a1.217,1.217,0,0,1,.828,1.462,1.193,1.193,0,0,1-1.458.83l-2.1-.831a1.217,1.217,0,0,1-.827-1.462m-13.8-4.964,3.481.394a1.215,1.215,0,0,1,1.185,1.188,1.194,1.194,0,0,1-1.185,1.188l-3.481-.394a1.214,1.214,0,0,1-1.185-1.188,1.194,1.194,0,0,1,1.185-1.188m11.037,19.914-9.647-2.789c.13,2.043.333,4.279,1.383,5.9,1.809,2.8,4.437.579,5.348-1.7.561-1.4,2.852-.788,2.285.632-1.253,3.134-4.506,6.327-7.99,4.065-3.253-2.111-3.23-7.07-3.5-10.511a1.194,1.194,0,0,1,1.5-1.146l11.253,3.253a1.189,1.189,0,0,1-.63,2.292m-2.2-17.4c.63-1.393,2.672-.183,2.046,1.2a3.15,3.15,0,0,0,.267,2.973c.806,1.305-1.245,2.5-2.046,1.2a5.621,5.621,0,0,1-.267-5.373m.27,9.073a1.189,1.189,0,0,1,0,2.377,1.189,1.189,0,0,1,0-2.377m-3.222-15.052a2.582,2.582,0,0,0-3.182.9c-.841,1.27-2.892.078-2.046-1.2a5.011,5.011,0,0,1,6.424-1.749c1.375.664.172,2.713-1.2,2.052" transform="translate(-116.136 -76.274)" fill="#fff"/>
    <path id="パス_3430" data-name="パス 3430" d="M223.152,117.3a23.494,23.494,0,0,1,14.883,15,17.938,17.938,0,0,0-5.99-14.483,15.128,15.128,0,0,0-8.025-4.025c-2.633-.321-6.087-.092-8.281,1.63a1.181,1.181,0,0,1-1.444,1.413c-4.419-1.227-9.384,2.5-12.3,5.449-3.84,3.881-4.865,8.678-4.5,13.97a4.125,4.125,0,0,1,1.665.555c.009-.006.016-.013.025-.019,6.044-3.737,10.109-9.662,15.033-14.647a1.082,1.082,0,0,1,1.441-.14c1.442-2.176,3.435-3.518,6.421-2.693a1.157,1.157,0,0,1-.337-.6c-.171-.8.43-1.758,1.415-1.419" transform="translate(-118.67 -68.187)" fill="#75bb36"/>
    <path id="パス_3431" data-name="パス 3431" d="M126.8,314.19l-.006,0a.887.887,0,0,1-.178.036.928.928,0,0,1-.116,0l-.043,0a.956.956,0,0,1-.112-.015l-.037-.009a1.1,1.1,0,0,1-.336-.144l-.049-.032c-.028-.02-.055-.04-.081-.062s-.037-.032-.056-.05-.047-.042-.068-.065a1.365,1.365,0,0,1-.1-.121c-.014-.018-.026-.038-.039-.058s-.042-.063-.061-.1-.023-.042-.034-.063c-.018-.036-.034-.073-.049-.111-.007-.019-.016-.037-.022-.056a1.3,1.3,0,0,1-.047-.174c0-.009,0-.018,0-.026a1.227,1.227,0,0,1-.017-.158c0-.019,0-.038,0-.058a1.129,1.129,0,0,1,.009-.137c0-.019,0-.038.008-.057a1.2,1.2,0,0,1,.048-.189,1.264,1.264,0,0,1,.22-.392c2.293-2.766,2.131-7.925.583-11.024a37.642,37.642,0,0,0-3.356-4.888c-.9-1.242,1.161-2.428,2.046-1.2q.2.273.395.543c1.079-.522,2.669-1.456,2.981-2.421a2.425,2.425,0,0,0-.519-1.656c-.284-.176-.76-.033-1.1.036a18.893,18.893,0,0,0-4.953,2c-1.346.721-2.542-1.332-1.2-2.052,1.525-.816,3.94-2.211,6.062-2.457a4.082,4.082,0,0,0,.445-1.828c-.216-1.17-1.052-.957-1.939-.676a33.388,33.388,0,0,0-6.322,3.082,1.188,1.188,0,0,1-1.2-2.052,47.228,47.228,0,0,1,5.394-2.767,12.16,12.16,0,0,1,2.62-.881,3.853,3.853,0,0,0-.493-2.27c-1.008-1.185-2.772.083-3.833.693A37.934,37.934,0,0,0,115.5,286.5c-1.153.99-2.836-.685-1.675-1.681,2.411-2.069,5.386-4.7,8.523-5.732a3.65,3.65,0,0,0-.277-.805c-.712-1.4-1.77-.812-2.849-.288-1.721.837-2.758,2.509-4.228,3.731a14.42,14.42,0,0,0-2.5,2.468c-.523.71-.6.779-.326,1.551.267.744.61,1.469.935,2.2a1.232,1.232,0,0,1,.1.146,79.082,79.082,0,0,1,4.639,12c.7,2.086,1.7,4.309,1.146,6.547A31.014,31.014,0,0,1,117.6,310.3a1.2,1.2,0,0,1-.584.653,1.356,1.356,0,0,1-1.5-.2l-.149.21a73.954,73.954,0,0,0,10.629,5.9c.114.052.231.1.345.154l.531-2.86c-.024.01-.047.023-.072.031" transform="translate(-67.327 -166.403)" fill="#fff"/>
    <path id="パス_3432" data-name="パス 3432" d="M190.745,83.336a1.105,1.105,0,0,1,.284-1.468c-.031-.036-.063-.075-.094-.106-.821,0-1.214.536-1.515,1.217.756-.033,1.511.539,1.158,1.424l-2.534,6.355L170.321,135.2c-.56,1.4-2.851.788-2.285-.632l.008-.02A15.084,15.084,0,0,0,166.6,135.9c-1.768,5.264-4.622,9.948-10.121,12.342-.081.035-.162.063-.243.1a1.17,1.17,0,0,1,1.342,1.137,78.607,78.607,0,0,1-4.382,29.151,66.766,66.766,0,0,1-16.6,25.545c-.057.054-.111.11-.168.163a1.227,1.227,0,0,1-2.034-.782,1,1,0,0,1,.122-.587,5.967,5.967,0,0,0-1.385,1.449c.047.052.088.107.138.158-.051-.051-.092-.105-.138-.158-.222.307-.437.627-.651.95.214-.323.429-.643.651-.95a4.648,4.648,0,0,1-.822-1.362,1.365,1.365,0,0,1-.609.348.948.948,0,0,1-.7-.076,1.026,1.026,0,0,1-.435-.507c-3.832-8.835-5.037-19.035-6.326-28.5a280.757,280.757,0,0,1-2.782-32.446,1.163,1.163,0,0,1,.11-.529,10.735,10.735,0,0,0-3.059.757,1.091,1.091,0,0,1,.455,1.241c-1.167,4.4-2.827,8.732-3.4,13.272-.19,1.5-2.561,1.513-2.37,0a78.636,78.636,0,0,1,2.9-11.8,52.254,52.254,0,0,0-12.512-1.148c-1.979.118-2.867.5-3.967,2.126a68.963,68.963,0,0,0-3.887,6.76,117.521,117.521,0,0,0-5.218,11.453c-2.06,5.233-4.239,10.42-6.435,15.6a54.789,54.789,0,0,0,14.5,14l.149-.21a.945.945,0,0,1-.2-1.088c.029-.073.06-.146.089-.219.373-.928.8-1.858,1.093-2.81.657-2.156-.41-4.335-1.1-6.377a77.822,77.822,0,0,0-4.048-10.581,1.268,1.268,0,0,1-.2-.325c-.579-1.418-1.962-3.283-1.544-4.852.735-2.759,3.979-4.376,5.745-6.365,1.4-1.579,3.79-3.617,6.1-3.148,1.935.394,2.858,2.023,3.243,3.8a3.721,3.721,0,0,1,2.285,1.293c.988,1.148.718,2.362.94,3.746a1.265,1.265,0,0,1-.03.548,3.987,3.987,0,0,1,1.384,2.092,4.323,4.323,0,0,1-.346,2.957,4.363,4.363,0,0,1,1.612,4.477,4.19,4.19,0,0,1-.607,1.071,1.328,1.328,0,0,1,.149.268c1.338,3.323,1.9,7.309-.456,10.3h0a11.8,11.8,0,0,1-1.819,7.639c-.155.224-.317.445-.495.659a1.267,1.267,0,0,1-.164.166,1.068,1.068,0,0,1-.122.084c-.016.01-.032.024-.048.032a.837.837,0,0,1-.1.041l-.531,2.859a107.737,107.737,0,0,0,23.719,7.29,46.683,46.683,0,0,0,20.046-.519l.154-.235q1.648-2.511,3.291-5.026c3.52-5.389,7.205-10.72,10.328-16.355a196,196,0,0,0,14.1-31.048,1.2,1.2,0,0,1,1.454-.779c.079-.232.162-.465.252-.7a.988.988,0,0,1-.063-.914l2.985-7.927,12.96-34.424L206.132,89.5c-5.9,1.19-12.245-.669-15.387-6.166m-64.9,116.013A212.971,212.971,0,0,1,114.1,169.8c-.638-2.07-2.165-5.466-1.221-7.652,1.138-2.634,5.072-3.767,7.613-4.379,1.484-.357,2.112,1.935.63,2.292-1.784.429-5.98,1.555-6.136,3.4a9.609,9.609,0,0,0,.6,2.956c.435,1.642.947,3.263,1.477,4.877a220.457,220.457,0,0,0,10.819,26.852c.662,1.373-1.382,2.577-2.046,1.2m40.976-37.5c-1.519,3.736-3.319,7.358-5.131,10.957-3.348,6.649-7,13.142-10.334,19.795-.686,1.368-2.73.163-2.046-1.2,1.361-2.713,2.821-5.376,4.241-8.058,3.633-6.863,7.347-13.733,10.449-20.858,1.146-2.634,2.443-5.554,1.663-8.485a4.9,4.9,0,0,0-2.624-3.2,7.533,7.533,0,0,0-1.138-.411c-.185-.057-.728-.13-.29-.078-1.5-.178-1.511-2.557,0-2.377a7.47,7.47,0,0,1,5.967,4.38c1.351,3.158.471,6.518-.756,9.537M181.4,134.31c-4.314,3.979-8.25,8.453-13.215,11.652-1.288.83-2.475-1.229-1.2-2.052,4.787-3.084,8.575-7.443,12.735-11.28,1.121-1.034,2.8.643,1.675,1.681m1.933-4.748a1.189,1.189,0,0,1,0-2.377,1.189,1.189,0,0,1,0,2.377" transform="translate(-50.541 -49.043)" fill="#75bb36"/>
    <path id="パス_3433" data-name="パス 3433" d="M296.7,137.026l17.723-44.447,2.534-6.355c.353-.884-.4-1.457-1.158-1.423a1.232,1.232,0,0,0-1.127.792l-17.722,44.447-2.526,6.335-.008.02c-.566,1.42,1.724,2.037,2.285.632" transform="translate(-176.916 -50.866)" fill="#323232"/>
    <path id="パス_3434" data-name="パス 3434" d="M339.438,34.293c3.143,5.5,9.488,7.356,15.387,6.166l-7.349,19.522L334.517,94.4q-1.492,3.964-2.984,7.927a.986.986,0,0,0,.063.914,1.281,1.281,0,0,0,2.221-.282l8.126-21.586L354.9,46.954l2.984-7.927a1.194,1.194,0,0,0-1.457-1.462l-.055.018c.535-1.3.987-2.639,1.581-3.918a15.329,15.329,0,0,1,3.387-4.2c2.261-2.343,1.705-5.008,2.038-7.986a11.176,11.176,0,0,0,1.581-1.931c.775-1.15,1.543-2.7,1.181-4.128a3.18,3.18,0,0,0-2.993-2.252c-.241-1.6-1.325-3.009-3.025-2.918-.155-1.588-1.3-2.607-3.2-3.076a11.617,11.617,0,0,0,.091-1.57,2.545,2.545,0,0,0-2.089-2.784,4.607,4.607,0,0,0-3.4.184,4.217,4.217,0,0,0-2.609-2.81,3.047,3.047,0,0,0-4.066,3.363,25.282,25.282,0,0,1,.357,5.228,27.94,27.94,0,0,1-1.557,5.981,15.3,15.3,0,0,0-.519,8.623,5.346,5.346,0,0,1-.254,3.89c-.3.637-.664,1.253-.994,1.876l-1.839,3.472a1.38,1.38,0,0,0-.318.2,1.105,1.105,0,0,0-.284,1.468m23.448-18.8a1.33,1.33,0,0,0,.168-.008c.868-.125.833.788.693,1.272a6.187,6.187,0,0,1-1.024,1.864,6.527,6.527,0,0,1-1.263,1.39,2.286,2.286,0,0,1-.545.319c-.021-.043-.383-.121-.477-.3a1.277,1.277,0,0,0-.12-.182,12.584,12.584,0,0,0,2.568-4.356m-3.157-2.756a1.262,1.262,0,0,0,.166-.035c2.294-.729-.312,4.17-.56,4.546a5.879,5.879,0,0,1-2.92,2.466c-.118-.4-.256-.788-.412-1.176,2-1.342,3.006-3.521,3.726-5.8m-3.338-3.248a1.509,1.509,0,0,1,1.308,1.78,7.207,7.207,0,0,1-.593,1.859,7.02,7.02,0,0,1-2.154,3.227c-.057-.1-.114-.207-.172-.309-.42-.736-.878-1.461-1.3-2.2a9.806,9.806,0,0,0,2.913-4.355m-4.417-3.972a1.27,1.27,0,0,0,.3-.2c.457-.423,2.125-.465,2.363.036a5.115,5.115,0,0,1-.241,2.485,8.182,8.182,0,0,1-1.988,3.794l-.006-.014c-.643-1.77-.431-3.493-.414-5.326,0-.251,0-.509-.017-.77m-6.913,22.691c1.078-2.2.637-3.862.191-6.151-.6-3.057.359-5.513,1.255-8.375a19.862,19.862,0,0,0,1.033-8.445,7.047,7.047,0,0,1-.288-1.584c.626-2.643,2.024-.1,2.2.55a15.767,15.767,0,0,1,.09,4.267,13.536,13.536,0,0,0,2.164,7.038c1.593,2.76,3.663,5.713,2.284,9-.591,1.408,1.7,2.023,2.285.632a7.143,7.143,0,0,0,.545-3.048,7.017,7.017,0,0,0,1.65-.729,2.729,2.729,0,0,0,2.46,1.307c-.029.868-.018,1.737-.094,2.6-.158,1.806-1.389,2.66-2.588,3.854-2.467,2.457-3.087,5.774-4.614,8.788a1.269,1.269,0,0,0-.114.351c-4.365.629-8.877-.6-11.5-4.323,1.018-1.906,2.086-3.8,3.036-5.735" transform="translate(-199.235 0)" fill="#323232"/>
    <path id="パス_3435" data-name="パス 3435" d="M286.988,259.7a1.2,1.2,0,0,0-1.454.779,196,196,0,0,1-14.1,31.048c-3.123,5.635-6.808,10.966-10.328,16.355q-1.642,2.515-3.291,5.026l-.154.235q1.762-.434,3.486-1,3.686-5.622,7.336-11.268a176.49,176.49,0,0,0,9.436-16.638q1.368-2.732,2.664-5.512a181.713,181.713,0,0,0,7.237-17.615,1.047,1.047,0,0,0-.831-1.411" transform="translate(-154.879 -155.756)" fill="#323232"/>
    <path id="パス_3436" data-name="パス 3436" d="M238.152,165.952l3.481.394a1.194,1.194,0,0,0,1.185-1.188,1.214,1.214,0,0,0-1.185-1.188l-3.481-.394a1.194,1.194,0,0,0-1.185,1.188,1.215,1.215,0,0,0,1.185,1.188" transform="translate(-142.44 -98.115)" fill="#323232"/>
    <path id="パス_3437" data-name="パス 3437" d="M275.3,176.114l2.1.831a1.193,1.193,0,0,0,1.457-.83,1.217,1.217,0,0,0-.827-1.462l-2.1-.831a1.193,1.193,0,0,0-1.457.83,1.217,1.217,0,0,0,.827,1.462" transform="translate(-164.96 -104.229)" fill="#323232"/>
    <path id="パス_3438" data-name="パス 3438" d="M263.556,173.1a3.149,3.149,0,0,1-.267-2.973c.625-1.383-1.416-2.592-2.046-1.2a5.62,5.62,0,0,0,.267,5.373c.8,1.3,2.852.106,2.046-1.2" transform="translate(-156.699 -100.961)" fill="#323232"/>
    <path id="パス_3439" data-name="パス 3439" d="M261.034,194.908a1.189,1.189,0,0,0,0-2.377,1.189,1.189,0,0,0,0,2.377" transform="translate(-156.219 -115.487)" fill="#323232"/>
    <path id="パス_3440" data-name="パス 3440" d="M237.21,200.575c.273,3.441.25,8.4,3.5,10.511,3.484,2.262,6.737-.931,7.99-4.065.567-1.42-1.724-2.036-2.285-.632-.911,2.281-3.539,4.5-5.348,1.7-1.051-1.626-1.253-3.861-1.383-5.9l9.647,2.789a1.189,1.189,0,0,0,.63-2.292l-11.253-3.253a1.194,1.194,0,0,0-1.5,1.146" transform="translate(-142.585 -119.601)" fill="#323232"/>
    <path id="パス_3441" data-name="パス 3441" d="M189.2,144.442c.122.174.25.345.385.511.053.065.109.128.164.191.123.142.249.283.382.418.068.069.137.137.207.2q.194.187.4.364c.079.067.158.134.239.2.142.114.29.222.441.329.085.06.169.122.257.18.166.11.339.213.514.315.081.047.158.1.241.142.262.142.531.279.813.4h0a1.213,1.213,0,0,0,.829.065c.946-.26,1.466-1.631.367-2.118a7.307,7.307,0,0,1-4.659-5.924,12.015,12.015,0,0,1,.12-3.349c.3-1.581,1.643-1.773,2.664-.651a1.152,1.152,0,0,0,1.97-.669c6.135-3.86,10.3-9.808,15.329-14.9a1.16,1.16,0,0,0-.222-1.814,1.084,1.084,0,0,0-1.454.133c-4.924,4.985-8.989,10.91-15.033,14.647-.01.006-.016.013-.025.019a4.129,4.129,0,0,0-1.666-.555c-.362-5.291.664-10.089,4.5-13.97,2.918-2.949,7.883-6.676,12.3-5.449a1.181,1.181,0,0,0,1.444-1.413c2.194-1.722,5.648-1.951,8.281-1.63a15.129,15.129,0,0,1,8.025,4.025,17.939,17.939,0,0,1,5.99,14.483,23.494,23.494,0,0,0-14.884-15c-.985-.339-1.585.619-1.414,1.42a1.154,1.154,0,0,0,.784.872c8.105,2.79,14.06,10.249,14.107,18.948a1.09,1.09,0,0,0,.753,1.075,1.165,1.165,0,0,0,1.616-1.075,21.549,21.549,0,0,0-.162-2.494,1.039,1.039,0,0,0,1.125-.844c1.73-7.316-1.315-15.051-7.053-19.764-5.018-4.121-13.851-6.309-19.189-1.405a1.242,1.242,0,0,0-.206.248c-4.736-.5-9.589,2.842-12.816,5.952-4.561,4.4-6.029,10.018-5.567,16.216a1.31,1.31,0,0,0,.061.3c-1.463.875-1.639,2.866-1.74,4.411a11.358,11.358,0,0,0,.864,5.349,9.29,9.29,0,0,0,.809,1.463c.032.047.067.092.1.138" transform="translate(-112.643 -64.512)" fill="#323232"/>
    <path id="パス_3442" data-name="パス 3442" d="M264.9,261.014c1.227-3.019,2.107-6.379.757-9.537a7.471,7.471,0,0,0-5.967-4.381c-1.511-.18-1.5,2.2,0,2.377-.438-.052.1.021.29.078a7.521,7.521,0,0,1,1.139.411,4.9,4.9,0,0,1,2.624,3.2c.78,2.931-.517,5.851-1.663,8.485-3.1,7.125-6.816,14-10.449,20.858-1.42,2.682-2.88,5.345-4.241,8.058-.684,1.363,1.359,2.568,2.046,1.2,3.337-6.653,6.986-13.146,10.334-19.794,1.813-3.6,3.612-7.222,5.131-10.958" transform="translate(-148.622 -148.212)" fill="#323232"/>
    <path id="パス_3443" data-name="パス 3443" d="M195.165,213.138q-.738,2.216-1.477,4.432c-.012-.027-.026-.053-.038-.08-.412-.935-1.463-.7-1.929-.026a1.225,1.225,0,0,0-.117,1.225,21,21,0,0,0,1.1,2.133,1,1,0,0,0,.463.751c3.01,4.706,7.69,8.268,12.24,11.44-3.327,1.84-5.877,4.716-8.6,7.368-1.1,1.067.58,2.747,1.675,1.681,2.782-2.707,5.34-5.642,8.845-7.371a1.306,1.306,0,0,0,0,.226c.119,1.032.207,2.066.284,3.1a1.15,1.15,0,0,0-2.106.3c-2.022,9.881-3.805,19.852-7.428,29.3-.548,1.429,1.742,2.047,2.285.632,3.573-9.32,5.356-19.145,7.345-28.892.135,1.988.254,3.978.483,5.96a1.2,1.2,0,0,0,2.022.84,41.642,41.642,0,0,0,8.508-10.561,1.187,1.187,0,0,0-2.046-1.2,39.551,39.551,0,0,1-6.357,8.38c-.2-2.557-.316-5.12-.6-7.67a1.154,1.154,0,0,0,.662.018c2.942-.747,5.493-1.219,8.122-2.848,1.3-.8.106-2.86-1.2-2.052a14.056,14.056,0,0,1-2.54,1.232,48.67,48.67,0,0,1-5.016,1.376,1.056,1.056,0,0,0-.839,1.06,1.383,1.383,0,0,0-.274-.082,1.228,1.228,0,0,0-.506-1.373,1.176,1.176,0,0,0-.508-.768c-4.534-3.129-9.326-6.589-12.382-11.272q1.1-3.313,2.208-6.626c.38-1.141-.944-1.766-1.766-1.286a1.156,1.156,0,0,0-.519.654" transform="translate(-115.105 -127.358)" fill="#323232"/>
    <path id="パス_3444" data-name="パス 3444" d="M93.373,216.252a68.964,68.964,0,0,1,3.887-6.76c1.1-1.626,1.989-2.008,3.967-2.126a52.257,52.257,0,0,1,12.512,1.148,78.538,78.538,0,0,0-2.9,11.8c-.191,1.513,2.18,1.5,2.369,0,.574-4.54,2.235-8.868,3.4-13.272a1.092,1.092,0,0,0-.455-1.241,1.167,1.167,0,0,0-1.762.425,75.692,75.692,0,0,0-8.454-1.144c5.117-3.447,8.832-9.748,15.946-7.631a1.052,1.052,0,0,0,1.231-.423,1.2,1.2,0,0,0-.6-1.869c-7.1-2.114-11.852,2.9-16.808,7.122a13.947,13.947,0,0,1-14.382,1.562,7.087,7.087,0,0,0,1.039-.206c3.36-.938,5.7-3.471,7.693-6.182a16.2,16.2,0,0,1,9.261-6.641,15.667,15.667,0,0,1,12.427,1.984c1.029.7,2-.529,1.663-1.47a1.139,1.139,0,0,0-.162-.295,1.264,1.264,0,0,0-.3-.288c-5.888-3.978-14.17-3.561-19.984.335-2.859,1.916-4.34,4.8-6.617,7.273a9.751,9.751,0,0,1-5.127,3.116c-2.112.357-3.785-.81-5.211-2.249-1.077-1.086-2.752.594-1.675,1.681a12.691,12.691,0,0,0,1.837,1.546,13.037,13.037,0,0,0,9.58,4.95,31.574,31.574,0,0,0-2.063,3.371c-4.8,8.217-8.051,17.043-11.7,25.792-.6,1.451-1.218,2.9-1.827,4.347q.753,1.225,1.567,2.394c2.2-5.179,4.374-10.367,6.434-15.6a117.713,117.713,0,0,1,5.218-11.453" transform="translate(-48.18 -112.742)" fill="#323232"/>
    <path id="パス_3445" data-name="パス 3445" d="M292.3,221.727c4.965-3.2,8.9-7.673,13.215-11.652,1.125-1.038-.554-2.715-1.675-1.681-4.161,3.837-7.949,8.2-12.735,11.28-1.279.824-.092,2.882,1.2,2.052" transform="translate(-174.65 -124.808)" fill="#323232"/>
    <path id="パス_3446" data-name="パス 3446" d="M331.178,197.651a1.189,1.189,0,0,0,0-2.377,1.189,1.189,0,0,0,0,2.377" transform="translate(-198.382 -117.133)" fill="#323232"/>
    <path id="パス_3447" data-name="パス 3447" d="M241.536,186.562c-1.48,7.705-2.687,17.017-10.2,21.268-3.966,2.244-8.5,1.8-12.407-.362-3.721-2.062-5.908-5.173-8.428-8.466-.915-1.2-2.975-.014-2.046,1.2,2.83,3.7,5.34,7.233,9.565,9.478a16.88,16.88,0,0,0,6.542,1.974l-.825,1.746a1.224,1.224,0,0,0,.425,1.626,1.2,1.2,0,0,0,.631.15,1.1,1.1,0,0,0,.99-.577l1.407-2.98a13.326,13.326,0,0,0,3.018-.681l.006,0,0,0a1.054,1.054,0,0,0-.379.882,77.392,77.392,0,0,1-4.088,27.931A64.015,64.015,0,0,1,209.378,265a1.046,1.046,0,0,0-.358.9,1.227,1.227,0,0,0,2.034.782c.057-.054.112-.11.169-.163a66.768,66.768,0,0,0,16.6-25.544,78.6,78.6,0,0,0,4.382-29.152,1.169,1.169,0,0,0-1.342-1.137c.081-.033.162-.061.243-.1,5.5-2.395,8.353-7.078,10.121-12.342a85.525,85.525,0,0,0,2.6-11.055,1.179,1.179,0,0,0-.217-.966,1.135,1.135,0,0,0-2.068.334" transform="translate(-125.16 -111.394)" fill="#323232"/>
    <path id="パス_3448" data-name="パス 3448" d="M243.316,151.957a2.581,2.581,0,0,1,3.182-.9c1.368.66,2.571-1.389,1.2-2.052a5.011,5.011,0,0,0-6.424,1.749c-.846,1.278,1.205,2.469,2.046,1.2" transform="translate(-144.906 -89.069)" fill="#323232"/>
    <path id="パス_3449" data-name="パス 3449" d="M279.358,159.151a1.715,1.715,0,0,1,1.649.994,1.219,1.219,0,0,0,1.458.83,1.2,1.2,0,0,0,.827-1.462,4.126,4.126,0,0,0-3.934-2.74,1.189,1.189,0,0,0,0,2.377" transform="translate(-167.234 -94.038)" fill="#323232"/>
    <path id="パス_3450" data-name="パス 3450" d="M180.836,223.725l-2.123,1.977a1.086,1.086,0,0,0-.808.594,1.164,1.164,0,0,0-.11.529,280.756,280.756,0,0,0,2.782,32.446c1.289,9.46,2.494,19.661,6.326,28.5a1.026,1.026,0,0,0,.435.507.949.949,0,0,0,.7.076,1.382,1.382,0,0,0,.695-.433,1.248,1.248,0,0,0,.216-1.351,61.649,61.649,0,0,1-3.36-11.774c-1.132-5.342-1.992-10.743-2.728-16.154-.967-7.11-1.757-14.276-2.236-21.454,1.221,3.144,2.681,6.211,4.185,9.165.694,1.363,2.739.161,2.046-1.2a70,70,0,0,1-6.277-16.087,1.088,1.088,0,0,0-.368-.626c-.008-.293-.019-.585-.026-.879.029-.022.059-.041.086-.066l2.24-2.086a1.184,1.184,0,0,0,.248-1.3,1.145,1.145,0,0,0-.248-.381,1.2,1.2,0,0,0-1.675,0" transform="translate(-106.872 -133.995)" fill="#323232"/>
    <path id="パス_3451" data-name="パス 3451" d="M160.02,285.179c-.53-1.613-1.042-3.235-1.477-4.877a9.6,9.6,0,0,1-.6-2.955c.156-1.846,4.352-2.972,6.136-3.4,1.482-.357.854-2.649-.63-2.292-2.541.611-6.475,1.744-7.613,4.378-.944,2.186.582,5.582,1.221,7.652a213.01,213.01,0,0,0,11.737,29.548c.664,1.377,2.708.172,2.046-1.2a220.553,220.553,0,0,1-10.819-26.853" transform="translate(-93.492 -162.925)" fill="#323232"/>
    <path id="パス_3452" data-name="パス 3452" d="M125.883,301.8c2.354-2.987,1.793-6.973.456-10.3a1.3,1.3,0,0,0-.148-.269,4.184,4.184,0,0,0,.607-1.071,4.364,4.364,0,0,0-1.612-4.477,4.322,4.322,0,0,0,.346-2.957,3.99,3.99,0,0,0-1.384-2.092,1.266,1.266,0,0,0,.03-.549c-.222-1.384.049-2.6-.94-3.746a3.724,3.724,0,0,0-2.285-1.293c-.385-1.775-1.308-3.4-3.243-3.8-2.308-.469-4.7,1.569-6.1,3.148-1.766,1.989-5.01,3.606-5.745,6.365-.418,1.569.965,3.435,1.544,4.852a1.285,1.285,0,0,0,.2.325,77.785,77.785,0,0,1,4.048,10.581c.694,2.043,1.761,4.221,1.1,6.377-.29.952-.72,1.882-1.093,2.81-.029.073-.061.146-.089.219-.431,1.1.847,1.719,1.7,1.285a1.2,1.2,0,0,0,.584-.653,31.013,31.013,0,0,0,1.381-3.661c.557-2.239-.443-4.461-1.146-6.547a79.125,79.125,0,0,0-4.639-12,1.232,1.232,0,0,0-.1-.146c-.325-.728-.668-1.453-.935-2.2-.277-.772-.2-.84.325-1.551a14.423,14.423,0,0,1,2.5-2.468c1.47-1.222,2.507-2.894,4.228-3.731,1.079-.525,2.137-1.116,2.849.288a3.65,3.65,0,0,1,.277.805c-3.136,1.037-6.112,3.663-8.523,5.732-1.16,1,.522,2.671,1.676,1.681a37.893,37.893,0,0,1,5.751-4.162c1.06-.611,2.824-1.879,3.833-.693a3.85,3.85,0,0,1,.493,2.27,12.162,12.162,0,0,0-2.62.881,47.272,47.272,0,0,0-5.395,2.767,1.188,1.188,0,0,0,1.2,2.052,33.392,33.392,0,0,1,6.322-3.082c.887-.281,1.724-.495,1.939.676a4.082,4.082,0,0,1-.446,1.828c-2.121.246-4.537,1.641-6.061,2.457-1.346.721-.15,2.773,1.2,2.052a18.89,18.89,0,0,1,4.952-2c.337-.069.813-.212,1.1-.036a2.425,2.425,0,0,1,.519,1.656c-.311.964-1.9,1.9-2.981,2.421q-.2-.271-.395-.543c-.885-1.228-2.942-.043-2.046,1.2a37.641,37.641,0,0,1,3.357,4.888c1.548,3.1,1.71,8.259-.583,11.024a1.27,1.27,0,0,0-.22.392,1.163,1.163,0,0,0-.048.189c0,.019-.005.038-.008.057a1.218,1.218,0,0,0-.009.137c0,.019,0,.038,0,.058a1.161,1.161,0,0,0,.017.158c0,.009,0,.018,0,.026a1.366,1.366,0,0,0,.047.174c.007.019.015.038.022.056.015.038.031.074.049.111.011.021.022.042.034.063s.039.065.061.1.025.039.039.058a1.517,1.517,0,0,0,.1.121c.022.023.045.044.069.065s.037.034.056.05.053.042.081.062l.049.032a1.113,1.113,0,0,0,.336.144l.037.009a.956.956,0,0,0,.112.015l.043,0a.934.934,0,0,0,.116,0,.893.893,0,0,0,.178-.036l.006,0c.024-.008.048-.021.072-.031l.385-2.074-.385,2.074a.766.766,0,0,0,.1-.041c.016-.009.032-.022.048-.032a1.024,1.024,0,0,0,.122-.084,1.311,1.311,0,0,0,.164-.166c.178-.214.34-.435.5-.659a11.8,11.8,0,0,0,1.819-7.639h0m-.751-4a16.459,16.459,0,0,0-2.167-4.006,12.265,12.265,0,0,0,1.394-.85,10.986,10.986,0,0,1,.773,4.856" transform="translate(-63.59 -162.667)" fill="#323232"/>
    <path id="パス_3453" data-name="パス 3453" d="M104.981,131.082a1.2,1.2,0,0,0,0-2.4,1.2,1.2,0,0,0,0,2.4" transform="translate(-62.409 -77.188)" fill="#323232"/>
    <path id="パス_3454" data-name="パス 3454" d="M1.156,170.536a1.2,1.2,0,0,0,0-2.4,1.2,1.2,0,0,0,0,2.4" transform="translate(0 -100.854)" fill="#323232"/>
    <path id="パス_3455" data-name="パス 3455" d="M405.036,319.006a1.2,1.2,0,0,0,0-2.4,1.2,1.2,0,0,0,0,2.4" transform="translate(-242.771 -189.912)" fill="#323232"/>
    <path id="パス_3456" data-name="パス 3456" d="M409.189,371.957a1.2,1.2,0,0,0,0-2.4,1.2,1.2,0,0,0,0,2.4" transform="translate(-245.268 -221.674)" fill="#323232"/>
  </g>
</svg>
